<svg width="28" height="28" viewBox="0 0 28 28" fill="none" xmlns="http://www.w3.org/2000/svg">
<rect width="28" height="28" rx="4" fill="#E7411F"/>
<g clip-path="url(#clip0_661_176510)">
<path d="M12.7044 5.36211C11.1149 5.58359 9.57621 6.20938 8.26976 7.25352L11.0786 9.97461C12.0875 8.71602 12.65 7.11992 12.7044 5.36211ZM14 12.8047L19.7302 7.25352C18.1915 6.02305 16.3335 5.37266 14.45 5.28125C14.4065 7.52773 13.6698 9.58086 12.3198 11.177L14 12.8047ZM7.03589 8.44883C5.95806 9.71445 5.3121 11.2051 5.08347 12.7449C6.89798 12.6922 8.54919 12.1473 9.84476 11.1699L7.03589 8.44883ZM16.9141 15.6277C18.5581 14.3234 20.6774 13.6098 23 13.5641C22.9056 11.7395 22.2343 9.93945 20.9641 8.44883L15.2339 14L16.9141 15.6277ZM14 15.1953L8.26976 20.7465C9.80847 21.9734 11.6665 22.6273 13.55 22.7188C13.5972 20.4688 14.3339 18.4156 15.6802 16.823L14 15.1953ZM20.9641 19.5512C22.0419 18.2855 22.6879 16.7949 22.9165 15.2551C21.0984 15.3113 19.4508 15.8563 18.1552 16.8301L20.9641 19.5512ZM11.0859 12.3723C9.43831 13.6801 7.31895 14.3973 5 14.4359C5.09435 16.2605 5.76573 18.0605 7.03589 19.5512L12.7661 14L11.0859 12.3723ZM15.2956 22.6379C16.8851 22.4164 18.4238 21.7906 19.7302 20.7465L16.9214 18.0254C15.9161 19.2805 15.3536 20.8801 15.2956 22.6379Z" fill="white"/>
</g>
<defs>
<clipPath id="clip0_661_176510">
<rect width="18" height="18" fill="white" transform="translate(5 5)"/>
</clipPath>
</defs>
</svg>
