<svg width="28" height="28" viewBox="0 0 28 28" fill="none" xmlns="http://www.w3.org/2000/svg">
<rect width="28" height="28" rx="4" fill="#00930C"/>
<path d="M8 14.9444C8 16.6684 8.68482 18.3217 9.90381 19.5406C11.1228 20.7596 12.7761 21.4444 14.5 21.4444C14.5 19.7205 13.8152 18.0672 12.5962 16.8483C11.3772 15.6293 9.72391 14.9444 8 14.9444ZM14.5 21.4444C16.2239 21.4444 17.8772 20.7596 19.0962 19.5406C20.3152 18.3217 21 16.6684 21 14.9444C19.2761 14.9444 17.6228 15.6293 16.4038 16.8483C15.1848 18.0672 14.5 19.7205 14.5 21.4444ZM18.8333 7.72222V11.3333C18.8333 12.4826 18.3768 13.5848 17.5641 14.3975C16.7515 15.2101 15.6493 15.6667 14.5 15.6667C13.3507 15.6667 12.2485 15.2101 11.4359 14.3975C10.6232 13.5848 10.1667 12.4826 10.1667 11.3333V7.72222C10.7011 7.72222 11.2283 7.80889 11.7267 8.00389C12.1239 8.17 12.4778 8.41556 12.7739 8.72611L14.5 7L16.2261 8.72611C16.5222 8.41556 16.8761 8.17 17.2733 8.00389C17.7711 7.81325 18.3003 7.71771 18.8333 7.72222Z" fill="white"/>
</svg>
