<svg width="28" height="28" viewBox="0 0 28 28" fill="none" xmlns="http://www.w3.org/2000/svg">
<rect width="28" height="28" rx="4" fill="#49C3F0"/>
<path d="M18.437 9.4775C19.1526 10.2122 19.6741 11.1134 19.9546 12.0999H21.875V15.476H19.9546C19.6745 16.4633 19.1529 17.3653 18.437 18.1006L19.3989 19.7656L16.4761 21.4531L15.5165 19.7881C14.5215 20.0391 13.4797 20.0391 12.4846 19.7881L11.5239 21.4531L8.60113 19.7656L9.563 18.1006C8.84711 17.3653 8.32555 16.4633 8.04538 15.476H6.125V12.101H8.04538C8.32555 11.1137 8.84711 10.2117 9.563 9.47638L8.6 7.8125L11.5216 6.125H11.525L12.4858 7.78775C13.4808 7.53679 14.5226 7.53679 15.5176 7.78775L16.475 6.125H16.4773L19.4 7.8125L18.4381 9.4775H18.437ZM17.375 13.7885C17.375 12.8934 17.0194 12.035 16.3865 11.402C15.7536 10.7691 14.8951 10.4135 14 10.4135C13.1049 10.4135 12.2465 10.7691 11.6135 11.402C10.9806 12.035 10.625 12.8934 10.625 13.7885C10.625 14.6836 10.9806 15.5421 11.6135 16.175C12.2465 16.8079 13.1049 17.1635 14 17.1635C14.8951 17.1635 15.7536 16.8079 16.3865 16.175C17.0194 15.5421 17.375 14.6836 17.375 13.7885Z" fill="white"/>
</svg>
