<svg width="28" height="28" viewBox="0 0 28 28" fill="none" xmlns="http://www.w3.org/2000/svg">
<rect width="28" height="28" rx="4" fill="#D3163C"/>
<path fill-rule="evenodd" clip-rule="evenodd" d="M7.25 10C7.25 9.44772 7.69772 9 8.25 9H10.7496C11.3019 9 11.7496 9.44772 11.7496 10V16.9993C11.7496 17.5516 11.3019 17.9993 10.7496 17.9993H8.25C7.69772 17.9993 7.25 17.5516 7.25 16.9993V10ZM16.248 10C16.248 9.44772 16.6958 9 17.248 9H19.7477C20.3 9 20.7477 9.44772 20.7477 10V16.9993C20.7477 17.5516 20.3 17.9993 19.7477 17.9993H17.248C16.6958 17.9993 16.248 17.5516 16.248 16.9993V14.2489H11.75V12.749H16.248V10ZM6.49988 12.0009H5V15.0007H6.49988V12.0009ZM21.5 12.001H22.9999V15.0007H21.5V12.001Z" fill="white"/>
</svg>
