<svg width="28" height="28" viewBox="0 0 28 28" fill="none" xmlns="http://www.w3.org/2000/svg">
<rect width="28" height="28" rx="4" fill="#495AF0"/>
<path d="M6.49805 17.752V20.002H7.99805V17.002H7.24805C6.83555 17.002 6.49805 17.3395 6.49805 17.752ZM11.748 17.002H8.74805V20.002L12.2655 19.9945C12.5505 19.9945 12.8055 19.837 12.933 19.582L13.5855 18.157L12.393 15.547L11.748 17.002ZM21.2805 17.2195C21.2105 17.1498 21.1274 17.0948 21.036 17.0575C20.9447 17.0201 20.8468 17.0013 20.748 17.002H19.998V20.002H21.498V17.752C21.498 17.542 21.4155 17.3545 21.2805 17.2195ZM15.198 14.632L18.2355 8.00195H15.723L14.403 10.9795L14.0355 11.8045L13.998 11.9095L12.273 8.00195H9.76055L12.798 14.632L13.938 17.122L13.998 17.257L15.063 19.582C15.1905 19.837 15.4455 19.9945 15.7305 19.9945L19.248 20.002V17.002H16.248L15.198 14.632Z" fill="white"/>
</svg>
