<svg width="28" height="28" viewBox="0 0 28 28" fill="none" xmlns="http://www.w3.org/2000/svg">
<rect width="28" height="28" rx="4" fill="#BE6837"/>
<path d="M13.9946 12.2548C11.3153 12.2548 10.7794 14.6827 10.7794 15.9499C10.1259 16.1691 9.51106 16.489 8.95739 16.8976C8.50876 17.2361 8.21227 17.7365 8.13204 18.2905C8.05182 18.8444 8.1943 19.4075 8.52869 19.858C8.87966 20.2961 9.386 20.5843 9.94394 20.6635C10.5019 20.7427 11.0692 20.6069 11.5296 20.2839C12.2562 19.7939 13.1166 19.5375 13.9946 19.5492C14.8727 19.5375 15.7331 19.7939 16.4597 20.2839C16.9012 20.6345 17.4643 20.7977 18.0263 20.7379C18.5883 20.678 19.1038 20.4001 19.4606 19.9644C19.6362 19.7585 19.7693 19.5202 19.8522 19.2632C19.9351 19.0061 19.9662 18.7354 19.9437 18.4664C19.9212 18.1974 19.8455 17.9354 19.7211 17.6955C19.5966 17.4555 19.4258 17.2423 19.2184 17.068C19.1927 17.0458 19.1662 17.0245 19.1391 17.0041L19.0319 16.8976C18.4603 16.5181 17.8495 16.2004 17.2099 15.9499C17.2099 14.6934 16.674 12.2548 13.9946 12.2548ZM8.18572 10.4446C7.80587 10.6334 7.51131 10.9571 7.36044 11.3516C7.20956 11.7461 7.2134 12.1825 7.37119 12.5743C7.40414 12.9982 7.60359 13.3921 7.92646 13.6711C8.24933 13.95 8.66968 14.0915 9.09672 14.0651C9.47657 13.8763 9.77113 13.5526 9.922 13.1581C10.0729 12.7636 10.069 12.3272 9.91125 11.9354C9.8783 11.5115 9.67885 11.1176 9.35598 10.8386C9.03311 10.5597 8.61276 10.4182 8.18572 10.4446ZM19.8143 10.4446C20.1941 10.6334 20.4887 10.9571 20.6396 11.3516C20.7904 11.7461 20.7866 12.1825 20.6288 12.5743C20.5959 12.9982 20.3964 13.3921 20.0735 13.6711C19.7507 13.95 19.3303 14.0915 18.9033 14.0651C18.5234 13.8763 18.2289 13.5526 18.078 13.1581C17.9271 12.7636 17.931 12.3272 18.0887 11.9354C18.1217 11.5115 18.3212 11.1176 18.644 10.8386C18.9669 10.5597 19.3872 10.4182 19.8143 10.4446ZM11.401 7.25C10.6722 7.34584 10.3292 8.25097 10.5865 9.24129C10.6437 9.66775 10.8461 10.0619 11.16 10.3583C11.4739 10.6547 11.8804 10.8354 12.312 10.8705C13.0408 10.7747 13.3837 9.86956 13.1265 8.87924C13.0692 8.45278 12.8669 8.05862 12.553 7.76225C12.2391 7.46587 11.8326 7.28511 11.401 7.25ZM16.599 7.25C17.3278 7.34584 17.6708 8.25097 17.4135 9.24129C17.3558 9.66941 17.1519 10.0649 16.8358 10.3614C16.5198 10.658 16.1108 10.8377 15.6773 10.8705C14.9485 10.7853 14.6055 9.86956 14.8628 8.87924C14.9203 8.45104 15.1242 8.05549 15.4403 7.75887C15.7563 7.46225 16.1655 7.28259 16.599 7.25Z" fill="white"/>
</svg>
