<svg width="28" height="28" viewBox="0 0 28 28" fill="none" xmlns="http://www.w3.org/2000/svg">
<rect width="28" height="28" rx="4" fill="#F84B6E"/>
<path d="M20.808 10.2504C20.6785 10.0259 20.4929 9.83879 20.2694 9.70734C20.046 9.5759 19.7923 9.50461 19.533 9.50044H9.93305L9.49805 7.80544C9.4541 7.64182 9.35604 7.4979 9.21985 7.39712C9.08367 7.29634 8.91737 7.24464 8.74805 7.25044H7.24805C7.04913 7.25044 6.85837 7.32946 6.71772 7.47011C6.57706 7.61076 6.49805 7.80153 6.49805 8.00044C6.49805 8.19935 6.57706 8.39012 6.71772 8.53077C6.85837 8.67142 7.04913 8.75044 7.24805 8.75044H8.17805L10.248 16.4454C10.292 16.6091 10.3901 16.753 10.5262 16.8538C10.6624 16.9545 10.8287 17.0062 10.998 17.0004H17.748C17.8865 17 18.0222 16.9613 18.14 16.8884C18.2579 16.8156 18.3532 16.7116 18.4155 16.5879L20.8755 11.6679C20.9822 11.4445 21.0318 11.198 21.02 10.9507C21.0083 10.7034 20.9354 10.4628 20.808 10.2504Z" fill="white"/>
<path d="M10.625 20.75C11.2463 20.75 11.75 20.2463 11.75 19.625C11.75 19.0037 11.2463 18.5 10.625 18.5C10.0037 18.5 9.5 19.0037 9.5 19.625C9.5 20.2463 10.0037 20.75 10.625 20.75Z" fill="white"/>
<path d="M18.1211 20.75C18.7424 20.75 19.2461 20.2463 19.2461 19.625C19.2461 19.0037 18.7424 18.5 18.1211 18.5C17.4998 18.5 16.9961 19.0037 16.9961 19.625C16.9961 20.2463 17.4998 20.75 18.1211 20.75Z" fill="white"/>
</svg>
