<svg width="28" height="28" viewBox="0 0 28 28" fill="none" xmlns="http://www.w3.org/2000/svg">
<rect width="28" height="28" rx="4" fill="#15D8A9"/>
<path d="M10.625 7.25C8.6 7.25 7.25 9.28571 7.25 11.3214C7.25 12.7532 7.925 14.7143 8.6 15.3929C9.275 16.0714 9.95 21.5 11.3 21.5C14.3645 21.5 12.65 16.0714 14 16.0714C15.35 16.0714 13.6355 21.5 16.7 21.5C18.05 21.5 18.725 16.0714 19.4 15.3929C20.075 14.7143 20.75 12.7532 20.75 11.3214C20.75 9.28571 19.4 7.25 17.375 7.25C15.35 7.25 15.35 7.92857 14 7.92857C12.65 7.92857 12.65 7.25 10.625 7.25Z" fill="white"/>
</svg>
