<svg width="28" height="28" viewBox="0 0 28 28" fill="none" xmlns="http://www.w3.org/2000/svg">
<rect width="28" height="28" rx="4" fill="#026701"/>
<path d="M13.248 20.75V17.555C12.8955 17.6825 12.5205 17.75 12.123 17.75C10.248 17.75 8.74805 16.25 8.74805 14.375C8.74805 13.4225 9.12305 12.5675 9.76805 11.9525C9.59555 11.5475 9.49805 11.0975 9.49805 10.625C9.49805 8.75 10.998 7.25 12.873 7.25C14.043 7.25 15.078 7.85 15.6855 8.75H15.873C16.4147 8.75 16.9511 8.8567 17.4516 9.064C17.9521 9.2713 18.4068 9.57514 18.7899 9.95818C19.1729 10.3412 19.4767 10.796 19.684 11.2964C19.8913 11.7969 19.998 12.3333 19.998 12.875C19.998 13.4167 19.8913 13.9531 19.684 14.4536C19.4767 14.954 19.1729 15.4088 18.7899 15.7918C18.4068 16.1749 17.9521 16.4787 17.4516 16.686C16.9511 16.8933 16.4147 17 15.873 17C15.498 17 15.123 16.9475 14.748 16.8425V20.75H13.248Z" fill="white"/>
</svg>
