<svg style="display: none;" aria-hidden="true" xmlns="http://www.w3.org/2000/svg"
    xmlns:xlink="http://www.w3.org/1999/xlink">
    <symbol fill="none" viewBox="0 0 72 72" id="svg-barrierFree" xmlns="http://www.w3.org/2000/svg">
        <path
            d="M26.127 56.394c3.477 2.913 8.355 1.247 8.355 1.247s.812-5.091-2.664-8.004c-3.477-2.913-9.919-2.567-9.919-2.567s.768 6.4 4.228 9.324ZM46.678 51.773c-4.936 3.451-11.196.684-11.196.684s-.486-6.83 4.45-10.28c4.936-3.45 13.417-2.248 13.417-2.248s-1.755 8.377-6.671 11.844Z"
            stroke="#7CB70B" stroke-width="2" stroke-miterlimit="10" stroke-linecap="round" stroke-linejoin="round" />
        <path d="M35 39v24" stroke="#7CB70B" stroke-width="2" stroke-linecap="round" />
        <path
            d="M23.402 15.44a8.112 8.112 0 0 1 11.598 0 8.112 8.112 0 0 1 11.598 0c3.203 3.253 3.203 8.527 0 11.78L35.713 38.276a1 1 0 0 1-1.426 0L23.402 27.22c-3.203-3.253-3.203-8.527 0-11.78Z"
            stroke="#D3163C" stroke-width="2" />
        <circle cx="60" cy="15" r="3" stroke="#D3163C" stroke-width="2" />
        <circle cx="13" cy="36" r="5" stroke="#7CB70B" stroke-width="2" />
    </symbol>
    <symbol fill="none" viewBox="0 0 28 28" id="svg-basketball" xmlns="http://www.w3.org/2000/svg">
        <rect width="28" height="28" rx="4" fill="#E7411F" />
        <g clip-path="url(#aba)">
            <path
                d="M12.704 5.362A9.09 9.09 0 0 0 8.27 7.254l2.809 2.72c1.008-1.258 1.571-2.854 1.625-4.612ZM14 12.805l5.73-5.551a9.138 9.138 0 0 0-5.28-1.973c-.043 2.247-.78 4.3-2.13 5.896L14 12.805ZM7.036 8.449a8.537 8.537 0 0 0-1.953 4.296c1.815-.053 3.466-.598 4.762-1.575l-2.81-2.721Zm9.878 7.179c1.644-1.305 3.763-2.018 6.086-2.064a8.535 8.535 0 0 0-2.036-5.115L15.234 14l1.68 1.628ZM14 15.195l-5.73 5.552a9.164 9.164 0 0 0 5.28 1.972c.047-2.25.784-4.303 2.13-5.896L14 15.195Zm6.964 4.356a8.537 8.537 0 0 0 1.953-4.296c-1.819.056-3.466.601-4.762 1.575l2.81 2.721Zm-9.878-7.179C9.438 13.68 7.319 14.397 5 14.436a8.535 8.535 0 0 0 2.036 5.115L12.766 14l-1.68-1.628Zm4.21 10.266a9.09 9.09 0 0 0 4.434-1.892l-2.809-2.72c-1.005 1.255-1.567 2.854-1.625 4.612Z"
                fill="#fff" />
        </g>
        <defs>
            <clipPath id="aba">
                <path fill="#fff" transform="translate(5 5)" d="M0 0h18v18H0z" />
            </clipPath>
        </defs>
    </symbol>
    <symbol fill="none" viewBox="0 0 72 72" id="svg-calendar" xmlns="http://www.w3.org/2000/svg">
        <path
            d="M61 30.326H11m13.333 33.489h23.334c4.667 0 7 0 8.783-.913a8.353 8.353 0 0 0 3.642-3.659C61 57.453 61 55.108 61 50.42V26.977c0-4.688 0-7.033-.908-8.824a8.353 8.353 0 0 0-3.642-3.658c-1.783-.913-4.116-.913-8.783-.913H24.333c-4.667 0-7 0-8.783.912a8.353 8.353 0 0 0-3.642 3.66C11 19.943 11 22.288 11 26.976V50.42c0 4.689 0 7.034.908 8.824a8.353 8.353 0 0 0 3.642 3.66c1.783.912 4.116.912 8.783.912Z"
            stroke="#7CB70B" stroke-width="2" stroke-linecap="round" stroke-linejoin="round" />
        <path d="M47.109 8v11.163M24.887 8v11.163M27.666 47.07l5.556 5.582 12.5-12.558" stroke="#D3163C"
            stroke-width="2" stroke-linecap="round" stroke-linejoin="round" />
    </symbol>
    <symbol fill="none" viewBox="0 0 72 72" id="svg-cleanAir" xmlns="http://www.w3.org/2000/svg">
        <path
            d="M52.151 49.82c-3.018-4.218-8.895-3.766-8.895-3.766s-2.353 5.405.665 9.623c3.018 4.217 10.25 5.673 10.25 5.673s.977-7.305-2.02-11.53Z"
            fill="#fff" />
        <path
            d="M43.256 46.054s5.877-.452 8.895 3.766c2.997 4.225 2.02 11.53 2.02 11.53s-7.232-1.456-10.25-5.673c-3.018-4.218-.665-9.623-.665-9.623Zm0 0-4.112-2.222"
            stroke="#D3163C" stroke-width="2" stroke-miterlimit="10" stroke-linecap="round" stroke-linejoin="round" />
        <path
            d="M55.065 23.22c.008-.296.035-.595.083-.895.088-.3.198-.597.329-.89a7.63 7.63 0 0 1 .577-.814c.25-.238.519-.46.805-.669.318-.173.65-.326.994-.46a8.85 8.85 0 0 1 1.128-.198c.395.007.792.04 1.19.1.397.113.787.252 1.173.418.368.218.724.462 1.068.73.312.317.605.656.879 1.016.23.4.435.817.615 1.25.125.46.22.932.288 1.413.004.495-.023.991-.083 1.49-.124.496-.282.985-.471 1.468-.254.463-.539.91-.854 1.344-.374.395-.774.768-1.202 1.118-.475.297-.971.565-1.488.803-.55.172-1.115.31-1.691.413-.593.03-1.19.02-1.79-.026a14.475 14.475 0 0 1-1.775-.489 14.904 14.904 0 0 1-1.638-.944 15.301 15.301 0 0 1-1.383-1.361 15.665 15.665 0 0 1-1.023-1.708 16.06 16.06 0 0 1-.575-1.957 16.484 16.484 0 0 1-.067-2.089c.111-.702.268-1.397.47-2.087.29-.667.624-1.316 1-1.948.46-.586.956-1.143 1.49-1.672a18.066 18.066 0 0 1 1.904-1.273c.716-.302 1.452-.56 2.209-.772.785-.116 1.579-.182 2.381-.198.806.086 1.608.223 2.405.412.774.291 1.53.632 2.27 1.022.69.485 1.35 1.015 1.981 1.589a20.453 20.453 0 0 1 1.551 2.073c.384.79.718 1.603 1.002 2.442.178.876.3 1.764.367 2.664a21.66 21.66 0 0 1-.317 2.721 22.085 22.085 0 0 1-1.006 2.603c-.5.8-1.05 1.57-1.652 2.309a22.875 22.875 0 0 1-2.216 1.855c-.854.475-1.739.896-2.654 1.264-.962.25-2.194.57-5.194.57h-53M27.866 49.65a4.55 4.55 0 0 0-.404-.05c-.14.001-.281.009-.423.023a4.996 4.996 0 0 0-.43.101 5.183 5.183 0 0 0-.42.183c-.135.08-.267.168-.396.262-.123.107-.242.22-.357.339a5.813 5.813 0 0 0-.302.41c-.085.152-.163.31-.235.471-.059.17-.11.344-.154.521-.03.184-.05.37-.064.558.003.19.014.383.034.576.037.194.082.387.137.58.071.19.152.377.24.563.107.18.221.355.344.528.14.163.286.321.44.474.17.14.346.275.53.402.195.112.397.217.604.314.218.08.44.15.666.211.234.042.47.075.71.097.243.002.487-.006.733-.025.245-.04.49-.092.735-.154.24-.083.479-.177.714-.282.228-.126.452-.262.67-.409.209-.166.41-.342.606-.527.18-.204.353-.416.517-.637.147-.236.284-.479.411-.73.107-.262.203-.53.287-.804.062-.283.112-.57.15-.86.014-.295.014-.591.003-.89a10.684 10.684 0 0 0-.151-.894c-.09-.293-.19-.584-.306-.872a11.12 11.12 0 0 0-.456-.823 11.363 11.363 0 0 0-.6-.749 11.525 11.525 0 0 0-.731-.648c-.273-.185-.554-.36-.844-.524-.306-.14-.618-.267-.937-.381-.33-.088-.665-.162-1.004-.222-.346-.031-1.038-.05-3.038-.05h-22"
            stroke="#7CB70B" stroke-width="2" stroke-linecap="round" />
        <path
            d="M38.877 20.228a3.114 3.114 0 0 1-.049.29c-.03.098-.067.195-.108.292a3.54 3.54 0 0 1-.168.28 3.76 3.76 0 0 1-.228.258c-.09.078-.186.152-.285.223a4.21 4.21 0 0 1-.335.175 4.424 4.424 0 0 1-.377.118c-.134.022-.27.04-.41.05a4.818 4.818 0 0 1-.428-.023 5.047 5.047 0 0 1-.435-.103 5.243 5.243 0 0 1-.425-.184 5.455 5.455 0 0 1-.402-.266 5.712 5.712 0 0 1-.36-.343 5.884 5.884 0 0 1-.307-.415 6.128 6.128 0 0 1-.238-.478 6.365 6.365 0 0 1-.156-.528 6.545 6.545 0 0 1-.064-.564c.003-.194.014-.388.034-.584.037-.196.083-.392.139-.587.072-.192.153-.382.244-.57a7.44 7.44 0 0 1 .347-.534c.141-.166.29-.326.446-.48.172-.143.35-.279.535-.408.199-.114.403-.22.613-.317.22-.081.445-.152.675-.215.236-.042.476-.075.718-.098.246-.002.494.007.742.026.249.04.497.093.744.155.244.085.485.18.724.286.23.128.457.266.679.414.21.168.415.347.612.534.183.206.358.421.524.645.149.239.288.485.416.738.109.267.206.538.291.816.063.286.114.576.152.87.014.299.014.599.003.9-.038.303-.09.605-.153.906-.09.298-.193.592-.31.884-.14.283-.295.561-.462.834-.19.26-.393.512-.607.757-.237.229-.483.447-.74.656-.276.189-.561.366-.855.531-.31.142-.626.27-.949.387-.334.088-.673.163-1.017.224-.35.032-1.05.05-3.076.05l-31.426.003"
            stroke="#7CB70B" stroke-width="2" stroke-linecap="round" />
    </symbol>
    <symbol fill="none" viewBox="0 0 72 72" id="svg-ecotrope" xmlns="http://www.w3.org/2000/svg">
        <path
            d="M20.146 42.922c.9 0 1.63-.484 1.63-1.08 0-.597-.73-1.08-1.63-1.08-.9 0-1.63.483-1.63 1.08 0 .596.73 1.08 1.63 1.08ZM15.146 41.922c.9 0 1.63-.484 1.63-1.08 0-.597-.73-1.08-1.63-1.08-.9 0-1.63.483-1.63 1.08 0 .596.73 1.08 1.63 1.08Z"
            fill="#7CB70B" />
        <path d="M13.316 27.64s4.75.55 4.75 4.36c0 3.81-11.55 4.34-11.55 13.94s30.33 20.3 30.33 20.3" stroke="#D3163C"
            stroke-width="2" stroke-miterlimit="10" stroke-linecap="round" stroke-linejoin="round" />
        <path d="M13.016 27.264s15.93-2.002 15.93 7.01c-.37 4.43-4.58 9.17 30.42 11.82" stroke="#D3163C"
            stroke-width="2" stroke-miterlimit="10" stroke-linecap="round" stroke-linejoin="round" />
        <path
            d="M65.476 36.854s-4.948-1.267-7.525-4.956c-2.577 3.689-7.525 4.956-7.525 4.956M52.445 31.17c1.666-.733 3.993-2.059 5.505-4.225 1.512 2.166 3.84 3.492 5.505 4.224M52.973 25.975c1.603-.766 3.618-2.038 4.977-3.983 1.358 1.945 3.373 3.217 4.976 3.983M57.95 31.898v7.864"
            stroke="#7CB70B" stroke-width="2" stroke-miterlimit="10" stroke-linecap="round" stroke-linejoin="round" />
        <path
            d="M30.267 49.262c.9 0 1.63-.484 1.63-1.08 0-.597-.73-1.08-1.63-1.08-.9 0-1.63.483-1.63 1.08 0 .596.73 1.08 1.63 1.08ZM16.146 45.922c.9 0 1.63-.484 1.63-1.08 0-.597-.73-1.08-1.63-1.08-.9 0-1.63.483-1.63 1.08 0 .596.73 1.08 1.63 1.08ZM30.075 53.762c.9 0 1.63-.484 1.63-1.08 0-.597-.73-1.08-1.63-1.08-.9 0-1.63.483-1.63 1.08 0 .596.73 1.08 1.63 1.08ZM34.907 50.844c.9 0 1.63-.484 1.63-1.08 0-.597-.73-1.08-1.63-1.08-.9 0-1.63.483-1.63 1.08 0 .596.73 1.08 1.63 1.08ZM36.536 54.98c.9 0 1.63-.483 1.63-1.08 0-.596-.73-1.08-1.63-1.08-.9 0-1.63.484-1.63 1.08 0 .597.73 1.08 1.63 1.08ZM40.954 51.91c.9 0 1.63-.483 1.63-1.08 0-.596-.73-1.08-1.63-1.08-.9 0-1.63.483-1.63 1.08 0 .596.73 1.08 1.63 1.08Z"
            fill="#7CB70B" />
        <path d="M39.945 12.895v22.037M43.05 16.898l-2.405 1.974M44.073 22.79l-3.425 2.177M36.684 19.867l3.134 1.637"
            stroke="#7CB70B" stroke-width="2" stroke-miterlimit="10" stroke-linecap="round" stroke-linejoin="round" />
        <path d="M40.516 30.762c4.97 0 9-2.597 9-9.5 0-6.904-4.03-15.5-9-15.5s-9 8.596-9 15.5c0 6.903 4.03 9.5 9 9.5Z"
            stroke="#7CB70B" stroke-width="2" stroke-miterlimit="10" />
    </symbol>
    <symbol fill="none" viewBox="0 0 72 72" id="svg-exchange" xmlns="http://www.w3.org/2000/svg">
        <path d="M13.636 44.732C17.134 53.668 25.828 60 36 60c13.255 0 24-10.745 24-24m-34.91 8.727H12v13.091"
            stroke="#D3163C" stroke-width="2" stroke-miterlimit="10" stroke-linecap="round" stroke-linejoin="round" />
        <path d="M58.364 27.268C54.87 18.33 46.174 12 36 12c-13.255 0-24 10.745-24 24m48-21.818v13.09H46.91"
            stroke="#7CB70B" stroke-width="2" stroke-miterlimit="10" stroke-linecap="round" stroke-linejoin="round" />
    </symbol>
    <symbol fill="none" viewBox="0 0 28 28" id="svg-flower" xmlns="http://www.w3.org/2000/svg">
        <rect width="28" height="28" rx="4" fill="#00930C" />
        <path
            d="M8 14.944a6.5 6.5 0 0 0 6.5 6.5 6.5 6.5 0 0 0-6.5-6.5Zm6.5 6.5a6.5 6.5 0 0 0 6.5-6.5 6.5 6.5 0 0 0-6.5 6.5Zm4.333-13.722v3.611a4.333 4.333 0 1 1-8.666 0v-3.61c.534 0 1.061.086 1.56.28.397.167.75.413 1.047.723L14.5 7l1.726 1.726c.296-.31.65-.556 1.047-.722a4.261 4.261 0 0 1 1.56-.282Z"
            fill="#fff" />
    </symbol>
    <symbol fill="none" viewBox="0 0 25 25" id="svg-fullscreen" xmlns="http://www.w3.org/2000/svg">
        <path stroke="#000" stroke-width="3" d="M1.5 11v13M16 23.5H0M23.5 14V1M9 1.5h16" />
    </symbol>
    <symbol fill="none" viewBox="0 0 28 28" id="svg-gear" xmlns="http://www.w3.org/2000/svg">
        <rect width="28" height="28" rx="4" fill="#49C3F0" />
        <path
            d="M18.437 9.477a6.181 6.181 0 0 1 1.518 2.623h1.92v3.376h-1.92a6.18 6.18 0 0 1-1.518 2.625l.962 1.665-2.923 1.687-.96-1.665a6.198 6.198 0 0 1-3.031 0l-.961 1.665L8.6 19.766l.962-1.665a6.181 6.181 0 0 1-1.518-2.625h-1.92v-3.375h1.92c.28-.987.802-1.89 1.518-2.625L8.6 7.812l2.922-1.687h.003l.96 1.663a6.199 6.199 0 0 1 3.033 0l.957-1.663h.002L19.4 7.813l-.962 1.664h-.001Zm-1.062 4.312a3.375 3.375 0 1 0-6.75 0 3.375 3.375 0 0 0 6.75 0Z"
            fill="#fff" />
    </symbol>
    <symbol fill="none" viewBox="0 0 72 72" id="svg-greenYards" xmlns="http://www.w3.org/2000/svg">
        <path d="M51.822 20.617s-8.459 4.011-8.459 18.617" stroke="#7CB70B" stroke-width="2" stroke-miterlimit="10"
            stroke-linecap="round" stroke-linejoin="round" />
        <path d="M28.867 46.208c-.058-7.056 6.647-12.826 14.984-12.894 8.338-.069 15.137 5.59 15.194 12.646"
            fill="#fff" />
        <path d="M28.867 46.208c-.058-7.056 6.647-12.826 14.984-12.894 8.338-.069 15.137 5.59 15.194 12.646"
            stroke="#7CB70B" stroke-width="2" stroke-miterlimit="10" stroke-linecap="round" stroke-linejoin="round" />
        <path
            d="M47.847 28.917c-2.37.803-2.974 3.581-2.974 3.581s2.18 1.842 4.547 1.044c2.366-.798 4.036-3.942 4.036-3.942s-3.235-1.483-5.61-.683Z"
            fill="#fff" stroke="#7CB70B" stroke-width="2" stroke-miterlimit="10" stroke-linecap="round"
            stroke-linejoin="round" />
        <path
            d="m8.055 47.77 16.607 3.904-.983 9.885c-.2 1.98 2.254 3.066 3.6 1.59l7.487-8.237M24.215 46.04l-13.078-3.09"
            stroke="#D3163C" stroke-width="2" stroke-miterlimit="10" stroke-linecap="round" stroke-linejoin="round" />
        <path
            d="M37.73 28.94c2.038 2.849 6.008 2.543 6.008 2.543s1.59-3.65-.45-6.5c-2.038-2.848-6.923-3.832-6.923-3.832s-.66 4.935 1.365 7.789Z"
            fill="#fff" stroke="#7CB70B" stroke-width="2" stroke-miterlimit="10" stroke-linecap="round"
            stroke-linejoin="round" />
        <path
            d="M56.462 11.13c0 1.637-1.33 6.322-2.971 6.322s-2.971-4.685-2.971-6.321a2.967 2.967 0 0 1 2.97-2.963 2.967 2.967 0 0 1 2.972 2.963Z"
            fill="#fff" stroke="#D3163C" stroke-width="2" stroke-miterlimit="10" stroke-linecap="round"
            stroke-linejoin="round" />
        <path
            d="M48.384 12.68c1.556.503 5.621 3.22 5.106 4.77-.504 1.552-5.385 1.37-6.95.867a2.956 2.956 0 0 1-1.91-3.733c.504-1.561 2.188-2.406 3.754-1.904Z"
            fill="#fff" stroke="#D3163C" stroke-width="2" stroke-miterlimit="10" stroke-linecap="round"
            stroke-linejoin="round" />
        <path
            d="M47.363 20.822c.965-1.326 4.805-4.332 6.125-3.37 1.33.963-.354 5.53-1.32 6.857a2.974 2.974 0 0 1-4.15.652 2.955 2.955 0 0 1-.655-4.14Z"
            fill="#fff" stroke="#D3163C" stroke-width="2" stroke-miterlimit="10" stroke-linecap="round"
            stroke-linejoin="round" />
        <path
            d="M54.811 24.308c-.965-1.326-2.65-5.893-1.32-6.856 1.331-.963 5.16 2.054 6.126 3.37.965 1.315.665 3.176-.654 4.139-1.32.963-3.186.663-4.152-.653Z"
            fill="#fff" stroke="#D3163C" stroke-width="2" stroke-miterlimit="10" stroke-linecap="round"
            stroke-linejoin="round" />
        <path
            d="M60.447 18.317c-1.555.503-6.436.695-6.95-.866-.505-1.551 3.55-4.268 5.105-4.77a2.973 2.973 0 0 1 3.744 1.903c.515 1.551-.343 3.22-1.899 3.733Z"
            fill="#fff" stroke="#D3163C" stroke-width="2" stroke-miterlimit="10" stroke-linecap="round"
            stroke-linejoin="round" />
        <path
            d="M53.487 20.55a3.1 3.1 0 0 0 3.104-3.095 3.1 3.1 0 0 0-3.104-3.096 3.1 3.1 0 0 0-3.104 3.096 3.1 3.1 0 0 0 3.104 3.095Z"
            fill="#D3163C" stroke="#fff" stroke-width="2" stroke-miterlimit="10" stroke-linecap="round"
            stroke-linejoin="round" />
        <path
            d="M45.033 57.985s-20.265-5.99-20.37-6.314c-.105-.314-.315-11.513-.315-11.513l39.604-.314s-8.08 11.256-8.184 11.19"
            fill="#fff" />
        <path
            d="M45.033 57.985s-20.265-5.99-20.37-6.314c-.105-.314-.315-11.513-.315-11.513l39.604-.314s-8.08 11.256-8.184 11.19"
            stroke="#D3163C" stroke-width="2" stroke-miterlimit="10" stroke-linecap="round" stroke-linejoin="round" />
        <path
            d="M51.925 59.195a2.46 2.46 0 0 0 2.464-2.457 2.46 2.46 0 0 0-2.464-2.457 2.46 2.46 0 0 0-2.464 2.457 2.46 2.46 0 0 0 2.464 2.457Z"
            stroke="#7CB70B" stroke-width="2" stroke-miterlimit="10" stroke-linecap="round" stroke-linejoin="round" />
        <path
            d="M51.925 63.607c3.803 0 6.885-3.074 6.885-6.866s-3.083-6.866-6.885-6.866c-3.803 0-6.886 3.074-6.886 6.866s3.083 6.866 6.886 6.866Z"
            stroke="#D3163C" stroke-width="2" stroke-miterlimit="10" stroke-linecap="round" stroke-linejoin="round" />
    </symbol>
    <symbol fill="none" viewBox="0 0 28 28" id="svg-gum" xmlns="http://www.w3.org/2000/svg">
        <rect width="28" height="28" rx="4" fill="#D3163C" />
        <path fill-rule="evenodd" clip-rule="evenodd"
            d="M7.25 10a1 1 0 0 1 1-1h2.5a1 1 0 0 1 1 1v7a1 1 0 0 1-1 1h-2.5a1 1 0 0 1-1-1v-7Zm8.998 0a1 1 0 0 1 1-1h2.5a1 1 0 0 1 1 1v7a1 1 0 0 1-1 1h-2.5a1 1 0 0 1-1-1v-2.751H11.75v-1.5h4.498V10ZM6.5 12H5v3h1.5v-3Zm15 .001H23v3h-1.5v-3Z"
            fill="#fff" />
    </symbol>
    <symbol fill="none" viewBox="0 0 28 28" id="svg-hockey" xmlns="http://www.w3.org/2000/svg">
        <rect width="28" height="28" rx="4" fill="#495AF0" />
        <path
            d="M6.498 17.752v2.25h1.5v-3h-.75a.752.752 0 0 0-.75.75Zm5.25-.75h-3v3l3.518-.008c.284 0 .54-.157.667-.412l.652-1.425-1.192-2.61-.645 1.455Zm9.533.218a.746.746 0 0 0-.533-.218h-.75v3h1.5v-2.25a.748.748 0 0 0-.218-.532Zm-6.083-2.588 3.037-6.63h-2.512l-1.32 2.977-.367.826-.038.104-1.725-3.907H9.761l3.037 6.63 1.14 2.49.06.135 1.065 2.325a.741.741 0 0 0 .667.412l3.518.008v-3h-3l-1.05-2.37Z"
            fill="#fff" />
    </symbol>
    <symbol fill="none" viewBox="0 0 72 72" id="svg-home" xmlns="http://www.w3.org/2000/svg">
        <path d="M15.637 62.053V25.211m40.727 36.842V25.211" stroke="#7CB70B" stroke-width="2" />
        <path d="M43.636 62.053v-18.21a2 2 0 0 0-2-2H30.363a2 2 0 0 0-2 2v18.21" stroke="#D3163C" stroke-width="2" />
        <ellipse cx="35.997" cy="29.399" rx="4.421" ry="4.188" stroke="#D3163C" stroke-width="2" stroke-miterlimit="10"
            stroke-linecap="round" stroke-linejoin="round" />
        <path d="m8 31.737 26.74-21.713a2 2 0 0 1 2.52 0L64 31.737M8 61.889h56" stroke="#7CB70B" stroke-width="2"
            stroke-linecap="round" />
    </symbol>
    <symbol fill="none" viewBox="0 0 72 72" id="svg-kindergarten" xmlns="http://www.w3.org/2000/svg">
        <path
            d="M36.11 63.06c7.92 0 14.34-6.55 14.34-14.63 0-8.08-6.42-14.63-14.34-14.63s-14.34 6.55-14.34 14.63c0 8.08 6.42 14.63 14.34 14.63Z"
            fill="#fff" stroke="#D3163C" stroke-width="2" stroke-miterlimit="10" stroke-linecap="round"
            stroke-linejoin="round" />
        <path
            d="M25.818 63.371c3.17 0 5.74-3.174 5.74-7.09 0-3.915-2.57-7.09-5.74-7.09-3.17 0-5.74 3.175-5.74 7.09 0 3.916 2.57 7.09 5.74 7.09ZM46.396 63.371c3.17 0 5.74-3.174 5.74-7.09 0-3.915-2.57-7.09-5.74-7.09-3.17 0-5.74 3.175-5.74 7.09 0 3.916 2.57 7.09 5.74 7.09Z"
            fill="#fff" stroke="#D3163C" stroke-width="2" stroke-miterlimit="10" stroke-linecap="round"
            stroke-linejoin="round" />
        <path
            d="M24.542 36.031s-12.22 5.92-10.94 11.21c1.25 5.17 8.16.37 8.16.37M47.684 36.031s12.22 5.92 10.94 11.21c-1.25 5.17-8.16.37-8.16.37"
            stroke="#D3163C" stroke-width="2" stroke-miterlimit="10" stroke-linecap="round" stroke-linejoin="round" />
        <path
            d="M49.84 22.16c3.513 0 6.36-3.058 6.36-6.83 0-3.772-2.847-6.83-6.36-6.83-3.512 0-6.36 3.058-6.36 6.83 0 3.772 2.848 6.83 6.36 6.83ZM22.372 22.16c3.512 0 6.36-3.058 6.36-6.83 0-3.772-2.848-6.83-6.36-6.83-3.513 0-6.36 3.058-6.36 6.83 0 3.772 2.847 6.83 6.36 6.83Z"
            fill="#fff" stroke="#D3163C" stroke-width="2" stroke-miterlimit="10" stroke-linecap="round"
            stroke-linejoin="round" />
        <path
            d="M36.11 39.77c9.35 0 16.93-6.428 16.93-14.36 0-7.93-7.58-14.36-16.93-14.36s-16.93 6.43-16.93 14.36c0 7.932 7.58 14.36 16.93 14.36Z"
            fill="#fff" stroke="#7CB70B" stroke-width="2" stroke-miterlimit="10" stroke-linecap="round"
            stroke-linejoin="round" />
        <path
            d="M36.111 29.36c1.563 0 2.83-.9 2.83-2.01 0-1.11-1.267-2.01-2.83-2.01-1.563 0-2.83.9-2.83 2.01 0 1.11 1.267 2.01 2.83 2.01ZM28.92 25.458a1.19 1.19 0 1 0 0-2.38 1.19 1.19 0 0 0 0 2.38ZM43.3 25.458a1.19 1.19 0 1 0 0-2.38 1.19 1.19 0 0 0 0 2.38Z"
            fill="#7CB70B" />
        <path d="M32.719 30.95c.55.96 1.86 1.63 3.38 1.63 1.53 0 2.83-.67 3.39-1.63" fill="#fff" />
        <path d="M32.719 30.95c.55.96 1.86 1.63 3.38 1.63 1.53 0 2.83-.67 3.39-1.63" stroke="#7CB70B" stroke-width="2"
            stroke-miterlimit="10" stroke-linecap="round" stroke-linejoin="round" />
    </symbol>
    <symbol fill="none" viewBox="0 0 117 60" id="svg-logo" xmlns="http://www.w3.org/2000/svg">
        <path
            d="m112.903 40.742-5.795-1.111-3.4 5.285-.124.049-1.687-4.255 2.043-2.962-2.781 1.104c-.496-1.253-.995-2.505-1.491-3.76l9.637-3.822c.498 1.252.994 2.505 1.491 3.757l-2.974 1.18 2.365.336 1.28.176 1.573 3.965-.137.058Z"
            fill="#9C0624" />
        <path
            d="m106.014 52.495-.431-3.26-1.247-.282-.551-4.155.397-.052 10.522 2.64.601 4.536-9.472 5.288-.397.052-.55-4.154 1.128-.613Zm2.362-2.583.161 1.218 2.502-.959-2.663-.26ZM.972 48.126c.228-1.524 1.7-2.546 3.217-2.273.818.137 1.514.69 1.67 1.538.652-1.145 1.539-1.67 2.875-1.396 1.747.336 2.756 1.896 2.485 3.699l-.968 6.444L0 54.6l.972-6.474Zm3.437 3.047.111-.746c.103-.69-.958-.893-1.07-.16l-.112.746 1.071.16Zm3.632.546.15-.997c.077-.512-.212-.78-.533-.83-.324-.048-.677.109-.755.636l-.149.996 1.287.195ZM10.23 38.444l2.755 4.167-1.233 3.144-9.65-3.787 1.464-3.736 1.766.692 1.935 1.03-2.753-4.135 1.234-3.143 9.649 3.787-1.477 3.763-1.667-.654-2.024-1.128ZM15.605 35.127l-8.203-6.341 2.463-3.188 5.497 4.25.751-.974-5.495-4.25 2.463-3.187 5.497 4.25.743-.961-5.497-4.25 2.474-3.199L24.5 23.62l-8.896 11.508ZM22.444 12.276l2.064 2.802L26 13.981l-2.064-2.803 3.243-2.389 6.147 8.348-3.243 2.39-2.143-2.91-1.49 1.097 2.142 2.91-3.257 2.398-6.146-8.349c1.085-.799 2.17-1.599 3.256-2.397ZM30.285 6.955c2.535-1.117 5.07-2.232 7.604-3.35l1.23 2.793-3.917 1.726.281.637 3.768-1.66 1.164 2.645-3.767 1.66.274.623 3.918-1.726 1.23 2.792-7.604 3.35-4.18-9.49Z"
            fill="#9C0624" />
        <path
            d="M33.216 3.683c.699 1.586-2.016 2.959-2.778 1.223-.771-1.749 2.026-2.931 2.778-1.223ZM36.459 2.257c.699 1.586-2.015 2.96-2.78 1.225-.769-1.75 2.027-2.933 2.78-1.225Z"
            fill="#00930C" />
        <path
            d="M47.632 1.063c1.51-.299 2.97.741 3.226 2.26.147.817-.14 1.66-.884 2.094 1.298.225 2.092.883 2.285 2.234.273 1.759-.854 3.235-2.64 3.588l-6.395 1.265-2.013-10.17 6.421-1.271Zm-1.708 4.266.742-.147c.682-.136.516-1.206-.211-1.06l-.742.147.211 1.06Zm.714 3.602.988-.196c.51-.101.663-.464.6-.784-.065-.32-.33-.599-.853-.494l-.988.196.253 1.278ZM60.468 9.403 57.182 9.3l-.481 1.186-4.19-.13.014-.4L56.835 0l4.574.142 3.682 10.205-.013.4-4.189-.13-.42-1.214Zm-2.167-2.748 1.228.037-.54-2.624-.688 2.587ZM71.436 9.664l-2.022 2.29-3.918-1.114.088-.313 2.5-2.615c-.73-.794-1.053-1.872-.64-3.323.846-2.98 3.45-2.978 5.933-2.287 1.61.458 2.679.763 4.304 1.223L74.842 13.5c-1.296-.37-2.593-.738-3.89-1.107l.755-2.65-.271-.078Zm1.166-2.902.38-1.339-.54-.155c-.642-.181-1.001-.054-1.135.416-.138.485.117.727.754.923l.54.155ZM79.379 15.537l5.512-8.78 6.182 3.881-1.802 2.873-2.76-1.733-3.707 5.907-3.425-2.148ZM97.303 22.886c-4.9 5.21-13.117-2.355-8.207-7.66 4.974-5.286 13.128 2.344 8.207 7.66Zm-2.944-2.77c1.636-1.775-.671-3.928-2.329-2.172-1.626 1.764.691 3.906 2.33 2.172ZM94.098 27.077l8.591-5.804 2.463 3.646c1.431 2.144 2.061 4.613-.505 6.346-2.565 1.732-4.641.222-6.086-1.895l-.2-.294-2 1.35a5264.8 5264.8 0 0 1-2.263-3.349Zm7.066.644c.385.544.866.594 1.284.312.405-.273.537-.738.165-1.292l-.275-.405-1.448.978.274.407Z"
            fill="#9C0624" />
        <path d="M98.504 58.335c0-23.184-18.29-41.976-40.851-41.976C35.09 16.36 16.8 35.151 16.8 58.335h81.703Z"
            fill="#00930C" />
        <path d="M98.354 58.237c0-2.946-.317-5.82-.912-8.589H17.868a40.893 40.893 0 0 0-.911 8.589h81.397Z"
            fill="#10470A" />
        <path
            d="M49.56 28.94a5.214 5.214 0 0 1 10.429 0h-10.43Zm-6.64-9.838c3.85 1.605 6.56 5.407 6.56 9.839H28.168A40.911 40.911 0 0 1 42.92 19.1Z"
            fill="#fff" />
        <path
            d="m84.28 49.91-4.33-7.683H82.5L78.519 32l-3.98 10.228h2.546l-4.091 7.261a8.339 8.339 0 0 0-6.14-7.621h4.412c0-3.06-2.08-5.63-4.904-6.378h2.866a4.56 4.56 0 1 0-9.12 0h2.867a6.599 6.599 0 0 0-4.904 6.378h4.412c-3.543.96-6.151 4.197-6.151 8.044H84.28v-.002Zm-45.098-3.5-4-13.416-5.045 16.916h26.095l-5.046-16.916-4.001 13.416-4.002-13.416-4 13.416Z"
            fill="#10470A" />
        <path
            d="M98.084 52.313a40.807 40.807 0 0 0-.12-.916c-.316.14-.607.292-.894.444-.991.52-1.927 1.008-3.841 1.008-1.914 0-2.85-.49-3.841-1.008l-.296-.154-.049-.024-.049-.026-.1-.05-.05-.025-.05-.025-.051-.024-.051-.025-.052-.024-.052-.025-.053-.024-.054-.025-.053-.024-.054-.023-.054-.023-.056-.023-.055-.023-.056-.023-.057-.02-.057-.024-.059-.02-.059-.022-.06-.021-.06-.022-.063-.02-.062-.019-.062-.02-.064-.017-.063-.02-.066-.018-.065-.018-.067-.018-.068-.016-.069-.017-.07-.016-.07-.015-.072-.014-.074-.015-.073-.013-.075-.013-.077-.013-.077-.012-.078-.011-.08-.01-.082-.01-.082-.01-.083-.008-.085-.008-.086-.006-.089-.007-.088-.006-.09-.005-.091-.005-.093-.003-.095-.004-.096-.001-.098-.002h-.198l-.096.002-.096.001-.095.004-.093.003-.092.005-.09.005-.088.006-.088.007-.087.006-.084.008-.084.009-.081.01-.082.01-.08.009-.078.011-.077.012-.077.013-.075.013-.074.013-.073.015-.072.014-.07.015-.07.017-.069.016-.069.016-.067.018-.066.018-.066.018-.063.02-.064.018-.062.02-.062.019-.062.02-.06.02-.061.022-.059.021-.059.021-.057.023-.057.021-.057.023-.056.023-.055.023-.056.023-.054.023-.054.024-.053.025-.053.024-.052.025-.052.024-.052.025-.051.024-.05.025-.051.024-.051.025-.05.026-.05.026-.049.025-.049.026-.049.026-.049.026-.049.026-.049.026-.049.026-.045.025-.046.024-.046.025-.047.024-.046.025-.046.024-.045.025-.048.023-.047.024-.046.023-.047.023-.047.023-.048.023-.047.022-.047.023-.048.023-.049.021-.049.023-.049.021-.049.022-.05.02-.051.022-.05.021-.051.02-.053.02-.052.02-.052.019-.052.02-.054.019-.054.018-.056.018-.055.018-.056.018-.057.016-.057.017-.059.016-.059.016-.06.015-.06.014-.063.015-.062.013-.063.013-.066.013-.065.014-.067.01-.067.012-.069.012-.068.01-.07.01-.07.01-.072.007-.074.008-.075.009-.077.006-.077.007-.078.005-.08.005-.08.004-.082.004-.083.003-.085.003-.086.002h-.355l-.086-.002-.085-.003-.084-.003-.083-.004-.081-.005-.08-.004-.079-.005-.077-.007-.076-.006-.075-.009-.074-.008-.073-.008-.072-.01-.07-.01-.07-.01-.068-.01-.067-.012-.067-.011-.065-.014-.065-.013-.064-.013-.062-.013-.062-.014-.06-.015-.06-.015-.058-.016-.059-.017-.057-.016-.057-.016-.056-.018-.055-.018-.056-.018-.054-.018-.053-.02-.054-.02-.053-.019-.052-.02-.052-.019-.05-.02-.051-.02-.051-.022-.05-.021-.048-.022-.05-.02-.048-.024-.047-.02-.048-.024-.047-.023-.047-.023-.048-.022-.047-.023-.048-.023-.047-.023-.046-.024-.045-.023-.046-.025-.046-.024-.046-.025-.045-.024-.046-.025-.046-.024-.046-.025-.048-.026-.05-.026-.048-.026-.05-.026-.048-.026-.05-.026-.048-.025-.051-.026-.05-.026-.051-.025-.05-.024-.052-.025-.05-.024-.052-.025-.053-.024-.052-.025-.054-.024-.052-.025-.054-.024-.054-.023-.054-.023-.055-.023-.056-.023-.057-.023-.057-.02-.057-.024-.06-.02-.058-.022-.059-.021-.06-.022-.06-.02-.063-.019-.062-.02-.063-.017-.066-.02-.065-.018-.067-.018-.067-.018-.069-.016-.068-.017-.07-.016-.07-.015-.072-.014-.074-.015-.073-.013-.076-.013-.076-.013-.079-.012-.078-.011-.08-.01-.082-.01-.081-.01-.084-.008-.084-.008-.087-.006-.088-.007-.088-.006-.09-.005-.092-.005-.093-.003-.094-.004-.097-.001-.098-.002h-.2l-.097.002-.096.001-.095.004-.093.003-.092.005-.09.005-.09.006-.088.007-.086.006-.085.008-.083.009-.084.01-.081.01-.08.009-.079.011-.076.012-.077.013-.075.013-.074.013-.073.015-.072.014-.072.015-.07.017-.07.016-.069.016-.067.018-.067.018-.065.018-.064.02-.064.018-.062.02-.062.019-.062.02-.06.02-.059.022-.059.021-.059.021-.057.023-.057.021-.057.023-.056.023-.055.023-.056.023-.053.023-.054.024-.054.025-.053.024-.052.025-.052.024-.052.025-.051.024-.05.025-.051.024-.05.025-.052.026-.05.026-.05.025-.048.026-.05.026-.048.026-.05.026-.048.026-.05.026-.045.025-.047.024-.046.025-.046.024-.045.025-.046.024-.047.025-.048.023-.047.024-.047.023-.048.023-.047.023-.048.023-.047.022-.047.023-.048.023-.049.021-.049.023-.049.021-.049.022-.049.02-.05.022-.05.021-.051.02-.051.02-.052.02-.053.019-.053.02-.054.019-.054.018-.056.018-.055.018-.057.018-.058.016-.057.017-.059.016-.058.016-.06.015-.061.014-.062.015-.062.013-.064.013-.064.013-.065.014-.065.01-.067.012-.069.012-.069.01-.07.01-.07.01-.072.007-.073.008-.076.009-.075.006-.076.007-.079.005-.078.005-.08.004-.082.004h-.001l-.084.003-.085.003h-.001l-.085.002H60.72l-.075-.002h-.011l-.07-.001h-.015l-.065-.002h-.018l-.06-.003-.022-.002-.056-.003-.024-.002-.052-.003-.028-.002-.047-.003-.03-.003h-.005l-.072-.007-.04-.003-.036-.003-.036-.004-.04-.003-.032-.003-.04-.005-.03-.003-.044-.005-.026-.004-.046-.006-.023-.003-.047-.007-.02-.003-.05-.008-.017-.004-.052-.008-.013-.001-.054-.01-.01-.002-.057-.01-.007-.001-.059-.012h-.003l-.06-.013h-.002l-.06-.013h-.002l-.059-.013-.005-.001-.055-.014-.007-.001-.052-.013-.01-.002-.049-.013-.011-.003-.046-.013-.013-.004-.042-.01-.017-.006-.039-.011-.018-.005-.036-.012-.021-.006-.033-.01-.023-.006-.055-.018-.028-.01-.028-.01-.024-.008-.03-.01-.022-.008-.031-.012-.02-.006-.033-.011-.018-.007-.034-.013-.05-.02h-.002l-.013-.005-.04-.014-.01-.005-.04-.017-.008-.003-.043-.018-.006-.003-.044-.018-.005-.002-.046-.02h-.002l-.047-.02-.047-.022h-.004l-.044-.02h-.005l-.042-.02-.007-.004-.039-.018-.008-.003-.038-.018-.01-.005-.035-.016-.013-.007-.033-.016-.015-.007-.03-.014-.017-.008-.03-.015-.017-.01-.026-.013-.02-.01-.025-.013-.02-.011-.024-.012-.024-.011-.021-.012-.026-.013-.019-.01-.027-.014-.017-.008-.029-.015-.015-.008-.032-.017-.013-.006-.035-.018-.045-.025-.046-.024-.013-.007-.013-.006-.013-.007-.01-.005-.003-.001-.014-.007-.013-.006-.013-.007-.008-.003-.005-.003-.013-.007-.03-.01-.014-.006-.005-.002-.008-.005-.013-.006-.013-.007-.013-.006-.002-.002-.011-.006-.013-.007-.013-.007-.013-.006-.013-.007-.014-.006-.013-.007-.01-.005-.003-.001-.013-.007-.013-.006-.013-.007-.006-.003-.007-.003-.013-.007-.013-.006-.013-.007-.003-.002-.008-.004-.014-.007-.013-.007-.013-.006-.001-.002-.012-.006-.013-.007-.013-.006-.011-.007h-.002l-.013-.006-.013-.007-.013-.006-.01-.005-.005-.002-.013-.007-.013-.006-.013-.006-.007-.004-.006-.003-.013-.007-.013-.006-.013-.007-.004-.001-.01-.005-.012-.007-.014-.006-.014-.007-.026-.013-.015-.006-.011-.005-.002-.002-.015-.006-.013-.007-.055-.026-.015-.007-.007-.003-.053-.024-.054-.025-.054-.023-.054-.023-.056-.023-.055-.022-.057-.023-.057-.021-.058-.023-.059-.022-.058-.02-.059-.022-.06-.021-.06-.02-.063-.02-.062-.019-.064-.018-.063-.02-.066-.017-.065-.018-.067-.018-.069-.017-.068-.016-.07-.017-.07-.014-.072-.015-.074-.015-.073-.013-.076-.013-.076-.013-.077-.011-.078-.012-.08-.01-.08-.01-.082-.009-.084-.008-.084-.008-.087-.007-.088-.006-.088-.007-.09-.005-.092-.005-.093-.003-.094-.003-.097-.002-.098-.002h-.199l-.098.002-.096.002-.095.003-.093.003-.092.005-.09.005-.09.007-.087.006-.087.007-.085.008-.083.008-.082.01-.081.01-.08.01-.079.01-.077.012-.076.013-.075.013-.074.013-.072.015-.072.015-.072.015-.07.016-.068.016-.067.017-.067.018-.066.018h-.001l-.066.017-.065.02-.064.018-.063.02-.062.02-.06.019-.061.021-.059.021-.059.022-.059.02-.057.024-.057.02-.057.024-.055.022-.056.023-.054.023-.054.023-.054.025-.052.024-.052.025-.053.024-.052.025-.052.024-.05.025-.051.024-.05.025-.052.024-.049.026-.049.026-.049.025-.048.026-.05.026-.048.026-.05.026-.048.026-.05.027-.045.024-.046.025-.046.024-.045.025-.046.024-.046.025-.046.024-.045.023-.048.024-.045.023-.048.023-.047.023-.047.023-.048.023-.047.023-.047.023-.048.02-.047.024-.05.02-.097.043-.05.021-.05.022-.101.04-.052.02-.106.04-.054.019-.054.018-.054.018-.056.018-.055.018h-.002l-.055.016-.058.017-.057.016-.059.016-.058.015-.06.014-.063.015-.062.013-.062.013-.064.013h-.001l-.064.014-.065.01h-.002l-.067.012h-.002l-.066.012-.069.01-.07.01-.07.01-.072.007h-.002l-.073.008h-.002l-.073.009h-.002l-.075.006-.077.007-.078.005h-.002l-.078.005-.08.004h-.002l-.082.004-.083.003h-.002l-.083.003-.085.002h-.354l-.085-.002-.084-.003h-.001l-.083-.003-.082-.004h-.002l-.08-.005-.078-.004-.077-.005h-.002l-.076-.007h-.002l-.075-.006-.074-.009-.073-.008-.072-.008-.072-.01-.07-.01-.069-.01-.067-.01h-.001l-.067-.012-.065-.011-.066-.014-.063-.013-.063-.013-.062-.013-.062-.014-.06-.015-.06-.015-.06-.016-.058-.017-.057-.016-.057-.016-.056-.018-.055-.018-.054-.018-.054-.018-.054-.02-.052-.02-.053-.019-.052-.02-.05-.019-.051-.02-.05-.02-.05-.022-.049-.021-.049-.022-.049-.02-.049-.024-.049-.02-.049-.024-.047-.023-.047-.023-.048-.022-.047-.023-.047-.023-.048-.023-.045-.024-.048-.023-.046-.025-.045-.024-.046-.025-.046-.024-.046-.025-.045-.024-.046-.025-.013-.006-.013-.007-.013-.006-.01-.005-.003-.002-.013-.006-.013-.007-.013-.007-.009-.003-.006-.003-.013-.007-.013-.006-.013-.007-.005-.001-.008-.005-.19-.098-.006-.003-.013-.007-.027-.013-.003-.002-.036-.018-.013-.006v-.002l-.093-.045-.01-.005-.005-.002-.013-.007-.04-.02-.014-.006-.013-.006-.013-.007-.003-.001-.01-.005-.013-.007-.013-.006-.013-.007-.013-.006-.015-.007-.013-.006-.011-.005-.003-.002-.015-.006-.013-.007-.015-.007-.008-.003-.007-.003-.014-.007-.015-.006-.013-.007c-.833-.379-1.83-.684-3.397-.684-2.131 0-3.207.563-4.248 1.109-.99.52-1.927 1.008-3.84 1.008-1.916 0-2.852-.49-3.842-1.008-1.04-.546-2.118-1.109-4.247-1.109-1.364 0-2.296.23-3.064.54-.049.34-.095.682-.136 1.024.797-.38 1.697-.682 3.2-.682 1.914 0 2.85.49 3.84 1.01 1.041.543 2.119 1.106 4.248 1.106 2.13 0 3.206-.563 4.248-1.107.991-.52 1.927-1.01 3.841-1.01 1.914 0 2.85.49 3.841 1.01.724.379 1.465.766 2.566.967.075.015.152.026.232.038l.023.003.01.001.014.002.025.003.024.003.018.004h.005l.024.003.025.003.024.004h.002l.023.003.024.003.025.003.008.002.016.002.025.003.024.003.017.002.01.002.05.004.023.002h.002l.026.003.026.002.026.003h.005l.021.002.026.001.026.002.013.002h.013l.028.001.026.002.022.002h.006l.028.001.026.002.028.002h.001l.026.001.028.002.028.001H44.197l.028.002.027.002.018.001h.012l.028.002.027.002h.059l.03.001h.088l.029.002h.31l.097-.002h.001l.095-.001.093-.004.093-.003h.002l.09-.005h.001l.09-.005h.002l.088-.006h.002l.086-.007.085-.008.085-.008.083-.008h.002l.081-.01.08-.01h.002l.079-.01h.001l.079-.011.076-.012.077-.013.075-.013h.002l.073-.013.072-.014.072-.015.07-.015h.002l.07-.016.069-.017.068-.016.067-.018.066-.018.065-.018.064-.018.063-.02.062-.019.062-.02.06-.02.061-.022.059-.021.059-.021.059-.022.057-.023.057-.02.057-.024.056-.023.055-.022.054-.025.054-.023.054-.024.052-.025.052-.024.053-.025.052-.024.05-.025.051-.024.05-.025.051-.024.051-.026h.002l.049-.025.049-.026.049-.026.049-.026.049-.026.049-.025.049-.026.049-.026.049-.026.045-.025.046-.024.046-.025.046-.024.045-.025.046-.024.046-.025.045-.024.046-.025.046-.023.047-.022.047-.023.048-.023.047-.023.048-.023.047-.023h.002l.047-.023.047-.022.05-.022.048-.02.05-.022.05-.021.101-.041.05-.02.053-.02.052-.019.053-.02.053-.02.054-.017.054-.018.056-.018.055-.018.058-.016.057-.017.058-.016.06-.016.058-.015.06-.015.063-.014.062-.015.062-.013.063-.013.066-.012.065-.011.067-.012.069-.011.068-.01.07-.01.072-.01.072-.008.073-.008.074-.008.075-.006.077-.007.078-.007.079-.004.08-.005.081-.004.084-.003.084-.002.087-.001.087-.002h.266l.064.002.022.002h.015l.07.001.048.002.037.001.04.002.043.002.032.001.05.004.023.001.057.004h.015l.064.004h.008l.068.007h.002l.069.007h.005l.061.006.012.002.056.006.02.002.046.006.025.004.04.005.03.004.034.005.036.005.026.004.043.006.021.003.048.008.014.002.053.01.008.002.059.01h.001l.059.012h.003l.056.012.01.001.049.01.014.003.043.01.02.005.037.008.026.007.06.015.025.006.036.01.018.005.04.011.014.003.045.014.058.016h.003l.054.016.049.015.008.003.044.013.011.004.038.013.018.006.032.012.022.008.027.01.027.01.023.008.03.01.018.007.035.014.013.004.04.015.007.003.044.017.004.001.047.02h.002l.044.018.006.002.041.016.01.005.034.014.015.007.03.013.02.008.027.012.023.01.02.01.028.012.017.008.03.015.012.007.036.016.008.003.041.02.003.002.043.02.042.02.005.004.038.018.01.005.034.016.013.006.03.015.017.008.025.013.021.012.021.011.025.013.016.008.03.015.013.007.266.138c.723.38 1.465.766 2.565.969l.111.02.002.001.047.008.023.004h.004l.02.003.022.003.024.003.012.002.013.002.025.003.024.003.018.003h.007l.024.004.025.003.024.003.024.003.025.004.024.003.009.002.018.001.024.004.025.003.014.001.01.002.025.003.026.004.023.001h.003l.026.004.026.001.026.003h.005l.021.002.027.002.026.001.011.002h.015l.026.002.026.001.02.002h.006l.028.001.028.002.027.002h.002l.026.001.028.002.028.002h.03l.027.001.028.002.016.002h.011l.028.001.028.002H60.544l.03.001h.088l.029.002h.312l.096-.002h.002l.095-.001.094-.004h.002l.093-.003.092-.005h.001l.09-.005.088-.006.087-.007.085-.008h.001l.085-.008.084-.008.081-.01.082-.01.08-.01.078-.011.077-.011.077-.014.075-.012.073-.014.074-.014.072-.015.07-.015.07-.016.069-.016.068-.017.067-.018.066-.018.065-.018.064-.017.063-.02.062-.02.062-.02.06-.02.061-.022.06-.021.06-.021.058-.022.057-.022.058-.022.057-.022.055-.023.056-.023.054-.025.054-.023.053-.024.054-.024.054-.025.053-.024.052-.025.052-.024.05-.025.051-.024.05-.025.052-.026.05-.025.05-.026.05-.026.049-.026.049-.026.049-.025.049-.026.049-.026.049-.026.047-.024.046-.025.046-.024.045-.025.046-.024.047-.025.046-.024.046-.025.047-.024.046-.023.047-.023.048-.023.047-.023.047-.023.048-.023.049-.023.049-.022.049-.023.049-.022.049-.02.049-.022.05-.021.05-.021.052-.022.05-.02.052-.019.053-.02.052-.019.054-.02.054-.018.055-.018.056-.017.055-.018.058-.017.057-.016.058-.016.06-.017.06-.015.062-.014.062-.015.062-.015.064-.013.063-.013.066-.011.065-.012.067-.011.068-.011.07-.01.07-.01.073-.01.072-.008.073-.008.075-.008.077-.007.077-.006.078-.007.08-.005.08-.005.083-.003.084-.003.085-.002.086-.002.088-.001h.18l.088.002.087.001.085.002.083.003.082.003.08.005.08.005.078.007.077.006.075.007.075.008.073.008.072.008.072.01.07.01.069.01.069.011.067.011.066.012.066.011.065.013.064.013.062.015.062.015.06.014.06.015.06.017.058.016.058.016.057.017.055.018.056.017.055.018.054.018.054.02.052.02.053.02.052.019.052.02.05.02.051.022.05.021.05.021.049.021.049.022.049.023.049.023.047.022.048.023.047.023.047.023.048.023.047.023.047.023.048.024.047.025.046.024.046.025.047.024.046.025.045.024.046.025.047.024c1.04.544 2.119 1.107 4.25 1.107h.1l.097-.001.097-.002.094-.003.094-.004.091-.005.09-.004.088-.007.088-.006.087-.009.085-.008.083-.008.082-.01.081-.01.08-.01.079-.01.076-.012.077-.013.075-.013.074-.013.073-.015.072-.015.07-.014.07-.017.07-.016.068-.017.067-.017.067-.018.065-.018.064-.018.063-.02.063-.02.062-.02.062-.02.06-.022.06-.02.06-.022.058-.021.057-.023.057-.021.056-.023.055-.023.056-.023.054-.024.054-.023.054-.025.053-.024.053-.025.052-.024.052-.025.053-.024.05-.025.05-.024.051-.025.051-.026.05-.024.051-.026.05-.027.048-.026.05-.026.048-.024.05-.026.048-.027.05-.026.045-.024.046-.025.047-.024.046-.025.046-.024.045-.025.046-.024.047-.025.046-.024.047-.023.048-.023.047-.023.047-.023.048-.023.047-.023.048-.022.049-.023.049-.023.048-.021.05-.022.048-.02.051-.022.05-.021.051-.021.053-.02.052-.02.052-.02.054-.019.054-.02.056-.017.055-.018.055-.018.056-.018.057-.017.057-.016.06-.016.058-.017.06-.014.06-.015.063-.015.062-.014.064-.013.063-.014.066-.01.067-.012.067-.012.068-.011.069-.01.07-.01.072-.01.072-.008.073-.008.075-.008.077-.007.077-.006.078-.007.08-.005.082-.005.081-.003.084-.003.085-.002.086-.001.088-.002h.265l.064.002.023.001h.014l.07.002.046.002.038.001.037.002.044.002.032.001.05.003.023.002.057.003h.015l.063.005h.009l.068.007h.002l.069.006h.006l.062.007.013.001.056.007.02.002.047.006.024.003.04.005.032.005.033.005.037.005.026.003.043.007.02.003.048.008.015.002.054.01.008.001.059.012h.001l.06.011h.004l.054.012.057.013.017.003.042.01.021.005.036.008.026.006.03.007.032.008.023.006.036.01.018.005.041.012.013.003.046.013.006.002.051.014h.002l.052.015h.003l.05.015.007.003.043.013.013.003.037.013.018.007.033.011.023.009.028.01.026.01.021.007.096.036.041.015.007.003.044.017.003.001.047.02h.002l.044.018.007.001.039.017.091.039.02.008.026.011.023.01.021.01.028.013.016.008c.074.034.146.069.217.103l.005.003c.095.046.188.094.28.14l.011.007.266.14c1.04.543 2.118 1.106 4.248 1.106 2.13 0 3.206-.563 4.248-1.107.176-.075.375-.18.58-.28Zm-81.068 2.304c.852-.428 1.773-.787 3.411-.787 1.914 0 2.85.49 3.841 1.008 1.04.545 2.118 1.109 4.248 1.109 2.13 0 3.206-.564 4.248-1.11.99-.519 1.927-1.007 3.84-1.007 1.915 0 2.85.49 3.842 1.008 1.041.545 2.118 1.109 4.249 1.109.593 0 1.104-.044 1.555-.12l.013-.001.042-.007.033-.006.023-.005h.005l.05-.01.054-.012.015-.003.039-.008.106-.023.052-.011.017-.004.036-.008.151-.037.017-.005.032-.01.146-.04.016-.006.031-.01.095-.029h.002l.044-.014.018-.005.027-.01.136-.046.018-.007.026-.01.044-.016.044-.016.005-.002.04-.014.127-.05h.005l.035-.016.02-.008.021-.01.035-.014.008-.004.04-.017.007-.004.034-.014.02-.009.02-.008.034-.015.006-.003.079-.036.021-.01.018-.008.034-.016.005-.002.04-.018.008-.005.03-.014.022-.01.018-.008.114-.056.021-.011.017-.008.036-.018.003-.002.037-.018.01-.005.028-.013.023-.011.015-.008.035-.018.002-.002.038-.02.011-.005.026-.012.074-.038.036-.02.011-.006.025-.013.073-.04.046-.024.046-.024.045-.025.046-.025.046-.024.046-.024.045-.025.046-.023.046-.024.045-.025.048-.023.047-.023.047-.022.048-.023.047-.023.047-.023h.002l.047-.023.048-.021.049-.021.049-.022.049-.02.05-.022.102-.04.05-.02.053-.02.052-.02.052-.02.054-.019.054-.018.054-.018.055-.018.056-.018.057-.016.057-.016.059-.017.059-.014.059-.017.06-.014.062-.015.062-.013.062-.013.064-.013.065-.013.066-.012.066-.011.069-.012.069-.01.07-.01.072-.009.072-.008.073-.008.073-.009.076-.006.076-.007.079-.004.078-.005.08-.005.082-.004.083-.003.085-.002.087-.001H53.063l.026.002H53.141l.026.001.026.002h.002l.025.001.026.002.026.002h.006l.018.001.026.002.027.002h.011l.013.001.025.002.024.002.017.001h.008l.07.005h.003l.025.002.05.005.022.001.024.002.023.002h.008l.016.001.025.003.023.002.011.002.012.001.022.004.023.003.017.001.05.005.021.004h.002l.023.003.044.006h.003l.041.005.021.004.008.001.058.008.011.002.136.023c1 .176 1.669.526 2.368.892 1.042.545 2.118 1.108 4.249 1.108.568 0 1.061-.04 1.5-.109l.056-.01.013-.002.043-.006.032-.007.023-.004.051-.01h.003l.054-.012.015-.003.039-.008.054-.012.05-.01.002-.003.052-.011.015-.003.036-.008.033-.009.018-.005.049-.01.05-.014.017-.005.032-.01.033-.008.016-.005.05-.013.047-.014.016-.005.031-.01.033-.01.014-.005.046-.015h.002l.044-.014.018-.005.028-.01.032-.011.013-.005.046-.015.003-.002.043-.014.018-.007.026-.01.032-.011.012-.003.044-.017.005-.001.04-.015.017-.007.025-.01.032-.012.01-.004.042-.016.005-.002.036-.014.02-.009.023-.01.032-.014.009-.003.04-.018.007-.004.034-.014.02-.008.02-.009.032-.014.007-.004.039-.018.006-.003.033-.015.02-.01.02-.007.032-.017.005-.001.039-.018.008-.005.031-.015.021-.01.018-.008.035-.016.005-.002.037-.018.008-.005.03-.014.02-.012.017-.008.034-.018.004-.002.037-.018.01-.005.028-.013.023-.011.014-.008.035-.018.001-.002.038-.02.01-.004.026-.013.023-.013.013-.007.036-.018h.001l.036-.02.012-.006.024-.013.023-.013.013-.007.036-.02.047-.024.046-.024.046-.025.046-.024.045-.025.048-.024.046-.025.045-.023.047-.024.046-.025.048-.023.047-.022.047-.023.048-.023.047-.023.05-.023.048-.023.05-.02.048-.022.049-.021.049-.022.05-.02.051-.022.05-.02.052-.02.052-.019.052-.02.052-.019.054-.02.054-.018.056-.017.055-.019.056-.017.057-.017.057-.016.059-.017.059-.014.06-.017.062-.014.062-.015.062-.013.064-.013.063-.013.066-.013.065-.012.067-.011.069-.011.07-.01.07-.01.072-.01.072-.008.073-.008.075-.008.077-.007.077-.006.078-.005.08-.005.08-.005.084-.003.083-.004.085-.001.087-.002h.356l.086.002.085.001.083.004.082.003.08.005.08.005.078.005.077.006.075.007.075.008.074.008.072.008.072.01.07.01.068.01.069.011.067.011.067.012.065.013.066.013.063.013.062.013.062.015.06.014.061.017.059.014.059.017.057.016.057.017.056.017.055.019.056.017.054.018.053.02.053.02.052.02.052.019.052.02.051.019.05.021.05.021.05.022.05.02.048.022.05.021.048.023.048.023.047.023.047.023.048.023.047.023.047.022.048.025.047.024.048.023.045.025.046.024.047.025.046.024.046.025.045.024.048.025c1.04.545 2.118 1.109 4.25 1.109l.099-.002.098-.002.096-.001.095-.004.093-.003.091-.005.09-.005.088-.004.089-.007.086-.008.085-.008.083-.009.082-.01.082-.01.08-.009.078-.011.077-.012.077-.013.075-.013.073-.013.074-.015.072-.014.07-.015.07-.016.069-.017.068-.016.067-.018.067-.018.065-.018.064-.02.064-.018.062-.02.062-.019.062-.02.06-.02.06-.022.06-.021.058-.021.058-.021.057-.023.055-.023.056-.023.055-.023.054-.023.054-.023.054-.024.054-.025.052-.024.052-.025.053-.024.052-.025.05-.024.051-.025.05-.024.051-.025.051-.026.05-.026.05-.024.049-.026.049-.027.049-.026.049-.026.049-.026.049-.026.045-.025.046-.024.047-.025.046-.024.046-.025.046-.024.045-.025.048-.023.045-.024.048-.024.047-.023.047-.023.048-.023.047-.023.048-.023.047-.023.049-.023.049-.02.049-.022.049-.021.049-.021.05-.022.051-.02.05-.02.053-.02.052-.02.053-.02.054-.019.053-.02.056-.017.055-.018.056-.018.055-.018.058-.017.057-.016.059-.016.058-.015.06-.016.061-.015.062-.015.062-.013.064-.013.064-.013.065-.013.067-.011.067-.012.069-.011.068-.01.07-.01.072-.01.072-.008.073-.008.076-.008.076-.007.077-.006.079-.005.08-.005.081-.005.082-.003.083-.004.085-.001.087-.002H85.409l.027.002h.052l.026.002.026.001h.002l.024.002.025.001.026.002h.006l.018.002.025.001.024.002h.012l.013.002.024.001.025.002.018.001h.006l.05.004.02.001h.004l.024.002.05.005h.003l.02.002.025.001.023.002h.008l.015.001.023.004.024.001.014.002.01.002.024.003.023.003.018.002h.005l.022.003.023.003.022.004.022.003.023.003.023.003h.005l.018.004.023.003.023.003.008.002.013.001.021.004.021.003.013.002.009.001.02.003.022.004.018.003h.003l.022.003.02.004.022.003h.002l.02.003.02.003.022.004c.968.178 1.623.522 2.306.88 1.04.545 2.118 1.109 4.247 1.109 2.13 0 3.206-.564 4.248-1.11.266-.138.527-.275.805-.4-.021-.311-.046-.622-.074-.93a13.4 13.4 0 0 0-1.138.549c-.991.519-1.927 1.009-3.84 1.009-1.915 0-2.85-.49-3.842-1.01-.535-.28-1.08-.564-1.775-.775l-.003-.002-.028-.008-.031-.008-.007-.002-.024-.006-.064-.018-.03-.008-.033-.009-.033-.008-.011-.003-.02-.005-.033-.008-.065-.016-.016-.005-.017-.004-.034-.008-.034-.008-.035-.008-.02-.005-.014-.003a6.934 6.934 0 0 0-.21-.043l-.036-.006-.032-.007h-.004l-.036-.006-.033-.005h-.003l-.038-.007-.036-.006h-.001l-.038-.007-.075-.011-.04-.005-.003-.002-.034-.005-.04-.005-.006-.001-.032-.003-.079-.01-.04-.005-.012-.002-.03-.003-.04-.003-.013-.002-.028-.003-.04-.004-.017-.001-.026-.002-.043-.003-.042-.003-.043-.003-.02-.002-.022-.002-.044-.003-.025-.002-.018-.001-.044-.002-.027-.002-.017-.001-.044-.002-.031-.002h-.015l-.045-.001-.035-.002h-.011l-.046-.001-.037-.002h-.054l-.041-.002H85.014l-.096.002-.096.002-.095.003-.093.003-.092.005-.09.005-.088.007-.088.006-.086.008-.085.008-.084.009-.081.01-.082.01-.08.009-.078.011-.077.012-.077.013-.075.013-.074.013-.073.013-.072.015-.07.016-.07.015-.069.016-.068.016-.067.018-.067.018-.066.018-.063.02-.064.02-.062.02-.062.019-.062.02-.06.02-.061.022-.059.021-.059.021-.057.023-.057.021-.057.023-.056.023-.055.023-.056.024-.054.023-.053.025-.054.024-.053.025-.052.024-.052.025-.052.024-.051.025-.05.024-.051.025-.05.026-.052.024-.048.026-.05.027-.048.026-.05.026-.049.026-.049.026-.049.026-.049.026-.045.025-.046.024-.046.025-.047.024-.046.025-.045.023-.046.024-.048.025-.047.023-.046.022-.047.023-.047.023-.048.023-.047.023-.047.023-.048.023-.049.023-.049.02-.049.022-.049.021-.05.021-.051.022-.05.02-.051.022-.052.02-.053.02-.052.019-.052.02-.054.017-.054.018-.056.018-.055.018-.056.018-.057.017-.057.016-.059.016-.059.017-.06.014-.06.015-.063.015-.061.014-.064.014-.066.013-.065.013-.067.011-.067.012-.068.01-.069.01-.07.01-.07.01-.072.009-.074.008-.075.006-.077.008-.076.007-.079.006-.08.005-.08.005-.082.004-.083.003-.085.001-.086.002h-.088l-.089.002-.09-.002h-.088l-.086-.002-.085-.001-.083-.003-.084-.004-.081-.005-.08-.005-.079-.006-.076-.007-.077-.008-.075-.006-.074-.008-.073-.009-.072-.01-.07-.01-.069-.01-.069-.01-.067-.012-.067-.011-.065-.014-.065-.012-.064-.014-.062-.014-.062-.015-.06-.015-.06-.014-.058-.017-.059-.016-.057-.016-.057-.017-.056-.018-.055-.018-.056-.018-.054-.017-.053-.019-.054-.02-.053-.019-.052-.02-.052-.019-.05-.021-.051-.021-.051-.022-.049-.02-.049-.022-.049-.021-.049-.021-.047-.023-.048-.023-.047-.023-.047-.023-.048-.023-.047-.023-.047-.023-.048-.022-.046-.023-.045-.025-.046-.024-.046-.023-.046-.025-.045-.024-.046-.025-.046-.024-.045-.025-.05-.026-.048-.026-.05-.026-.048-.026-.05-.026-.048-.026-.05-.027-.05-.026-.05-.024-.051-.026-.05-.025-.051-.024-.051-.025-.052-.024-.053-.025-.052-.024-.054-.025-.052-.024-.054-.025-.054-.023-.054-.024-.055-.023-.056-.023-.057-.023-.057-.02-.057-.024-.059-.021-.059-.021-.059-.021-.06-.022-.06-.02-.063-.019-.062-.02-.063-.02-.066-.019-.065-.018-.067-.018-.067-.018-.068-.016-.069-.016-.07-.015-.07-.016-.072-.015-.074-.013-.073-.013-.075-.013-.077-.013-.079-.012-.078-.011-.08-.01-.082-.01-.081-.01-.084-.008-.084-.008-.087-.008-.088-.006-.088-.007-.09-.005-.092-.005-.093-.003-.094-.003-.097-.002-.098-.002h-.199l-.098.002-.096.002-.095.003-.093.003-.092.005-.09.005-.09.007-.087.006-.087.008-.085.008-.083.009-.084.01-.081.01-.08.009-.079.011-.076.012-.077.013-.075.013-.074.013-.073.013-.072.015-.072.016-.07.015-.07.016-.069.016-.067.018-.067.018-.065.018-.064.02-.064.02-.062.02-.062.019-.062.02-.06.02-.059.022-.059.021-.059.021-.057.023-.057.021-.057.023-.055.023-.056.023-.056.024-.053.023-.054.025-.054.024-.052.025-.053.024-.052.025-.052.024-.05.025-.051.024-.051.025-.05.026-.051.024-.051.026-.049.027-.049.026-.049.026-.049.026-.049.026-.049.026-.049.026-.044.023-.003.002-.041.021-.007.003-.037.02-.01.005-.034.018-.012.006-.03.017-.016.008-.029.015-.018.008-.026.013-.021.01-.023.011-.025.011-.02.01-.025.013-.017.008-.03.015-.014.007-.032.016-.012.005-.036.018-.008.005-.04.018-.004.003-.088.043h-.002l-.044.02-.003.002-.005.002-.092.042-.035.017-.014.006-.049.022-.029.013-.02.008-.027.011-.074.031-.021.008-.031.012-.018.006-.034.013-.053.02-.011.005-.04.015-.009.003-.046.016-.005.002-.049.016-.001.002-.05.018h-.002l-.051.016-.005.002-.056.018-.044.014-.013.004-.04.013-.017.005-.037.011-.02.005-.034.01-.025.006-.03.008-.029.009-.027.006-.033.008-.025.007-.035.008a5.46 5.46 0 0 1-.319.067h-.002l-.062.011h-.001l-.067.012-.057.01-.012.001a8.361 8.361 0 0 1-.906.087h-.002c-.137.006-.28.008-.43.008-1.915 0-2.85-.49-3.842-1.01-.536-.28-1.081-.564-1.773-.775l-.005-.002-.026-.008-.032-.008-.006-.002-.025-.006-.03-.01-.009-.003-.023-.007-.03-.008-.012-.003-.021-.007-.033-.008-.011-.003-.02-.005-.033-.008-.014-.003-.018-.005-.033-.008-.018-.005-.016-.004-.035-.008-.02-.005-.014-.003-.034-.008-.021-.005-.014-.003-.034-.008-.024-.005-.012-.002-.034-.006-.026-.005-.008-.002-.036-.007-.03-.005-.006-.001-.036-.007-.031-.006h-.005l-.036-.007-.034-.005h-.004l-.037-.006-.036-.007-.038-.006-.037-.007h-.002l-.036-.005-.037-.005-.005-.001-.034-.005-.04-.005-.006-.002-.033-.003-.006-.002-.07-.008h-.002l-.041-.005-.012-.001-.029-.003-.04-.004-.014-.001-.028-.004-.04-.003-.017-.002-.024-.001-.043-.004-.042-.003-.043-.003-.022-.002-.022-.001-.042-.003-.025-.002-.018-.002-.044-.001-.027-.002-.017-.002-.044-.001-.03-.002h-.014l-.046-.002-.034-.001h-.01l-.045-.002-.038-.002h-.054l-.04-.001H52.665l-.098.002-.096.001-.095.003-.093.004-.092.005-.09.005-.09.006-.087.007-.087.008-.085.008-.083.008-.082.01-.081.01-.08.01-.079.01-.077.012-.076.013-.075.013-.074.014-.072.013-.072.014-.072.017-.07.014-.068.017-.067.016-.067.018-.066.018h-.001l-.066.018-.065.02-.064.019-.063.02-.062.02-.06.019-.061.021-.059.021-.059.022-.059.02-.057.024-.057.02-.057.024-.056.023-.055.022-.054.025-.054.023-.054.024-.052.025-.052.024-.053.025-.052.024-.052.025-.05.024-.051.025-.05.024-.052.026-.049.025-.049.026-.048.026-.05.026-.048.026-.05.026-.048.027-.05.026-.048.026-.045.023-.003.001-.04.022-.006.003-.037.02-.008.004-.035.018-.011.007-.033.016-.014.008-.03.015-.018.008-.026.013-.02.01-.022.012-.023.011-.02.01-.088.044-.033.016-.011.005-.036.018-.008.005-.04.018-.004.003-.043.02-.003.001-.044.022-.09.042-.007.003-.039.018-.01.005-.035.017-.013.006-.033.015-.016.006-.032.013-.047.02-.023.01-.024.01-.026.01-.022.008-.047.02-.033.012-.014.007-.038.014-.011.005-.041.015-.01.003-.044.017-.006.001-.048.017-.003.001-.05.018-.051.016-.005.002-.048.015-.008.003-.044.015-.011.003-.043.013-.014.005-.04.011-.02.005-.034.01-.024.007-.031.008-.028.008-.028.007-.03.008-.025.006-.036.008-.021.005-.041.01-.018.005-.044.01-.015.003-.049.01-.01.003-.054.012-.006.001-.059.012h-.002l-.062.011h-.001l-.06.011h-.007l-.057.01-.012.002c-.16.025-.33.046-.508.062l-.026.002-.05.003c-.105.008-.211.015-.322.02h-.002a9.02 9.02 0 0 1-.43.008c-1.913 0-2.849-.49-3.84-1.01-1.042-.545-2.118-1.107-4.248-1.107-2.131 0-3.207.564-4.248 1.107-.99.52-1.927 1.01-3.84 1.01-1.916 0-2.852-.49-3.842-1.01-1.04-.545-2.118-1.107-4.247-1.107-1.529 0-2.515.29-3.335.657-.023.336-.05.674-.07 1.012Z"
            fill="#00930C" />
        <path fill-rule="evenodd" clip-rule="evenodd"
            d="M76.983 21.22a8.496 8.496 0 1 1-15.943-4.716 40.564 40.564 0 0 1 15.943 4.716Z" fill="#F8BF14" />
    </symbol>
    <symbol fill="none" viewBox="0 0 55 36" id="svg-map-subtitle" xmlns="http://www.w3.org/2000/svg">
        <path d="M0 4a4 4 0 0 1 4-4h4a4 4 0 0 1 4 4v32H4a4 4 0 0 1-4-4V4Z" fill="#026701" />
        <path d="M12 7h8a4 4 0 0 1 4 4v21a4 4 0 0 1-4 4h-8V7Z" fill="url(#apa)" />
        <path d="M31 4a4 4 0 0 1 4-4h4a4 4 0 0 1 4 4v32h-8a4 4 0 0 1-4-4V4Z" fill="#D3163C" />
        <path d="M43 18h8a4 4 0 0 1 4 4v10a4 4 0 0 1-4 4h-8V18Z" fill="url(#apb)" />
        <defs>
            <linearGradient id="apa" x1="18" y1="7" x2="18" y2="47" gradientUnits="userSpaceOnUse">
                <stop stop-color="#77B400" />
                <stop offset="1" stop-color="#77B400" stop-opacity="0" />
            </linearGradient>
            <linearGradient id="apb" x1="49" y1="18" x2="49" y2="49" gradientUnits="userSpaceOnUse">
                <stop stop-color="#F84B6E" />
                <stop offset="1" stop-color="#F84B6E" stop-opacity="0" />
            </linearGradient>
        </defs>
    </symbol>
    <symbol fill="none" viewBox="0 0 72 72" id="svg-materials" xmlns="http://www.w3.org/2000/svg">
        <path d="m35.998 59.435-24.49-11.48 24.49-11.49 24.49 11.49-24.49 11.48Z" stroke="#7CB70B" stroke-width="2"
            stroke-miterlimit="10" stroke-linecap="round" stroke-linejoin="round" />
        <path d="m35.998 51.286-24.49-11.49v-7.694l48.98.398v7.296l-24.49 11.49Z" fill="#fff" stroke="#D3163C"
            stroke-width="2" stroke-miterlimit="10" stroke-linecap="round" stroke-linejoin="round" />
        <path d="m35.998 43.333-24.49-11.49 24.49-11.48 24.49 11.48-24.49 11.49Z" fill="#fff" stroke="#D3163C"
            stroke-width="2" stroke-miterlimit="10" stroke-linecap="round" stroke-linejoin="round" />
        <path
            d="M60.484 31.844v7.95M52.266 35.824v7.7M44.355 39.535v7.72M11.508 31.844v7.95M19.727 35.824v7.7M27.637 39.535v7.72M35.996 43.355v7.94"
            stroke="#D3163C" stroke-width="2" stroke-miterlimit="10" stroke-linecap="round" stroke-linejoin="round" />
        <path d="m35.998 35.546-24.49-11.49 24.49-11.49 24.49 11.49-24.49 11.49Z" fill="#fff" stroke="#7CB70B"
            stroke-width="2" stroke-miterlimit="10" stroke-linecap="round" stroke-linejoin="round" />
    </symbol>
    <symbol fill="none" viewBox="0 0 72 72" id="svg-parking" xmlns="http://www.w3.org/2000/svg">
        <path
            d="M48.98 8.5H23.5a8 8 0 0 0-8 8v25.48a8 8 0 0 0 8 8h25.48a8 8 0 0 0 8-8V16.5a8 8 0 0 0-8-8ZM33.723 49.98v13.7M38.762 49.98v13.7"
            stroke="#7CB70B" stroke-width="2" stroke-miterlimit="10" stroke-linecap="round" stroke-linejoin="round" />
        <path
            d="M37.483 17.059h-6.802a2.718 2.718 0 0 0-2.72 2.72v18.918a2.713 2.713 0 0 0 2.72 2.72c1.5 0 2.72-1.212 2.72-2.72v-3.552h4.082c4.983 0 9.04-4.057 9.04-9.04 0-4.99-4.058-9.046-9.04-9.046Zm0 12.645h-4.081V22.5h4.081a3.607 3.607 0 0 1 3.599 3.607 3.606 3.606 0 0 1-3.599 3.598Z"
            stroke="#D3163C" stroke-width="2" stroke-miterlimit="10" stroke-linecap="round" stroke-linejoin="round" />
        <path stroke="#7CB70B" stroke-width="2" stroke-miterlimit="10" stroke-linecap="round" stroke-linejoin="round"
            d="M42.883 64.68H29.59" />
    </symbol>
    <symbol fill="none" viewBox="0 0 72 72" id="svg-percent" xmlns="http://www.w3.org/2000/svg">
        <path d="m11.893 60.107 45.535-45.536" stroke="#7CB70B" stroke-width="2" stroke-miterlimit="10"
            stroke-linecap="round" stroke-linejoin="round" />
        <circle cx="21.714" cy="21.714" r="10.714" stroke="#7CB70B" stroke-width="2" stroke-miterlimit="10"
            stroke-linecap="round" stroke-linejoin="round" />
        <circle cx="50.288" cy="50.286" r="10.714" stroke="#D3163C" stroke-width="2" stroke-miterlimit="10"
            stroke-linecap="round" stroke-linejoin="round" />
    </symbol>
    <symbol fill="none" viewBox="0 0 28 28" id="svg-pet" xmlns="http://www.w3.org/2000/svg">
        <rect width="28" height="28" rx="4" fill="#BE6837" />
        <path
            d="M13.995 12.255c-2.68 0-3.216 2.428-3.216 3.695-.653.22-1.268.539-1.822.948a2.12 2.12 0 0 0-.429 2.96 2.219 2.219 0 0 0 3 .426 4.307 4.307 0 0 1 2.467-.735 4.307 4.307 0 0 1 2.465.735 2.153 2.153 0 0 0 3-.32 2.051 2.051 0 0 0 .484-1.498 2.045 2.045 0 0 0-.805-1.462l-.107-.106a9.669 9.669 0 0 0-1.822-.948c0-1.257-.536-3.695-3.215-3.695Zm-5.81-1.81c-.38.188-.674.512-.825.907-.15.394-.147.83.011 1.222.033.424.233.818.555 1.097.323.279.744.42 1.17.394.38-.189.675-.512.826-.907.15-.394.147-.83-.01-1.223a1.615 1.615 0 0 0-.556-1.096 1.636 1.636 0 0 0-1.17-.394Zm11.63 0c.38.188.674.512.825.907.15.394.147.83-.011 1.222a1.615 1.615 0 0 1-.556 1.097c-.322.279-.743.42-1.17.394a1.686 1.686 0 0 1-.825-.907c-.15-.394-.147-.83.01-1.223.034-.424.233-.817.556-1.096.323-.28.743-.42 1.17-.394ZM11.4 7.25c-.729.096-1.072 1.001-.815 1.991.058.427.26.82.574 1.117.314.297.72.477 1.152.512.729-.095 1.072-1 .815-1.99a1.88 1.88 0 0 0-.574-1.118 1.903 1.903 0 0 0-1.152-.512Zm5.198 0c.729.096 1.072 1.001.814 1.991a1.88 1.88 0 0 1-.577 1.12 1.902 1.902 0 0 1-1.159.51c-.729-.086-1.072-1.001-.814-1.992a1.88 1.88 0 0 1 .577-1.12A1.901 1.901 0 0 1 16.6 7.25Z"
            fill="#fff" />
    </symbol>
    <symbol fill="none" viewBox="0 0 32 32" id="svg-play" xmlns="http://www.w3.org/2000/svg">
        <path fill-rule="evenodd" clip-rule="evenodd"
            d="M16 30c7.732 0 14-6.268 14-14S23.732 2 16 2 2 8.268 2 16s6.268 14 14 14Zm-1.514-18.175A1 1 0 0 0 13 12.7v6.6a1 1 0 0 0 1.486.875l5.94-3.3a1 1 0 0 0 0-1.75l-5.94-3.3Z"
            fill="#fff" />
    </symbol>
    <symbol fill="none" viewBox="0 0 72 72" id="svg-polymedicine" xmlns="http://www.w3.org/2000/svg">
        <path
            d="M22.73 34.668h6.714a.25.25 0 0 1 .231.154l3.567 8.66c.091.222.41.2.473-.03l3.935-14.715a.1.1 0 0 1 .189-.014l2.535 5.795c.04.09.13.15.23.15h7.701"
            stroke="#7CB70B" stroke-width="2" stroke-linecap="round" />
        <path
            d="M16.864 18.977c5.151-5.303 13.504-5.303 18.656 0 5.151-5.303 13.504-5.303 18.656 0 5.151 5.302 5.151 13.899 0 19.201L36.237 56.641a1 1 0 0 1-1.434 0l-17.94-18.463c-5.15-5.302-5.15-13.899 0-19.201Z"
            stroke="#D3163C" stroke-width="2" />
    </symbol>
    <symbol fill="none" viewBox="0 0 72 72" id="svg-school" xmlns="http://www.w3.org/2000/svg">
        <path d="m11 22 23.886-9.554a3 3 0 0 1 2.228 0L61 22" stroke="#D3163C" stroke-width="2"
            stroke-linecap="round" />
        <path
            d="M35.998 24.501c-2.737-2.026-6.949-2.474-9.745-2.5-.198-.001-.396 0-.596.007-2.953.087-6.16 1.071-9.602 2.695a.1.1 0 0 0-.057.09v27.973c7.156-.104 14.358 1.405 20 2.985m0-31.25v31.25m0-31.25c2.737-2.026 6.95-2.474 9.748-2.5.198-.001.396.001.596.007 2.954.087 6.16 1.071 9.599 2.695a.1.1 0 0 1 .057.09v27.973c-7.156-.105-14.357 1.405-20 2.985"
            stroke="#7CB70B" stroke-width="2" />
        <path d="M16 30.752h-4a1 1 0 0 0-1 1V58.5a1 1 0 0 0 1 1h48a1 1 0 0 0 1-1V31.75a1 1 0 0 0-1-1h-4"
            stroke="#7CB70B" stroke-width="2" stroke-linecap="round" />
    </symbol>
    <symbol fill="none" viewBox="0 0 72 72" id="svg-security" xmlns="http://www.w3.org/2000/svg">
        <path
            d="M56.344 19.558v23.548a16.363 16.363 0 0 1-9.458 14.837l-11.349 5.285-11.348-5.285a16.363 16.363 0 0 1-9.459-14.837V19.558A3.983 3.983 0 0 1 17.4 15.8l17.81-6.179a1 1 0 0 1 .656 0L53.676 15.8a3.983 3.983 0 0 1 2.668 3.758Z"
            stroke="#7CB70B" stroke-width="2" stroke-miterlimit="10" />
        <path
            d="M26.38 53.24a11.214 11.214 0 0 1-6.458-10.134V21.131a1 1 0 0 1 .672-.945l14.616-5.072a1 1 0 0 1 .655 0l14.616 5.072a1 1 0 0 1 .672.945v21.975c0 4.33-2.533 8.306-6.458 10.134l-8.735 4.07a1 1 0 0 1-.845 0l-8.735-4.07Z"
            stroke="#7CB70B" stroke-width="2" stroke-miterlimit="10" />
        <path d="M35.54 24.992v22.526M42.512 28.813v14.881M28.918 28.813v14.881" stroke="#D3163C" stroke-width="2"
            stroke-miterlimit="10" stroke-linecap="round" stroke-linejoin="round" />
    </symbol>
    <symbol fill="none" viewBox="0 0 28 28" id="svg-shop" xmlns="http://www.w3.org/2000/svg">
        <rect width="28" height="28" rx="4" fill="#F84B6E" />
        <path
            d="M20.808 10.25a1.5 1.5 0 0 0-1.275-.75h-9.6l-.435-1.695a.75.75 0 0 0-.75-.555h-1.5a.75.75 0 1 0 0 1.5h.93l2.07 7.695a.75.75 0 0 0 .75.555h6.75a.749.749 0 0 0 .668-.412l2.46-4.92a1.499 1.499 0 0 0-.068-1.418ZM10.625 20.75a1.125 1.125 0 1 0 0-2.25 1.125 1.125 0 0 0 0 2.25ZM18.121 20.75a1.125 1.125 0 1 0 0-2.25 1.125 1.125 0 0 0 0 2.25Z"
            fill="#fff" />
    </symbol>
    <symbol fill="none" viewBox="0 0 72 72" id="svg-signed" xmlns="http://www.w3.org/2000/svg">
        <rect x="12" y="10" width="35.657" height="52.114" rx="3" stroke="#7CB70B" stroke-width="2"
            stroke-miterlimit="10" stroke-linecap="round" stroke-linejoin="round" />
        <path
            d="M54.514 22.343a2.743 2.743 0 0 1 2.742-2.743v0A2.743 2.743 0 0 1 60 22.342v27.429l-2.742 4.114-2.743-4.114V22.343Z"
            stroke="#7CB70B" stroke-width="2" stroke-miterlimit="10" stroke-linecap="round" stroke-linejoin="round" />
        <circle cx="24.341" cy="49.772" r="4.114" stroke="#D3163C" stroke-width="2" stroke-miterlimit="10"
            stroke-linecap="round" stroke-linejoin="round" />
        <path d="M24.342 20.972h10.971" stroke="#7CB70B" stroke-width="2" stroke-miterlimit="10" stroke-linecap="round"
            stroke-linejoin="round" />
        <path d="M33.941 49.772h5.486" stroke="#D3163C" stroke-width="2" stroke-miterlimit="10" stroke-linecap="round"
            stroke-linejoin="round" />
        <path d="M20.227 26.457h19.2M20.227 31.943h19.2M60 46.343h-4.8" stroke="#7CB70B" stroke-width="2"
            stroke-miterlimit="10" stroke-linecap="round" stroke-linejoin="round" />
    </symbol>
    <symbol fill="none" viewBox="0 0 72 72" id="svg-sport" xmlns="http://www.w3.org/2000/svg">
        <path
            d="M56.01 54.989c6.219 0 11.26-5.041 11.26-11.26 0-6.219-5.041-11.26-11.26-11.26-6.219 0-11.26 5.041-11.26 11.26 0 6.218 5.041 11.26 11.26 11.26ZM15.76 54.989c6.219 0 11.26-5.041 11.26-11.26 0-6.219-5.041-11.26-11.26-11.26-6.219 0-11.26 5.041-11.26 11.26 0 6.218 5.041 11.26 11.26 11.26Z"
            stroke="#7CB70B" stroke-width="2" stroke-miterlimit="10" stroke-linecap="round" stroke-linejoin="round" />
        <path
            d="M25.75 26h19.49M51.172 26h.587c2.35 0 4.25-1.9 4.25-4.25s-1.9-4.25-4.25-4.25h-10.38l14.63 26.23M23.559 22.328l10.71 19.19M25.752 26l-9.99 17.73M20.148 21.969h8.39M35.97 46.521a2.79 2.79 0 1 0 0-5.58 2.79 2.79 0 0 0 0 5.58Z"
            stroke="#D3163C" stroke-width="2" stroke-miterlimit="10" stroke-linecap="round" stroke-linejoin="round" />
    </symbol>
    <symbol fill="none" viewBox="0 0 28 28" id="svg-study" xmlns="http://www.w3.org/2000/svg">
        <rect width="28" height="28" rx="4" fill="#F8BF14" />
        <path
            d="M8.752 14.885v3l5.25 2.865 5.25-2.865v-3l-5.25 2.865-5.25-2.865Zm5.25-7.635-8.25 4.5 8.25 4.5 6.75-3.682v5.182h1.5v-6l-8.25-4.5Z"
            fill="#fff" />
    </symbol>
    <symbol fill="none" viewBox="0 0 72 72" id="svg-sun" xmlns="http://www.w3.org/2000/svg">
        <path
            d="M44.706 48.237c1.258-1.747 2-3.907 2-6.226 0-5.906-4.789-10.695-10.695-10.695-5.906 0-10.695 4.79-10.695 10.695 0 2.32.742 4.48 2 6.226"
            stroke="#D3163C" stroke-width="2" stroke-miterlimit="10" stroke-linecap="round" stroke-linejoin="round" />
        <path
            d="M36.09 11.21v14.707M26.492 18.133l3.698 8.92M14.785 19.977l10.393 10.392M15.023 32.527l6.79 2.82M5.906 41.227h14.707M66.098 41.395H51.402M56.99 32.527l-6.736 2.967M57.344 20.09 46.941 30.482M44.782 20.328l-2.81 6.79"
            stroke="#7CB70B" stroke-width="2" stroke-miterlimit="10" stroke-linecap="round" stroke-linejoin="round" />
        <path d="M12.676 48.238H60.2M18.418 54.055h34.74M24.633 60.785H46.94" stroke="#D3163C" stroke-width="2"
            stroke-miterlimit="10" stroke-linecap="round" stroke-linejoin="round" />
    </symbol>
    <symbol fill="none" viewBox="0 0 28 28" id="svg-to-favorite" xmlns="http://www.w3.org/2000/svg">
        <path
            d="m13.474 7.224.526.518.526-.518c1.996-1.965 5.236-1.965 7.232 0a4.954 4.954 0 0 1 0 7.086l-7.583 7.465a.25.25 0 0 1-.35 0L6.242 14.31a4.954 4.954 0 0 1 0-7.086c1.996-1.965 5.236-1.965 7.232 0Z"
            stroke="#D3163C" stroke-width="1.5" />
    </symbol>
    <symbol fill="none" viewBox="0 0 28 28" id="svg-tooth" xmlns="http://www.w3.org/2000/svg">
        <rect width="28" height="28" rx="4" fill="#15D8A9" />
        <path
            d="M10.625 7.25C8.6 7.25 7.25 9.286 7.25 11.321c0 1.432.675 3.393 1.35 4.072.675.678 1.35 6.107 2.7 6.107 3.064 0 1.35-5.429 2.7-5.429s-.364 5.429 2.7 5.429c1.35 0 2.025-5.429 2.7-6.107.675-.679 1.35-2.64 1.35-4.072 0-2.035-1.35-4.071-3.375-4.071s-2.025.679-3.375.679-1.35-.679-3.375-.679Z"
            fill="#fff" />
    </symbol>
    <symbol fill="none" viewBox="0 0 113 113" id="svg-trade-in" xmlns="http://www.w3.org/2000/svg">
        <circle cx="56.98" cy="56.979" r="56" transform="rotate(28.613 56.98 56.979)" fill="url(#bfa)" />
        <path
            d="m29.697 62.528-3.381 1.236-.681-1.864 9.016-3.295.681 1.864-3.381 1.235 3.163 8.656-2.254.824-3.163-8.656Zm5.881-1.366 1.834-.67.428 1.172c.012-.186.053-.383.125-.59.068-.218.17-.42.307-.606.132-.197.29-.373.47-.53.192-.16.417-.289.678-.384.19-.07.354-.118.492-.146a1.17 1.17 0 0 1 .292-.038l.643 1.758a2.285 2.285 0 0 0-.43.037c-.164.015-.377.07-.638.166-.3.11-.537.253-.711.43-.174.177-.3.376-.378.598a1.631 1.631 0 0 0-.077.675c.02.243.075.484.163.724l1.697 4.644-1.984.725-2.91-7.965Zm11.002 5.213c-.43.157-.834.236-1.208.237a2.72 2.72 0 0 1-1.034-.219 2.501 2.501 0 0 1-.817-.604 2.945 2.945 0 0 1-.548-.94c-.586-1.604.073-2.753 1.977-3.449l2.374-.867-.137-.376c-.19-.521-.445-.843-.762-.965-.307-.127-.716-.096-1.227.09-.451.165-.748.364-.89.598a.882.882 0 0 0-.136.697l-1.984.725a2.61 2.61 0 0 1-.096-1.055c.05-.36.178-.695.381-1.008.21-.327.499-.625.865-.896.364-.28.81-.517 1.342-.711.51-.187.992-.3 1.443-.34.46-.044.882.007 1.264.151.389.13.734.362 1.038.694.303.332.555.774.756 1.325l1.115 3.05c.154.421.294.79.422 1.107.133.303.275.598.425.884l-1.849.675a6.54 6.54 0 0 1-.256-.468l-.192-.526c-.104.401-.337.804-.7 1.21-.353.401-.875.728-1.566.98Zm.056-1.758a2.96 2.96 0 0 0 .673-.349c.205-.154.374-.33.507-.525.129-.206.21-.435.243-.686a1.665 1.665 0 0 0-.103-.796l-.138-.376-1.999.73c-.38.14-.648.34-.802.6-.149.248-.168.521-.058.822.117.32.32.536.61.646.29.11.646.087 1.067-.066Zm9.204-1.626c-1.042.38-1.991.347-2.847-.101-.85-.462-1.526-1.379-2.028-2.751l-.11-.3c-.468-1.283-.52-2.372-.154-3.266.366-.895 1.065-1.53 2.097-1.908.54-.197 1.06-.251 1.56-.16.504.076.957.257 1.356.542l-1.334-3.651 1.983-.725 3.845 10.52-1.849.675-.428-1.172c-.069.433-.27.864-.601 1.292-.332.428-.829.763-1.49 1.005Zm-.15-1.854c.592-.216 1.006-.56 1.242-1.032.242-.486.234-1.085-.026-1.796l-.33-.902c-.238-.651-.606-1.068-1.104-1.25-.491-.194-1.022-.188-1.593.021-.541.198-.913.55-1.114 1.055-.205.495-.17 1.118.104 1.87l.11.3c.296.811.693 1.353 1.19 1.626.494.263 1.001.299 1.522.108Zm9.997-1.745a5.275 5.275 0 0 1-1.636.325 3.882 3.882 0 0 1-1.537-.29 3.863 3.863 0 0 1-1.323-.964c-.4-.444-.727-1.012-.98-1.703l-.11-.3c-.242-.662-.352-1.274-.331-1.839.021-.564.148-1.07.382-1.519.23-.459.546-.852.948-1.181a4.533 4.533 0 0 1 1.394-.8c1.253-.457 2.325-.474 3.218-.05.893.422 1.568 1.26 2.026 2.513l.307.841-5.635 2.06c.138.346.31.63.515.85.202.21.422.363.661.457.24.095.488.14.748.136.266-.018.52-.07.76-.159.51-.186.87-.402 1.075-.648a1.33 1.33 0 0 0 .314-.864l1.819-.665c.143.89-.024 1.661-.501 2.313-.478.65-1.182 1.147-2.114 1.487Zm-2.524-6.675c-.23.084-.45.199-.659.343-.198.14-.359.307-.481.5-.123.192-.2.419-.23.68-.029.26.008.548.112.862l3.712-1.356c-.131-.328-.287-.583-.468-.767a1.312 1.312 0 0 0-.583-.383 1.462 1.462 0 0 0-.67-.062c-.238.03-.483.092-.733.183Zm7.932-7.43 2.255-.824 3.844 10.52-2.254.824-3.845-10.52Zm5.444.907 1.833-.67.428 1.172c.059-.43.25-.857.571-1.282.332-.428.859-.773 1.58-1.037.972-.355 1.788-.358 2.45-.01.67.346 1.186 1.01 1.545 1.991l1.867 5.11-1.984.725-1.702-4.659c-.22-.601-.51-1.006-.87-1.215-.35-.213-.821-.211-1.412.005-.32.117-.573.266-.757.447-.184.18-.32.383-.408.608-.081.212-.117.44-.107.687.017.232.07.469.158.71l1.702 4.658-1.984.725-2.91-7.965Z"
            fill="#fff" />
        <defs>
            <linearGradient id="bfa" x1="93.595" y1="88.748" x2="16.212" y2="22.035" gradientUnits="userSpaceOnUse">
                <stop stop-color="#FFA800" />
                <stop offset=".328" stop-color="#F8BF14" />
                <stop offset=".786" stop-color="#FAD66B" />
                <stop offset=".842" stop-color="#FFA901" />
                <stop offset=".908" stop-color="#FFA901" />
                <stop offset="1" stop-color="#F9C016" />
            </linearGradient>
        </defs>
    </symbol>
    <symbol fill="none" viewBox="0 0 28 28" id="svg-tree" xmlns="http://www.w3.org/2000/svg">
        <rect width="28" height="28" rx="4" fill="#026701" />
        <path
            d="M13.248 20.75v-3.195a3.284 3.284 0 0 1-1.125.195 3.36 3.36 0 0 1-3.375-3.375 3.31 3.31 0 0 1 1.02-2.422 3.385 3.385 0 0 1-.27-1.328 3.36 3.36 0 0 1 3.375-3.375c1.17 0 2.205.6 2.813 1.5h.187a4.125 4.125 0 1 1-1.125 8.093v3.907h-1.5Z"
            fill="#fff" />
    </symbol>
    <symbol fill="none" viewBox="0 0 28 28" id="svg-video-review" xmlns="http://www.w3.org/2000/svg">
        <path
            d="M14.113 7c2.005 0 3.63 1.567 3.63 3.5v7c0 1.933-1.625 3.5-3.63 3.5H6.63C4.625 21 3 19.433 3 17.5v-7C3 8.567 4.625 7 6.629 7h7.484Zm3.63 9.033v-4.066l4.96-2.874c.868-.792 2.297-.198 2.297.954v7.906c0 1.152-1.429 1.746-2.296.954l-4.962-2.874Z"
            stroke="#D3163C" stroke-width="1.5" stroke-linecap="round" stroke-linejoin="round" />
    </symbol>
    <symbol fill="none" viewBox="0 0 72 72" id="svg-voda" xmlns="http://www.w3.org/2000/svg">
        <path d="M9 55.63c8.747-3.498 18.34-3.498 28.688-.05 2.5.834 4.938 1.444 7.312 1.83" stroke="#7CB70B"
            stroke-width="2" stroke-linecap="round" />
        <path d="M9 49.63c8.747-3.5 18.34-3.5 28.688-.05 9.29 3.096 17.695 3.096 25.312.05" stroke="#D3163C"
            stroke-width="2" stroke-linecap="round" />
        <path
            d="M9 43.63a36.632 36.632 0 0 1 12-2.589m42 2.59c-7.617 3.046-16.022 3.046-25.312-.05a55.011 55.011 0 0 0-4.209-1.223M20.996 33.5h19.5M20.996 41V24.108c0-3.926 3.022-10.108 6.75-10.108s6.75 3.182 6.75 7.108"
            stroke="#7CB70B" stroke-width="2" stroke-linecap="round" />
        <path d="M53.996 20.75a6.75 6.75 0 0 0-13.5 0V44" stroke="#7CB70B" stroke-width="2" stroke-linecap="round" />
    </symbol>
    <symbol viewBox="0 0 45 44" fill="none" id="svg-square-price" xmlns="http://www.w3.org/2000/svg">
        <rect x="3.84375" y="3" width="26" height="36" rx="3" stroke="#7CB70B" stroke-width="2" stroke-miterlimit="10" stroke-linecap="round" stroke-linejoin="round"/>
        <path d="M34.8438 11.6309C34.8438 10.5263 35.7392 9.63086 36.8438 9.63086V9.63086C37.9483 9.63086 38.8438 10.5263 38.8438 11.6309V30.473L36.8438 33.3151L34.8438 30.473V11.6309Z" stroke="#7CB70B" stroke-width="2" stroke-miterlimit="10" stroke-linecap="round" stroke-linejoin="round"/>
        <ellipse cx="12.8438" cy="30.473" rx="3" ry="2.84211" stroke="#D3163C" stroke-width="2" stroke-miterlimit="10" stroke-linecap="round" stroke-linejoin="round"/>
        <path d="M12.8438 10.5781H20.8438" stroke="#7CB70B" stroke-width="2" stroke-miterlimit="10" stroke-linecap="round" stroke-linejoin="round"/>
        <path d="M19.8438 30.4746L23.8438 30.4746" stroke="#D3163C" stroke-width="2" stroke-miterlimit="10" stroke-linecap="round" stroke-linejoin="round"/>
        <path d="M9.84375 14.3691H23.8438" stroke="#7CB70B" stroke-width="2" stroke-miterlimit="10" stroke-linecap="round" stroke-linejoin="round"/>
        <path d="M9.84375 18.1582H23.8438" stroke="#7CB70B" stroke-width="2" stroke-miterlimit="10" stroke-linecap="round" stroke-linejoin="round"/>
        <path d="M38.8438 28.1055H35.3438" stroke="#7CB70B" stroke-width="2" stroke-miterlimit="10" stroke-linecap="round" stroke-linejoin="round"/>
    </symbol>
    <symbol viewBox="0 0 45 44" fill="none" id="svg-square-house" xmlns="http://www.w3.org/2000/svg">
        <path d="M3.6875 19.4286L22.6875 4L41.6875 19.4286M27.8693 40V26.2857H17.5057V40M8.86932 40V15M36.5057 40V15" stroke="#7CB70B" stroke-width="2"/>
        <ellipse cx="22.6875" cy="17.8421" rx="3" ry="2.84211" stroke="#D3163C" stroke-width="2" stroke-miterlimit="10" stroke-linecap="round" stroke-linejoin="round"/>
        <path d="M3.6875 40H41.6875" stroke="#7CB70B" stroke-width="2"/>
    </symbol>

</svg>