<svg width="34" height="34" viewBox="0 0 34 34" fill="none" xmlns="http://www.w3.org/2000/svg">
<g filter="url(#filter0_d_659_104970)">
<rect x="3" y="2" width="28" height="28" rx="4" fill="white"/>
<path d="M22.1429 12.9231H9.57143C9.41988 12.9231 9.27453 12.9879 9.16737 13.1033C9.0602 13.2187 9 13.3753 9 13.5385V17.2308C9.00171 18.2785 9.20976 19.3138 9.61041 20.2685C10.0111 21.2232 10.5952 22.0756 11.3243 22.7692H9.57143C9.41988 22.7692 9.27453 22.8341 9.16737 22.9495C9.0602 23.0649 9 23.2214 9 23.3846C9 23.5478 9.0602 23.7044 9.16737 23.8198C9.27453 23.9352 9.41988 24 9.57143 24H22.1429C22.2944 24 22.4398 23.9352 22.5469 23.8198C22.6541 23.7044 22.7143 23.5478 22.7143 23.3846C22.7143 23.2214 22.6541 23.0649 22.5469 22.9495C22.4398 22.8341 22.2944 22.7692 22.1429 22.7692H20.39C21.2652 21.9339 21.9288 20.8727 22.3186 19.6854C23.0444 19.6372 23.7258 19.2928 24.224 18.7224C24.7222 18.152 24.9997 17.3985 25 16.6154V16C25 15.1839 24.699 14.4013 24.1632 13.8243C23.6273 13.2473 22.9006 12.9231 22.1429 12.9231ZM23.8571 16.6154C23.8569 17.0135 23.7371 17.4009 23.5157 17.7197C23.2943 18.0386 22.9831 18.2718 22.6286 18.3846C22.6852 18.003 22.7139 17.6172 22.7143 17.2308V14.26C23.0484 14.3872 23.3377 14.6229 23.5424 14.9345C23.7471 15.2461 23.857 15.6183 23.8571 16V16.6154ZM15.2857 11.0769V8.61538C15.2857 8.45217 15.3459 8.29565 15.4531 8.18024C15.5602 8.06483 15.7056 8 15.8571 8C16.0087 8 16.154 8.06483 16.2612 8.18024C16.3684 8.29565 16.4286 8.45217 16.4286 8.61538V11.0769C16.4286 11.2401 16.3684 11.3967 16.2612 11.5121C16.154 11.6275 16.0087 11.6923 15.8571 11.6923C15.7056 11.6923 15.5602 11.6275 15.4531 11.5121C15.3459 11.3967 15.2857 11.2401 15.2857 11.0769ZM17.5714 11.0769V8.61538C17.5714 8.45217 17.6316 8.29565 17.7388 8.18024C17.846 8.06483 17.9913 8 18.1429 8C18.2944 8 18.4398 8.06483 18.5469 8.18024C18.6541 8.29565 18.7143 8.45217 18.7143 8.61538V11.0769C18.7143 11.2401 18.6541 11.3967 18.5469 11.5121C18.4398 11.6275 18.2944 11.6923 18.1429 11.6923C17.9913 11.6923 17.846 11.6275 17.7388 11.5121C17.6316 11.3967 17.5714 11.2401 17.5714 11.0769ZM13 11.0769V8.61538C13 8.45217 13.0602 8.29565 13.1674 8.18024C13.2745 8.06483 13.4199 8 13.5714 8C13.723 8 13.8683 8.06483 13.9755 8.18024C14.0827 8.29565 14.1429 8.45217 14.1429 8.61538V11.0769C14.1429 11.2401 14.0827 11.3967 13.9755 11.5121C13.8683 11.6275 13.723 11.6923 13.5714 11.6923C13.4199 11.6923 13.2745 11.6275 13.1674 11.5121C13.0602 11.3967 13 11.2401 13 11.0769Z" fill="#D3163C"/>
</g>
<defs>
<filter id="filter0_d_659_104970" x="0" y="0" width="34" height="34" filterUnits="userSpaceOnUse" color-interpolation-filters="sRGB">
<feFlood flood-opacity="0" result="BackgroundImageFix"/>
<feColorMatrix in="SourceAlpha" type="matrix" values="0 0 0 0 0 0 0 0 0 0 0 0 0 0 0 0 0 0 127 0" result="hardAlpha"/>
<feOffset dy="1"/>
<feGaussianBlur stdDeviation="1.5"/>
<feComposite in2="hardAlpha" operator="out"/>
<feColorMatrix type="matrix" values="0 0 0 0 0 0 0 0 0 0 0 0 0 0 0 0 0 0 0.14 0"/>
<feBlend mode="normal" in2="BackgroundImageFix" result="effect1_dropShadow_659_104970"/>
<feBlend mode="normal" in="SourceGraphic" in2="effect1_dropShadow_659_104970" result="shape"/>
</filter>
</defs>
</svg>
