<svg width="34" height="34" viewBox="0 0 34 34" fill="none" xmlns="http://www.w3.org/2000/svg">
<g filter="url(#filter0_d_659_104949)">
<rect x="3" y="2" width="28" height="28" rx="4" fill="white"/>
<path d="M17.5002 8.68758C17.5002 8.24001 17.3264 7.81076 17.0171 7.49428C16.7079 7.1778 16.2884 7 15.851 7C15.4136 7 14.9941 7.1778 14.6848 7.49428C14.3756 7.81076 14.2018 8.24001 14.2018 8.68758C14.2018 9.13516 14.3756 9.5644 14.6848 9.88088C14.9941 10.1974 15.4136 10.3752 15.851 10.3752C16.2884 10.3752 16.7079 10.1974 17.0171 9.88088C17.3264 9.5644 17.5002 9.13516 17.5002 8.68758ZM18.6512 14.007C18.6855 14.021 18.7164 14.0351 18.7508 14.0492L19.0257 14.1722C19.5891 14.4289 20.022 14.9176 20.2179 15.5153L20.3072 15.7895C20.4996 16.3801 21.1215 16.6966 21.6987 16.4997C22.2759 16.3028 22.5851 15.6664 22.3927 15.0758L22.3034 14.8016C21.9117 13.6027 21.0459 12.6253 19.919 12.112L19.6441 11.9889C18.9295 11.6655 18.1564 11.4967 17.373 11.4967C15.8407 11.4967 14.4595 12.4389 13.872 13.8839L13.3429 15.1813L12.6076 15.5574C12.0648 15.8352 11.8449 16.5102 12.1163 17.0657C12.3877 17.6212 13.0474 17.8462 13.5902 17.5685L14.511 17.1009C14.8649 16.9181 15.1432 16.6157 15.2944 16.2395L15.6242 15.4309L16.2873 17.7337L14.5866 19.6323C14.4011 19.8397 14.2705 20.0893 14.2018 20.3635L13.4116 23.6016C13.2638 24.2028 13.6212 24.8145 14.2121 24.9657C14.8031 25.1169 15.3975 24.7513 15.5452 24.1465L16.3011 21.0491L18.7302 18.3384C19.2387 17.7724 19.4276 16.9813 19.2352 16.2395L18.6546 14.007H18.6512ZM20.637 20.9929L19.7781 18.799C19.7059 18.9045 19.6235 19.0029 19.5376 19.1014L18.1392 20.6624L18.6374 21.9351C18.7199 22.1461 18.8436 22.3394 19.0016 22.5011L21.1215 24.6704C21.551 25.1099 22.2484 25.1099 22.6779 24.6704C23.1074 24.2309 23.1074 23.5172 22.6779 23.0777L20.637 20.9929Z" fill="#34454F"/>
</g>
<defs>
<filter id="filter0_d_659_104949" x="0" y="0" width="34" height="34" filterUnits="userSpaceOnUse" color-interpolation-filters="sRGB">
<feFlood flood-opacity="0" result="BackgroundImageFix"/>
<feColorMatrix in="SourceAlpha" type="matrix" values="0 0 0 0 0 0 0 0 0 0 0 0 0 0 0 0 0 0 127 0" result="hardAlpha"/>
<feOffset dy="1"/>
<feGaussianBlur stdDeviation="1.5"/>
<feComposite in2="hardAlpha" operator="out"/>
<feColorMatrix type="matrix" values="0 0 0 0 0 0 0 0 0 0 0 0 0 0 0 0 0 0 0.14 0"/>
<feBlend mode="normal" in2="BackgroundImageFix" result="effect1_dropShadow_659_104949"/>
<feBlend mode="normal" in="SourceGraphic" in2="effect1_dropShadow_659_104949" result="shape"/>
</filter>
</defs>
</svg>
