<svg width="34" height="34" viewBox="0 0 34 34" fill="none" xmlns="http://www.w3.org/2000/svg">
<g filter="url(#filter0_d_659_105018)">
<rect x="3" y="2" width="28" height="28" rx="4" fill="white" shape-rendering="crispEdges"/>
<path fill-rule="evenodd" clip-rule="evenodd" d="M17.8987 12.6352C19.3435 12.3669 20.8059 12.2316 22.2709 12.2307C21.8295 11.9539 21.4073 11.6523 21.4073 11.6523V10.5878C21.4074 10.3656 21.3291 10.1521 21.1893 9.99297C21.0495 9.83386 20.8591 9.74175 20.6589 9.73619C20.5594 9.73711 20.461 9.7599 20.3695 9.80333C20.278 9.84676 20.1952 9.90993 20.1258 9.98916C20.0565 10.0684 20.0021 10.1621 19.9656 10.2648C19.9292 10.3676 19.9116 10.4774 19.9137 10.5878V10.6907L17.3806 9.05484C17.311 9.01872 17.2351 9 17.1583 9C17.0815 9 17.0056 9.01872 16.936 9.05484C16.7665 9.17903 15.8805 9.7362 14.6523 10.5417C15.0194 11.379 15.3399 12.2405 15.6119 13.1213C16.2803 12.9474 17.0511 12.7665 17.8955 12.6317" fill="#654A95"/>
<path fill-rule="evenodd" clip-rule="evenodd" d="M13.977 10.9707L10.8682 12.9933C10.7586 13.0783 10.6673 13.1892 10.6009 13.3181C10.5346 13.4469 10.4947 13.5904 10.4844 13.7384C10.526 14.7426 11.4631 14.6114 11.7349 14.4872C12.7052 14.0295 13.7048 13.6523 14.7254 13.3588C14.4951 12.5888 14.2425 11.8046 13.977 10.9707Z" fill="#0F8BCC"/>
<path fill-rule="evenodd" clip-rule="evenodd" d="M11.7102 15.4025V18.6315C13.073 18.2453 14.4648 17.9983 15.8681 17.8935C15.657 16.8893 15.3723 15.697 15.0077 14.377C14.013 14.6786 12.916 14.9944 11.707 15.4025" fill="#E94F16"/>
<path fill-rule="evenodd" clip-rule="evenodd" d="M22.9753 12.6989C21.8207 12.7805 19.6139 13.1034 15.9102 14.1182C16.2447 15.3358 16.5202 16.5724 16.7353 17.8228C17.1799 17.8015 17.6404 17.7802 18.117 17.7802C19.579 17.7561 21.0408 17.8415 22.4924 18.0357V14.4624L22.9753 14.4837C23.075 14.4823 23.1734 14.4591 23.265 14.4153C23.3565 14.3715 23.4393 14.3079 23.5086 14.2284C23.5779 14.1489 23.6323 14.055 23.6687 13.9521C23.705 13.8491 23.7227 13.7392 23.7205 13.6286C23.7279 13.3967 23.6547 13.1705 23.516 12.9968C23.3773 12.8231 23.1837 12.7152 22.9753 12.6953" fill="#7CB70B"/>
<path fill-rule="evenodd" clip-rule="evenodd" d="M11.7148 19.4657V20.3599C11.7198 20.5143 11.7786 20.6605 11.8788 20.7678C11.9791 20.875 12.1129 20.9348 12.2521 20.9347H16.4772C16.4164 20.5798 16.2981 19.8702 16.087 18.9121C14.0336 19.1037 12.3705 19.3592 11.7148 19.4657Z" fill="#009247"/>
<path fill-rule="evenodd" clip-rule="evenodd" d="M16.8945 18.8367C16.9937 19.518 17.0704 20.2135 17.1248 20.9409H21.9831C22.12 20.94 22.251 20.879 22.3474 20.7713C22.4439 20.6636 22.4981 20.5179 22.4981 20.3661V18.7054C20.6296 18.6215 18.7582 18.6654 16.8945 18.8367Z" fill="#9C9E9E"/>
<path fill-rule="evenodd" clip-rule="evenodd" d="M5.78987 22.5765C5.78987 22.5765 10.5874 20.4084 17.7198 20.5539C22.6325 20.6426 24.9161 21.6822 25.0536 21.7248C25.108 21.7709 25.2647 22.0406 24.8777 22.0796C24.8041 22.0796 19.9298 21.7248 15.1323 21.9519C11.9978 22.1209 8.87314 22.4679 5.77066 22.9916C5.53718 23.059 5.36768 22.7823 5.78987 22.5907" fill="#009247"/>
</g>
<defs>
<filter id="filter0_d_659_105018" x="0" y="0" width="34" height="34" filterUnits="userSpaceOnUse" color-interpolation-filters="sRGB">
<feFlood flood-opacity="0" result="BackgroundImageFix"/>
<feColorMatrix in="SourceAlpha" type="matrix" values="0 0 0 0 0 0 0 0 0 0 0 0 0 0 0 0 0 0 127 0" result="hardAlpha"/>
<feOffset dy="1"/>
<feGaussianBlur stdDeviation="1.5"/>
<feComposite in2="hardAlpha" operator="out"/>
<feColorMatrix type="matrix" values="0 0 0 0 0 0 0 0 0 0 0 0 0 0 0 0 0 0 0.14 0"/>
<feBlend mode="normal" in2="BackgroundImageFix" result="effect1_dropShadow_659_105018"/>
<feBlend mode="normal" in="SourceGraphic" in2="effect1_dropShadow_659_105018" result="shape"/>
</filter>
</defs>
</svg>
