<svg width="34" height="34" viewBox="0 0 34 34" fill="none" xmlns="http://www.w3.org/2000/svg">
<g filter="url(#filter0_d_659_105039)">
<rect x="3" y="2" width="28" height="28" rx="4" fill="white"/>
<path d="M16.9944 14.1902C14.2158 14.1902 13.6601 16.708 13.6601 18.0221C12.9824 18.2495 12.3448 18.5811 11.7706 19.005C11.3054 19.356 10.9979 19.8749 10.9147 20.4494C10.8315 21.0239 10.9793 21.6078 11.326 22.0749C11.69 22.5293 12.2151 22.8282 12.7937 22.9103C13.3723 22.9924 13.9606 22.8516 14.4381 22.5166C15.1916 22.0085 16.0839 21.7426 16.9944 21.7547C17.905 21.7426 18.7973 22.0085 19.5508 22.5166C20.0087 22.8803 20.5926 23.0495 21.1754 22.9874C21.7583 22.9254 22.2929 22.6371 22.6628 22.1854C22.845 21.9718 22.983 21.7247 23.0689 21.4581C23.1549 21.1915 23.1871 20.9107 23.1638 20.6318C23.1405 20.3528 23.062 20.0812 22.933 19.8323C22.8039 19.5835 22.6268 19.3624 22.4117 19.1817C22.385 19.1586 22.3576 19.1365 22.3294 19.1154L22.2183 19.005C21.6255 18.6113 20.9921 18.2819 20.3288 18.0221C20.3288 16.7191 19.7731 14.1902 16.9944 14.1902ZM10.9704 12.3129C10.5765 12.5087 10.271 12.8444 10.1145 13.2535C9.95807 13.6626 9.96205 14.1152 10.1257 14.5215C10.1598 14.961 10.3667 15.3696 10.7015 15.6589C11.0363 15.9481 11.4723 16.0949 11.9151 16.0675C12.309 15.8717 12.6145 15.536 12.771 15.1269C12.9274 14.7178 12.9234 14.2652 12.7598 13.8589C12.7256 13.4194 12.5188 13.0108 12.184 12.7216C11.8492 12.4323 11.4132 12.2855 10.9704 12.3129ZM23.0296 12.3129C23.4235 12.5087 23.729 12.8444 23.8855 13.2535C24.0419 13.6626 24.038 14.1152 23.8743 14.5215C23.8402 14.961 23.6333 15.3696 23.2985 15.6589C22.9637 15.9481 22.5277 16.0949 22.0849 16.0675C21.691 15.8717 21.3855 15.536 21.229 15.1269C21.0726 14.7178 21.0766 14.2652 21.2402 13.8589C21.2744 13.4194 21.4812 13.0108 21.816 12.7216C22.1508 12.4323 22.5868 12.2855 23.0296 12.3129ZM14.3047 9C13.5489 9.09939 13.1933 10.038 13.46 11.065C13.5194 11.5073 13.7293 11.9161 14.0548 12.2234C14.3803 12.5308 14.8019 12.7182 15.2495 12.7546C16.0053 12.6552 16.3609 11.7166 16.0942 10.6896C16.0348 10.2473 15.8249 9.83857 15.4994 9.53122C15.1739 9.22387 14.7523 9.03641 14.3047 9ZM19.6953 9C20.4511 9.09939 20.8067 10.038 20.54 11.065C20.4801 11.509 20.2686 11.9191 19.9409 12.2267C19.6131 12.5342 19.189 12.7206 18.7394 12.7546C17.9836 12.6663 17.628 11.7166 17.8947 10.6896C17.9544 10.2455 18.1658 9.83532 18.4936 9.52771C18.8214 9.22011 19.2457 9.0338 19.6953 9Z" fill="#7CB70B"/>
</g>
<defs>
<filter id="filter0_d_659_105039" x="0" y="0" width="34" height="34" filterUnits="userSpaceOnUse" color-interpolation-filters="sRGB">
<feFlood flood-opacity="0" result="BackgroundImageFix"/>
<feColorMatrix in="SourceAlpha" type="matrix" values="0 0 0 0 0 0 0 0 0 0 0 0 0 0 0 0 0 0 127 0" result="hardAlpha"/>
<feOffset dy="1"/>
<feGaussianBlur stdDeviation="1.5"/>
<feComposite in2="hardAlpha" operator="out"/>
<feColorMatrix type="matrix" values="0 0 0 0 0 0 0 0 0 0 0 0 0 0 0 0 0 0 0.14 0"/>
<feBlend mode="normal" in2="BackgroundImageFix" result="effect1_dropShadow_659_105039"/>
<feBlend mode="normal" in="SourceGraphic" in2="effect1_dropShadow_659_105039" result="shape"/>
</filter>
</defs>
</svg>
