<svg width="28" height="28" viewBox="0 0 28 28" fill="none" xmlns="http://www.w3.org/2000/svg">
<rect x="0.5" y="0.5" width="27" height="27" rx="13.5" fill="white"/>
<path d="M9.83801 19.154C9.25934 19.154 8.76001 19.0793 8.34001 18.93C7.92934 18.7807 7.58867 18.58 7.31801 18.328C7.04734 18.076 6.84201 17.7913 6.70201 17.474C6.57134 17.1473 6.49667 16.816 6.47801 16.48H8.15801C8.20467 16.816 8.36801 17.1007 8.64801 17.334C8.93734 17.558 9.33401 17.67 9.83801 17.67C10.4073 17.67 10.8507 17.502 11.168 17.166C11.4947 16.83 11.658 16.34 11.658 15.696C11.658 15.332 11.602 15.0287 11.49 14.786C11.3873 14.534 11.252 14.3333 11.084 14.184C10.916 14.0253 10.72 13.9133 10.496 13.848C10.2813 13.7733 10.062 13.736 9.83801 13.736C9.43667 13.736 9.10067 13.806 8.83001 13.946C8.56867 14.086 8.35867 14.2773 8.20001 14.52H6.68801V9.2H12.778V10.656H8.34001V12.938C8.55467 12.7327 8.80667 12.5693 9.09601 12.448C9.38534 12.3173 9.74934 12.252 10.188 12.252C10.664 12.252 11.0933 12.3267 11.476 12.476C11.868 12.6253 12.1993 12.8447 12.47 13.134C12.75 13.4233 12.9647 13.7827 13.114 14.212C13.2633 14.632 13.338 15.122 13.338 15.682C13.338 16.214 13.254 16.6947 13.086 17.124C12.918 17.5533 12.68 17.9173 12.372 18.216C12.064 18.5147 11.6953 18.748 11.266 18.916C10.8367 19.0747 10.3607 19.154 9.83801 19.154ZM18.0258 19.154C17.4565 19.154 16.9525 19.084 16.5138 18.944C16.0845 18.7947 15.7205 18.5893 15.4218 18.328C15.1325 18.0667 14.9085 17.7587 14.7498 17.404C14.6005 17.04 14.5258 16.6387 14.5258 16.2H16.2058C16.2058 16.6667 16.3505 17.0307 16.6398 17.292C16.9385 17.544 17.4005 17.67 18.0258 17.67C18.6325 17.67 19.0852 17.544 19.3838 17.292C19.6918 17.0307 19.8458 16.6667 19.8458 16.2C19.8458 15.724 19.7058 15.3507 19.4258 15.08C19.1458 14.8 18.6792 14.66 18.0258 14.66H17.0458V13.26H18.0258C18.5858 13.26 19.0058 13.1433 19.2858 12.91C19.5658 12.6673 19.7058 12.322 19.7058 11.874C19.7058 11.426 19.5705 11.09 19.2998 10.866C19.0385 10.642 18.6138 10.53 18.0258 10.53C17.4472 10.53 17.0178 10.6467 16.7378 10.88C16.4672 11.1133 16.3318 11.44 16.3318 11.86H14.6518C14.6518 11.0107 14.9365 10.3293 15.5058 9.816C16.0845 9.30267 16.9245 9.046 18.0258 9.046C18.5765 9.046 19.0618 9.116 19.4818 9.256C19.9018 9.396 20.2518 9.58733 20.5318 9.83C20.8118 10.0633 21.0218 10.3387 21.1618 10.656C21.3112 10.9733 21.3858 11.314 21.3858 11.678C21.3858 12.238 21.2365 12.7093 20.9378 13.092C20.6392 13.4653 20.2285 13.7313 19.7058 13.89C20.2752 14.058 20.7185 14.3427 21.0358 14.744C21.3625 15.136 21.5258 15.668 21.5258 16.34C21.5258 16.732 21.4512 17.1007 21.3018 17.446C21.1525 17.7913 20.9285 18.09 20.6298 18.342C20.3405 18.594 19.9765 18.7947 19.5378 18.944C19.0992 19.084 18.5952 19.154 18.0258 19.154Z" fill="#34454F"/>
<rect x="0.5" y="0.5" width="27" height="27" rx="13.5" stroke="#7CB70B"/>
</svg>
