<svg width="34" height="34" viewBox="0 0 34 34" fill="none" xmlns="http://www.w3.org/2000/svg">
<g filter="url(#filter0_d_659_104998)">
<rect x="3" y="2" width="28" height="28" rx="4" fill="white"/>
<path fill-rule="evenodd" clip-rule="evenodd" d="M17.1145 25.1895C14.7336 25.1895 12.7812 25.3221 12.7812 25.5116C12.7812 25.7011 14.7376 25.7996 17.1145 25.7996C19.4914 25.7996 21.4478 25.667 21.4478 25.5116C21.4478 25.3562 19.5232 25.1895 17.1145 25.1895Z" fill="#34454F"/>
<path fill-rule="evenodd" clip-rule="evenodd" d="M16.238 12.0215C15.8728 12.0324 15.5264 12.1791 15.2729 12.4304C15.0193 12.6818 14.8786 13.0178 14.8809 13.3668C14.8709 13.5442 14.8988 13.7216 14.963 13.8883C15.0272 14.0551 15.1262 14.2075 15.2542 14.3364C15.3821 14.4653 15.5362 14.568 15.7071 14.6382C15.8779 14.7084 16.062 14.7446 16.2479 14.7446C16.4339 14.7446 16.618 14.7084 16.7888 14.6382C16.9597 14.568 17.1138 14.4653 17.2417 14.3364C17.3696 14.2075 17.4687 14.0551 17.5329 13.8883C17.597 13.7216 17.625 13.5442 17.615 13.3668C17.6171 13.0146 17.4737 12.6758 17.2159 12.4239C16.9581 12.1721 16.6068 12.0275 16.238 12.0215Z" fill="#F33913"/>
<path fill-rule="evenodd" clip-rule="evenodd" d="M10.9685 13.2937C10.5839 13.2832 10.2048 13.3824 9.87973 13.5789C9.55462 13.7753 9.2983 14.0599 9.14359 14.3963C8.98888 14.7327 8.94286 15.1055 9.01135 15.467C9.07985 15.8285 9.25973 16.1623 9.52806 16.4256C9.79638 16.6889 10.1409 16.8697 10.5175 16.9449C10.8941 17.0201 11.2855 16.9863 11.6418 16.8477C11.9981 16.7091 12.303 16.4722 12.5174 16.1671C12.7319 15.8621 12.8461 15.5028 12.8454 15.1354C12.8518 14.6536 12.6578 14.1891 12.3059 13.8439C11.954 13.4986 11.473 13.3007 10.9685 13.2937Z" fill="#7CB70B"/>
<path fill-rule="evenodd" clip-rule="evenodd" d="M22.5432 7.47563C21.9578 7.46055 21.3811 7.61268 20.8869 7.9126C20.3926 8.21252 20.0034 8.64653 19.7691 9.15903C19.5348 9.67152 19.466 10.2392 19.5717 10.7892C19.6773 11.3393 19.9525 11.8467 20.362 12.2464C20.7715 12.6461 21.2966 12.92 21.8701 13.0329C22.4436 13.1458 23.0393 13.0927 23.581 12.8803C24.1227 12.6678 24.5856 12.3057 24.9104 11.8404C25.2352 11.3751 25.4072 10.8277 25.4042 10.2685C25.4116 9.53611 25.1146 8.83086 24.5783 8.30729C24.0419 7.78372 23.3101 7.48463 22.5432 7.47563Z" fill="#7CB70B"/>
<path fill-rule="evenodd" clip-rule="evenodd" d="M13.5695 7.31743C13.0958 7.30385 12.6287 7.42552 12.2278 7.66697C11.827 7.90842 11.5108 8.25865 11.3196 8.67275C11.1284 9.08685 11.0709 9.54597 11.1546 9.99143C11.2382 10.4369 11.4591 10.8484 11.7891 11.1733C12.119 11.4981 12.543 11.7215 13.0067 11.8149C13.4704 11.9083 13.9527 11.8675 14.3919 11.6976C14.8312 11.5277 15.2073 11.2365 15.4722 10.8612C15.7371 10.486 15.8788 10.0438 15.879 9.59119C15.8864 8.99776 15.6477 8.42557 15.2151 7.99958C14.7824 7.57359 14.1909 7.3284 13.5695 7.31743Z" fill="#7CB70B"/>
<path fill-rule="evenodd" clip-rule="evenodd" d="M17.7601 6.19922C17.5092 6.20119 17.2611 6.25065 17.0303 6.34466C16.7994 6.43867 16.5903 6.57535 16.4151 6.74693C16.2398 6.91852 16.1019 7.12158 16.0092 7.34433C15.9166 7.56709 15.8711 7.80515 15.8753 8.0448C15.8854 8.39765 16.0042 8.7398 16.2168 9.02856C16.4293 9.31733 16.7263 9.53988 17.0705 9.66843C17.4147 9.79697 17.791 9.82579 18.1523 9.75132C18.5136 9.67686 18.8439 9.50246 19.102 9.24977C19.36 8.99709 19.5344 8.67738 19.6034 8.33059C19.6723 7.98381 19.6327 7.62527 19.4896 7.29983C19.3464 6.9744 19.1061 6.69648 18.7985 6.50074C18.4909 6.305 18.1298 6.2001 17.7601 6.19922Z" fill="#7CB70B"/>
<path fill-rule="evenodd" clip-rule="evenodd" d="M10.4019 11.2057C10.214 11.1989 10.0283 11.246 9.8688 11.341C9.70925 11.436 9.58315 11.5744 9.50681 11.7385C9.43047 11.9025 9.40737 12.0847 9.4405 12.2615C9.47362 12.4382 9.56147 12.6014 9.69267 12.73C9.82387 12.8586 9.9924 12.9466 10.1765 12.9828C10.3607 13.0191 10.552 13.0018 10.7257 12.9332C10.8994 12.8645 11.0476 12.7477 11.1512 12.5979C11.2547 12.448 11.3089 12.272 11.3066 12.0924C11.3067 11.8611 11.2121 11.639 11.0431 11.4733C10.8741 11.3076 10.644 11.2117 10.4019 11.2057Z" fill="#7CB70B"/>
<path fill-rule="evenodd" clip-rule="evenodd" d="M23.9963 13.2017C23.8002 13.1957 23.6066 13.2455 23.4403 13.345C23.2739 13.4444 23.1424 13.589 23.0624 13.7601C22.9824 13.9312 22.9576 14.1212 22.9911 14.3059C23.0246 14.4905 23.1149 14.6614 23.2506 14.7969C23.3862 14.9323 23.561 15.0262 23.7526 15.0664C23.9443 15.1066 24.1442 15.0914 24.3268 15.0227C24.5094 14.954 24.6664 14.8349 24.7779 14.6807C24.8893 14.5264 24.9502 14.3439 24.9526 14.1566C24.958 13.9089 24.8603 13.6694 24.681 13.4904C24.5018 13.3114 24.2556 13.2076 23.9963 13.2017Z" fill="#7CB70B"/>
<path fill-rule="evenodd" clip-rule="evenodd" d="M22.2807 14.8626C21.9514 14.8498 21.6256 14.9312 21.345 15.0963C21.0645 15.2615 20.8419 15.5029 20.706 15.7896C20.57 16.0763 20.5268 16.3953 20.5819 16.7056C20.6369 17.016 20.7878 17.3035 21.0151 17.5315C21.2424 17.7594 21.5357 17.9172 21.8576 17.9849C22.1795 18.0526 22.5152 18.0269 22.8217 17.9112C23.1282 17.7954 23.3915 17.595 23.5779 17.3354C23.7644 17.0758 23.8654 16.769 23.868 16.4543C23.8765 16.0427 23.7146 15.6446 23.4173 15.3465C23.1201 15.0484 22.7116 14.8745 22.2807 14.8626Z" fill="#7CB70B"/>
<path fill-rule="evenodd" clip-rule="evenodd" d="M17.9953 14.3441C17.7598 14.3389 17.528 14.4005 17.3291 14.5212C17.1303 14.6419 16.9735 14.8163 16.8785 15.0222C16.7834 15.2281 16.7545 15.4562 16.7954 15.6778C16.8362 15.8994 16.945 16.1045 17.108 16.267C17.2709 16.4295 17.4807 16.5421 17.7107 16.5907C17.9407 16.6393 18.1807 16.6216 18.4002 16.5399C18.6197 16.4582 18.8089 16.3161 18.9438 16.1316C19.0787 15.9472 19.1532 15.7286 19.158 15.5037C19.1644 15.2028 19.0456 14.9118 18.8277 14.6944C18.6097 14.4771 18.3104 14.351 17.9953 14.3441Z" fill="#34454F"/>
<path fill-rule="evenodd" clip-rule="evenodd" d="M17.4509 19.4123C17.1136 18.0215 15.5899 16.9528 14.8518 15.8841C14.1137 14.8155 14.6891 14.7018 14.9272 14.861C15.3281 15.3387 15.7658 15.7871 16.2367 16.2025C16.612 16.4971 17.0651 16.6872 17.5461 16.752C17.8344 16.8091 18.1291 16.8307 18.4231 16.8164V19.4123" fill="#9C9E9E"/>
<path fill-rule="evenodd" clip-rule="evenodd" d="M17.1375 23.5246C17.1375 23.5246 17.7842 20.7961 17.4509 19.4129C17.1176 18.0296 15.5899 16.9534 14.8518 15.8847C14.1137 14.816 14.6891 14.7024 14.9272 14.8615C15.3281 15.3392 15.7658 15.7877 16.2367 16.2031C16.612 16.4977 17.0651 16.6878 17.5461 16.7525C18.1374 16.817 18.8755 17.1808 19.6176 15.6157C20.3596 14.0506 20.6374 13.9786 20.9469 14.0998C21.2564 14.2211 21.0223 14.96 20.5223 15.8695C20.0223 16.779 19.3755 17.7151 19.6176 18.2532C19.8596 18.7913 20.8993 18.6928 22.5183 18.4161C24.1373 18.1395 24.542 17.8022 24.542 18.3252C24.542 19.3939 20.4985 19.2157 19.3834 20.22C18.6691 20.8983 18.2922 23.0395 18.1453 23.949C18.0541 24.6084 18.1017 25.3094 17.6454 25.4269C17.0977 25.5595 17.0977 23.5321 17.1454 23.5321" fill="#34454F"/>
<path fill-rule="evenodd" clip-rule="evenodd" d="M18.4004 10.1816C18.1836 10.1957 17.9806 10.288 17.8323 10.4396C17.684 10.5912 17.6016 10.7909 17.6016 10.9983C17.6016 11.2058 17.684 11.4055 17.8323 11.5571C17.9806 11.7087 18.1836 11.8009 18.4004 11.815C18.6171 11.8009 18.8201 11.7087 18.9684 11.5571C19.1167 11.4055 19.1992 11.2058 19.1992 10.9983C19.1992 10.7909 19.1167 10.5912 18.9684 10.4396C18.8201 10.288 18.6171 10.1957 18.4004 10.1816Z" fill="#7CB70B"/>
<path fill-rule="evenodd" clip-rule="evenodd" d="M17.9953 14.3441C17.7598 14.3389 17.528 14.4005 17.3291 14.5212C17.1303 14.6419 16.9735 14.8163 16.8785 15.0222C16.7834 15.2281 16.7545 15.4562 16.7954 15.6778C16.8362 15.8994 16.945 16.1045 17.108 16.267C17.2709 16.4295 17.4807 16.5421 17.7107 16.5907C17.9407 16.6393 18.1807 16.6216 18.4002 16.5399C18.6197 16.4582 18.8089 16.3161 18.9438 16.1316C19.0787 15.9472 19.1532 15.7286 19.158 15.5037C19.1644 15.2028 19.0456 14.9118 18.8277 14.6944C18.6097 14.4771 18.3104 14.351 17.9953 14.3441Z" fill="#34454F"/>
<path fill-rule="evenodd" clip-rule="evenodd" d="M19.0696 14.6798C19.1847 14.4979 19.2838 14.3425 19.3989 14.1796C20.26 12.929 19.3315 12.6145 19.0457 12.8191C18.6757 13.2522 18.3338 13.7065 18.022 14.1796C18.1952 14.1779 18.3669 14.2107 18.5261 14.276C18.6853 14.3412 18.8285 14.4374 18.9465 14.5585C18.9981 14.5813 19.022 14.623 19.0696 14.6684M17.0855 16.4685C17.0855 16.442 17.0855 16.4192 17.0419 16.3965C16.7938 16.1538 16.6519 15.8298 16.645 15.4907C16.6429 15.4775 16.6443 15.4639 16.6492 15.4513C16.6541 15.4387 16.6622 15.4276 16.6728 15.4188C16.4815 15.4702 16.281 15.483 16.0842 15.4562C15.8874 15.4295 15.6986 15.3638 15.53 15.2634C15.7772 15.5428 16.0422 15.8072 16.3236 16.0554C16.5163 16.18 16.7164 16.2939 16.9228 16.3965C16.9816 16.4146 17.0377 16.4401 17.0895 16.4723L17.0855 16.4685ZM17.2561 23.2178C17.2561 23.2178 16.895 20.1293 17.018 18.784C16.6578 18.1734 16.2089 17.6145 15.6847 17.1241C15.3144 16.768 14.9797 16.3798 14.6847 15.9644C14.4619 15.6891 14.3244 15.3595 14.2879 15.0133C14.2844 14.9632 14.2914 14.913 14.3085 14.8655C14.3255 14.818 14.3522 14.7742 14.3871 14.7366C14.4523 14.6762 14.5355 14.6365 14.6252 14.623C14.7132 14.6184 14.8014 14.6259 14.8871 14.6457C14.7134 14.4282 14.5544 14.2003 14.411 13.9635C13.3118 12.2582 12.7205 11.9626 12.3395 12.1029C11.9586 12.2431 12.5261 13.3534 13.1014 14.3956C13.6768 15.4377 14.5498 16.514 14.272 17.1468C13.9943 17.7797 12.6848 17.6015 10.792 17.2832C8.89918 16.9649 8.60156 16.7414 8.60156 17.3515C8.60156 18.4884 13.2483 18.5565 14.411 19.6517C15.6728 20.7886 15.6252 22.1719 15.8871 23.7181C16.0061 24.476 15.8593 25.3059 16.5537 25.4234C17.4743 25.5939 17.2839 23.2292 17.2601 23.2292L17.2561 23.2178Z" fill="#F33913"/>
</g>
<defs>
<filter id="filter0_d_659_104998" x="0" y="0" width="34" height="34" filterUnits="userSpaceOnUse" color-interpolation-filters="sRGB">
<feFlood flood-opacity="0" result="BackgroundImageFix"/>
<feColorMatrix in="SourceAlpha" type="matrix" values="0 0 0 0 0 0 0 0 0 0 0 0 0 0 0 0 0 0 127 0" result="hardAlpha"/>
<feOffset dy="1"/>
<feGaussianBlur stdDeviation="1.5"/>
<feComposite in2="hardAlpha" operator="out"/>
<feColorMatrix type="matrix" values="0 0 0 0 0 0 0 0 0 0 0 0 0 0 0 0 0 0 0.14 0"/>
<feBlend mode="normal" in2="BackgroundImageFix" result="effect1_dropShadow_659_104998"/>
<feBlend mode="normal" in="SourceGraphic" in2="effect1_dropShadow_659_104998" result="shape"/>
</filter>
</defs>
</svg>
