<svg width="34" height="34" viewBox="0 0 34 34" fill="none" xmlns="http://www.w3.org/2000/svg">
<g filter="url(#filter0_d_659_105027)">
<rect x="3" y="2" width="28" height="28" rx="4" fill="white" shape-rendering="crispEdges"/>
<path d="M19.2222 15.7778C19.5333 15.7778 19.7964 15.6702 20.0116 15.4551C20.2267 15.24 20.3339 14.9772 20.3333 14.6667C20.3333 14.3556 20.2258 14.0924 20.0107 13.8773C19.7956 13.6622 19.5327 13.555 19.2222 13.5556C18.9111 13.5556 18.648 13.6631 18.4329 13.8782C18.2178 14.0933 18.1105 14.3561 18.1111 14.6667C18.1111 14.9778 18.2187 15.2409 18.4338 15.456C18.6489 15.6711 18.9117 15.7784 19.2222 15.7778ZM14.7778 15.7778C15.0889 15.7778 15.352 15.6702 15.5671 15.4551C15.7822 15.24 15.8895 14.9772 15.8889 14.6667C15.8889 14.3556 15.7813 14.0924 15.5662 13.8773C15.3511 13.6622 15.0883 13.555 14.7778 13.5556C14.4667 13.5556 14.2036 13.6631 13.9884 13.8782C13.7733 14.0933 13.6661 14.3561 13.6667 14.6667C13.6667 14.9778 13.7742 15.2409 13.9893 15.456C14.2044 15.6711 14.4673 15.7784 14.7778 15.7778ZM17 20.4444C17.8889 20.4444 18.6927 20.2 19.4116 19.7111C20.1304 19.2222 20.6599 18.5778 21 17.7778H13C13.3407 18.5778 13.8705 19.2222 14.5893 19.7111C15.3081 20.2 16.1117 20.4444 17 20.4444ZM17 24C15.8889 24 14.848 23.7887 13.8773 23.3662C12.9067 22.9437 12.0622 22.3736 11.344 21.656C10.6258 20.9372 10.0557 20.0927 9.63378 19.1227C9.21185 18.1526 9.00059 17.1117 9 16C9 14.8889 9.21126 13.848 9.63378 12.8773C10.0563 11.9067 10.6264 11.0622 11.344 10.344C12.0628 9.62578 12.9073 9.0557 13.8773 8.63378C14.8474 8.21185 15.8883 8.00059 17 8C18.1111 8 19.152 8.21126 20.1227 8.63378C21.0933 9.0563 21.9378 9.62637 22.656 10.344C23.3742 11.0628 23.9446 11.9073 24.3671 12.8773C24.7896 13.8474 25.0006 14.8883 25 16C25 17.1111 24.7887 18.152 24.3662 19.1227C23.9437 20.0933 23.3736 20.9378 22.656 21.656C21.9372 22.3742 21.0927 22.9446 20.1227 23.3671C19.1526 23.7896 18.1117 24.0006 17 24ZM17.3556 12.8889C17.6074 12.8889 17.8927 12.8406 18.2116 12.744C18.5304 12.6474 18.6895 12.429 18.6889 12.0889C18.6889 11.9111 18.6296 11.7556 18.5111 11.6222C18.3926 11.4889 18.2444 11.4222 18.0667 11.4222C17.9481 11.4222 17.8335 11.4444 17.7227 11.4889C17.6119 11.5333 17.4895 11.5556 17.3556 11.5556C17.0444 11.5556 16.7816 11.4483 16.5671 11.2338C16.3526 11.0193 16.245 10.7561 16.2444 10.4444C16.2444 10.2815 16.2705 10.1443 16.3227 10.0329C16.3748 9.92148 16.4524 9.84385 16.5556 9.8C16.2741 9.82963 16 9.86667 15.7333 9.91111C15.4667 9.95556 15.2074 10.0296 14.9556 10.1333C14.9407 10.1778 14.9295 10.2296 14.9218 10.2889C14.9141 10.3481 14.9105 10.4 14.9111 10.4444C14.9111 11.1111 15.152 11.6853 15.6338 12.1671C16.1156 12.6489 16.6895 12.8895 17.3556 12.8889Z" fill="#7CB70B"/>
</g>
<defs>
<filter id="filter0_d_659_105027" x="0" y="0" width="34" height="34" filterUnits="userSpaceOnUse" color-interpolation-filters="sRGB">
<feFlood flood-opacity="0" result="BackgroundImageFix"/>
<feColorMatrix in="SourceAlpha" type="matrix" values="0 0 0 0 0 0 0 0 0 0 0 0 0 0 0 0 0 0 127 0" result="hardAlpha"/>
<feOffset dy="1"/>
<feGaussianBlur stdDeviation="1.5"/>
<feComposite in2="hardAlpha" operator="out"/>
<feColorMatrix type="matrix" values="0 0 0 0 0 0 0 0 0 0 0 0 0 0 0 0 0 0 0.14 0"/>
<feBlend mode="normal" in2="BackgroundImageFix" result="effect1_dropShadow_659_105027"/>
<feBlend mode="normal" in="SourceGraphic" in2="effect1_dropShadow_659_105027" result="shape"/>
</filter>
</defs>
</svg>
