<svg width="34" height="34" viewBox="0 0 34 34" fill="none" xmlns="http://www.w3.org/2000/svg">
<g filter="url(#filter0_d_659_105033)">
<rect x="3" y="2" width="28" height="28" rx="4" fill="white"/>
<path d="M10 20.5263C10 21.3137 10.3412 22.0205 10.875 22.5126V24.1053C10.875 24.5974 11.2687 25 11.75 25H12.625C13.1062 25 13.5 24.5974 13.5 24.1053V23.2105H20.5V24.1053C20.5 24.5974 20.8937 25 21.375 25H22.25C22.7312 25 23.125 24.5974 23.125 24.1053V22.5126C23.6587 22.0205 24 21.3137 24 20.5263V11.5789C24 8.44737 20.8675 8 17 8C13.1325 8 10 8.44737 10 11.5789V20.5263ZM13.0625 21.4211C12.3362 21.4211 11.75 20.8216 11.75 20.0789C11.75 19.3363 12.3362 18.7368 13.0625 18.7368C13.7887 18.7368 14.375 19.3363 14.375 20.0789C14.375 20.8216 13.7887 21.4211 13.0625 21.4211ZM20.9375 21.4211C20.2112 21.4211 19.625 20.8216 19.625 20.0789C19.625 19.3363 20.2112 18.7368 20.9375 18.7368C21.6637 18.7368 22.25 19.3363 22.25 20.0789C22.25 20.8216 21.6637 21.4211 20.9375 21.4211ZM22.25 16.0526H11.75V11.5789H22.25V16.0526Z" fill="#7CB70B"/>
</g>
<defs>
<filter id="filter0_d_659_105033" x="0" y="0" width="34" height="34" filterUnits="userSpaceOnUse" color-interpolation-filters="sRGB">
<feFlood flood-opacity="0" result="BackgroundImageFix"/>
<feColorMatrix in="SourceAlpha" type="matrix" values="0 0 0 0 0 0 0 0 0 0 0 0 0 0 0 0 0 0 127 0" result="hardAlpha"/>
<feOffset dy="1"/>
<feGaussianBlur stdDeviation="1.5"/>
<feComposite in2="hardAlpha" operator="out"/>
<feColorMatrix type="matrix" values="0 0 0 0 0 0 0 0 0 0 0 0 0 0 0 0 0 0 0.14 0"/>
<feBlend mode="normal" in2="BackgroundImageFix" result="effect1_dropShadow_659_105033"/>
<feBlend mode="normal" in="SourceGraphic" in2="effect1_dropShadow_659_105033" result="shape"/>
</filter>
</defs>
</svg>
