<svg width="34" height="34" viewBox="0 0 34 34" fill="none" xmlns="http://www.w3.org/2000/svg">
<g filter="url(#filter0_d_659_104955)">
<rect x="3" y="2" width="28" height="28" rx="4" fill="white"/>
<path d="M9 20.375V23H10.6V19.5H9.8C9.36 19.5 9 19.8938 9 20.375ZM14.6 19.5H11.4V23L15.152 22.9913C15.456 22.9913 15.728 22.8075 15.864 22.51L16.56 20.8475L15.288 17.8025L14.6 19.5ZM24.768 19.7538C24.6933 19.6725 24.6047 19.6083 24.5072 19.5647C24.4097 19.5212 24.3053 19.4992 24.2 19.5H23.4V23H25V20.375C25 20.13 24.912 19.9113 24.768 19.7538ZM18.28 16.735L21.52 9H18.84L17.432 12.4737L17.04 13.4362L17 13.5588L15.16 9H12.48L15.72 16.735L16.936 19.64L17 19.7975L18.136 22.51C18.272 22.8075 18.544 22.9913 18.848 22.9913L22.6 23V19.5H19.4L18.28 16.735Z" fill="#F8BF14"/>
</g>
<defs>
<filter id="filter0_d_659_104955" x="0" y="0" width="34" height="34" filterUnits="userSpaceOnUse" color-interpolation-filters="sRGB">
<feFlood flood-opacity="0" result="BackgroundImageFix"/>
<feColorMatrix in="SourceAlpha" type="matrix" values="0 0 0 0 0 0 0 0 0 0 0 0 0 0 0 0 0 0 127 0" result="hardAlpha"/>
<feOffset dy="1"/>
<feGaussianBlur stdDeviation="1.5"/>
<feComposite in2="hardAlpha" operator="out"/>
<feColorMatrix type="matrix" values="0 0 0 0 0 0 0 0 0 0 0 0 0 0 0 0 0 0 0.14 0"/>
<feBlend mode="normal" in2="BackgroundImageFix" result="effect1_dropShadow_659_104955"/>
<feBlend mode="normal" in="SourceGraphic" in2="effect1_dropShadow_659_104955" result="shape"/>
</filter>
</defs>
</svg>
