<svg width="34" height="34" viewBox="0 0 34 34" fill="none" xmlns="http://www.w3.org/2000/svg">
<g filter="url(#filter0_d_659_105036)">
<rect x="3" y="2" width="28" height="28" rx="4" fill="white"/>
<path d="M13.5 9C11.4 9 10 11.1429 10 13.2857C10 14.7929 10.7 16.8571 11.4 17.5714C12.1 18.2857 12.8 24 14.2 24C17.378 24 15.6 18.2857 17 18.2857C18.4 18.2857 16.622 24 19.8 24C21.2 24 21.9 18.2857 22.6 17.5714C23.3 16.8571 24 14.7929 24 13.2857C24 11.1429 22.6 9 20.5 9C18.4 9 18.4 9.71429 17 9.71429C15.6 9.71429 15.6 9 13.5 9Z" fill="#7CB70B"/>
</g>
<defs>
<filter id="filter0_d_659_105036" x="0" y="0" width="34" height="34" filterUnits="userSpaceOnUse" color-interpolation-filters="sRGB">
<feFlood flood-opacity="0" result="BackgroundImageFix"/>
<feColorMatrix in="SourceAlpha" type="matrix" values="0 0 0 0 0 0 0 0 0 0 0 0 0 0 0 0 0 0 127 0" result="hardAlpha"/>
<feOffset dy="1"/>
<feGaussianBlur stdDeviation="1.5"/>
<feComposite in2="hardAlpha" operator="out"/>
<feColorMatrix type="matrix" values="0 0 0 0 0 0 0 0 0 0 0 0 0 0 0 0 0 0 0.14 0"/>
<feBlend mode="normal" in2="BackgroundImageFix" result="effect1_dropShadow_659_105036"/>
<feBlend mode="normal" in="SourceGraphic" in2="effect1_dropShadow_659_105036" result="shape"/>
</filter>
</defs>
</svg>
