<svg width="34" height="34" viewBox="0 0 34 34" fill="none" xmlns="http://www.w3.org/2000/svg">
<g filter="url(#filter0_d_659_104976)">
<rect x="3" y="2" width="28" height="28" rx="4" fill="white"/>
<path d="M15.5714 17H12L12.8681 23H15.5714M15.5714 17H18.4286M15.5714 17V23M18.4286 17H22L21.1334 23H18.4286M18.4286 17V23M18.4286 23H15.5714" stroke="#D3163C" stroke-width="2" stroke-linecap="round" stroke-linejoin="bevel"/>
<path d="M24 14.3335C24 15.3736 23.458 16.5604 22.4445 17H11.5556C10.554 16.7752 10 15.9291 10 15.0001C10 14.2756 10.4493 13.6408 11.1222 13.2899C11.3774 13.1569 11.5556 12.9226 11.5556 12.6667C11.5556 10.6416 13.4708 9 15.8333 9C16.7137 9 17.5321 9.22779 18.2123 9.61861C18.5015 9.7848 18.8776 9.80204 19.2137 9.72415C19.3759 9.68659 19.5463 9.66655 19.7222 9.66655C20.7961 9.66655 21.6667 10.413 21.6667 11.3335C21.6667 11.5586 21.8199 11.7783 22.0632 11.8633C23.1994 12.2605 24 13.2168 24 14.3335Z" fill="#D3163C" stroke="#D3163C" stroke-width="2" stroke-linecap="round" stroke-linejoin="round"/>
</g>
<defs>
<filter id="filter0_d_659_104976" x="0" y="0" width="34" height="34" filterUnits="userSpaceOnUse" color-interpolation-filters="sRGB">
<feFlood flood-opacity="0" result="BackgroundImageFix"/>
<feColorMatrix in="SourceAlpha" type="matrix" values="0 0 0 0 0 0 0 0 0 0 0 0 0 0 0 0 0 0 127 0" result="hardAlpha"/>
<feOffset dy="1"/>
<feGaussianBlur stdDeviation="1.5"/>
<feComposite in2="hardAlpha" operator="out"/>
<feColorMatrix type="matrix" values="0 0 0 0 0 0 0 0 0 0 0 0 0 0 0 0 0 0 0.14 0"/>
<feBlend mode="normal" in2="BackgroundImageFix" result="effect1_dropShadow_659_104976"/>
<feBlend mode="normal" in="SourceGraphic" in2="effect1_dropShadow_659_104976" result="shape"/>
</filter>
</defs>
</svg>
