<svg width="96" height="67" viewBox="0 0 96 67" fill="none" xmlns="http://www.w3.org/2000/svg">
<g filter="url(#filter0_d_659_121265)">
<path fill-rule="evenodd" clip-rule="evenodd" d="M52.6073 56.4358C53.3025 55.7406 54.2453 55.3501 55.2285 55.3501H86.6165C88.6638 55.3501 90.3234 53.6904 90.3234 51.6432V46.4535C90.3234 23.1517 71.8216 3.46875 48.0328 3.46875C24.244 3.46875 5.74219 23.1517 5.74219 46.4535V51.6432C5.74219 53.6904 7.40182 55.3501 9.44908 55.3501H40.8381C41.8212 55.3501 42.7641 55.7406 43.4592 56.4358L45.4121 58.3887C46.8597 59.8363 49.2068 59.8363 50.6544 58.3887L52.6073 56.4358ZM29.0165 29.4018C25.8862 33.0844 23.7527 37.6845 23.0482 42.7581C22.7667 44.7859 24.4535 46.4535 26.5008 46.4535H69.5648C71.6121 46.4535 73.299 44.7859 73.0174 42.7581C72.313 37.6845 70.1794 33.0844 67.0491 29.4018C62.4224 23.9589 55.6183 20.5205 48.0328 20.5205C40.4473 20.5205 33.6432 23.9589 29.0165 29.4018Z" fill="white"/>
</g>
<path d="M82.1648 35.5824L78.5851 34.8963L76.4844 38.1613L76.4077 38.1915L75.3655 35.5632L76.6277 33.733L74.9095 34.415C74.6027 33.6412 74.295 32.8673 73.9883 32.0924L79.9421 29.7305C80.2498 30.5043 80.5565 31.2782 80.8633 32.0521L79.026 32.7805L80.4869 32.9884L81.2779 33.0973L82.2496 35.5471L82.1648 35.5824Z" fill="#9C0624"/>
<path d="M77.9085 42.8461L77.6421 40.8322L76.8713 40.6576L76.5312 38.0909L76.7764 38.0586L83.2771 39.6891L83.6484 42.4919L77.7965 45.7589L77.5513 45.7912L77.2113 43.2244L77.9085 42.8461ZM79.3674 41.2499L79.4673 42.0026L81.013 41.4103L79.3674 41.2499Z" fill="#9C0624"/>
<path d="M13.0144 40.1465C13.1556 39.2052 14.0647 38.5736 15.002 38.7421C15.5075 38.8268 15.9373 39.1688 16.0342 39.6925C16.4367 38.9852 16.9846 38.6603 17.8099 38.8298C18.8895 39.0377 19.513 40.0012 19.3456 41.1151L18.7472 45.0964L12.4141 44.146L13.0144 40.1465ZM15.1382 42.0292L15.2068 41.5681C15.2704 41.1423 14.6146 41.0162 14.546 41.4693L14.4764 41.9303L15.1382 42.0292ZM17.3821 42.3662L17.475 41.7507C17.5224 41.4339 17.3438 41.2685 17.145 41.2382C16.9453 41.2079 16.7273 41.3048 16.6789 41.6307L16.5871 42.2461L17.3821 42.3662Z" fill="#9C0624"/>
<path d="M18.7325 34.1613L20.4346 36.7361L19.6728 38.6783L13.7109 36.3386L14.616 34.0301L15.7066 34.4579L16.9022 35.0945L15.2012 32.5399L15.9639 30.5977L21.9248 32.9374L21.0127 35.262L19.9826 34.8585L18.7325 34.1613Z" fill="#9C0624"/>
<path d="M22.0523 32.1177L16.9844 28.1999L18.5059 26.2304L21.902 28.8557L22.3661 28.2544L18.971 25.6291L20.4925 23.6596L23.8886 26.2849L24.3477 25.6917L20.9516 23.0664L22.4801 21.0898L27.5481 25.0076L22.0523 32.1177Z" fill="#9C0624"/>
<path d="M26.2814 17.994L27.5567 19.7253L28.4779 19.0473L27.2025 17.3159C27.8654 16.8276 28.5364 16.3332 29.2063 15.8398L33.004 20.9976L31.0002 22.4737L29.6765 20.6757L28.7553 21.3538L30.0791 23.1517L28.0672 24.6328L24.2695 19.4751C24.9405 18.9817 25.6104 18.4873 26.2814 17.994Z" fill="#9C0624"/>
<path d="M31.1211 14.7061C32.687 14.016 34.2529 13.3268 35.8188 12.6367L36.5785 14.362L34.159 15.4285L34.3326 15.822L36.6602 14.7969L37.3796 16.4304L35.052 17.4555L35.2215 17.8409L37.6419 16.7744L38.4017 18.4997C36.8358 19.1899 35.2699 19.88 33.704 20.5691L31.1211 14.7061Z" fill="#9C0624"/>
<path d="M32.9312 12.6894C33.3631 13.6691 31.6862 14.5176 31.215 13.4451C30.7388 12.3645 32.4671 11.634 32.9312 12.6894Z" fill="#00930C"/>
<path d="M34.9359 11.8065C35.3677 12.7862 33.6908 13.6347 33.2186 12.5632C32.7434 11.4816 34.4707 10.7512 34.9359 11.8065Z" fill="#00930C"/>
<path d="M41.8422 11.0707C42.7755 10.8861 43.6775 11.5288 43.8349 12.4671C43.9257 12.9716 43.7481 13.4922 43.289 13.7606C44.0911 13.8998 44.5815 14.3065 44.7005 15.1409C44.869 16.2275 44.1729 17.1396 43.0691 17.3575L39.119 18.1395L37.875 11.8557L41.8422 11.0707ZM40.7868 13.7061L41.2449 13.6153C41.6666 13.5316 41.5637 12.8707 41.1147 12.9605L40.6567 13.0513L40.7868 13.7061ZM41.2277 15.9319L41.8382 15.8108C42.1529 15.7482 42.2478 15.5243 42.2084 15.3265C42.1691 15.1287 42.0046 14.9562 41.6818 15.0208L41.0714 15.1419L41.2277 15.9319Z" fill="#9C0624"/>
<path d="M49.7711 16.2236L47.7411 16.16L47.4434 16.8925L44.8555 16.8118L44.8635 16.5646L47.5262 10.4141L50.3522 10.5018L52.6274 16.8068L52.6193 17.054L50.0314 16.9732L49.7711 16.2236ZM48.4322 14.5255L49.1909 14.5487L48.857 12.9274L48.4322 14.5255Z" fill="#9C0624"/>
<path d="M56.5446 16.3864L55.2955 17.801L52.875 17.1129L52.9295 16.9191L54.4742 15.3038C54.0232 14.8135 53.8234 14.1476 54.0787 13.2506C54.6013 11.4103 56.2096 11.4113 57.7442 11.8381C58.739 12.1206 59.3989 12.3093 60.4028 12.5938L58.6492 18.7554C57.8481 18.5274 57.047 18.2994 56.2459 18.0714L56.712 16.4349L56.5446 16.3864ZM57.2649 14.5935L57.5 13.7662L57.1661 13.6703C56.7695 13.5583 56.5476 13.637 56.4648 13.9276C56.3801 14.2273 56.5375 14.3766 56.931 14.4977L57.2649 14.5935Z" fill="#9C0624"/>
<path d="M61.4531 20.0101L64.8583 14.5859L68.6782 16.9832L67.5643 18.7579L65.8592 17.6875L63.5689 21.3368L61.4531 20.0101Z" fill="#9C0624"/>
<path d="M72.5349 24.5535C69.5071 27.772 64.431 23.0986 67.4639 19.8215C70.5372 16.5555 75.5749 21.2693 72.5349 24.5535ZM70.7158 22.8423C71.7268 21.7456 70.3011 20.4158 69.277 21.5004C68.2721 22.59 69.7038 23.9138 70.7158 22.8423Z" fill="#9C0624"/>
<path d="M70.5469 27.1405L75.855 23.5547C76.4341 24.4123 76.7973 24.9501 77.3765 25.8067C78.2603 27.1314 78.6498 28.6569 77.0647 29.7274C75.4796 30.7979 74.1973 29.8647 73.3043 28.5571L73.1812 28.3755L71.9453 29.2099C71.4791 28.5207 71.013 27.8306 70.5469 27.1405ZM74.9126 27.538C75.1507 27.874 75.4473 27.9053 75.7056 27.7307C75.9559 27.5622 76.0376 27.2747 75.8075 26.9327L75.638 26.6824L74.7431 27.2868L74.9126 27.538Z" fill="#9C0624"/>
<path d="M73.2708 46.4526C73.2708 32.1295 61.9705 20.5195 48.0319 20.5195C34.0932 20.5195 22.793 32.1295 22.793 46.4526H73.2708Z" fill="#00930C"/>
<path d="M73.1748 46.392C73.1748 44.5719 72.9791 42.7961 72.6118 41.0859H23.4497C23.0825 42.7971 22.8867 44.5719 22.8867 46.392H73.1748Z" fill="#10470A"/>
<path d="M43.0287 28.2938C43.0287 26.514 44.4715 25.0722 46.2503 25.0722C48.0301 25.0722 49.4719 26.515 49.4719 28.2938H43.0287ZM38.9263 22.2148C41.3055 23.2066 42.9793 25.5555 42.9793 28.2938H29.8125C32.347 25.6513 35.4505 23.5598 38.9263 22.2148Z" fill="white"/>
<path d="M64.482 41.2495L61.8073 36.5034H63.3812L60.9224 30.1843L58.4636 36.5034H60.0366L57.5091 40.9892C57.3961 38.7281 55.8242 36.8514 53.7155 36.2804H56.4417C56.4417 34.3906 55.1563 32.8025 53.4118 32.3404H55.1825C55.1825 30.7846 53.9213 29.5234 52.3655 29.5234C50.8097 29.5234 49.5485 30.7846 49.5485 32.3404H51.3192C49.5747 32.8025 48.2893 34.3906 48.2893 36.2804H51.0155C48.8261 36.8736 47.2148 38.8734 47.2148 41.2505H57.3628H57.5172H64.482V41.2495ZM36.6198 39.0873L34.1479 30.7988L31.0312 41.2495H35.9751H37.2656H40.919H42.2094H47.1533L44.0356 30.7988L41.5637 39.0873L39.0918 30.7988L36.6198 39.0873Z" fill="#10470A"/>
<path d="M73.0111 42.7316C72.9879 42.5419 72.9637 42.3532 72.9364 42.1656C72.7417 42.2523 72.5621 42.3462 72.3845 42.44C71.7721 42.7608 71.194 43.0625 70.0115 43.0625C68.829 43.0625 68.2509 42.7598 67.6384 42.44L67.4558 42.3452L67.4255 42.33L67.3953 42.3139L67.3337 42.2826L67.3024 42.2675L67.2712 42.2523L67.2399 42.2372L67.2086 42.2221L67.1763 42.2069L67.144 42.1918L67.1117 42.1767L67.0785 42.1615L67.0452 42.1464L67.0119 42.1323L66.9786 42.1181L66.9443 42.104L66.91 42.0899L66.8757 42.0758L66.8403 42.0626L66.805 42.0485L66.7687 42.0354L66.7324 42.0223L66.6951 42.0092L66.6577 41.9961L66.6194 41.9839L66.581 41.9718L66.5427 41.9597L66.5034 41.9486L66.464 41.9365L66.4236 41.9254L66.3833 41.9143L66.3419 41.9032L66.2995 41.8931L66.2572 41.8831L66.2138 41.873L66.1704 41.8639L66.126 41.8548L66.0806 41.8457L66.0352 41.8377L65.9888 41.8296L65.9414 41.8215L65.894 41.8144L65.8455 41.8074L65.7961 41.8013L65.7456 41.7953L65.6952 41.7892L65.6437 41.7842L65.5913 41.7791L65.5378 41.7751L65.4833 41.7711L65.4288 41.767L65.3733 41.764L65.3168 41.761L65.2593 41.759L65.2008 41.7569L65.1413 41.7559L65.0807 41.7549H65.0202H64.9587L64.8991 41.7559L64.8396 41.7569L64.7811 41.759L64.7236 41.761L64.6671 41.764L64.6116 41.767L64.5571 41.7711L64.5026 41.7751L64.4491 41.7791L64.3967 41.7842L64.3452 41.7892L64.2948 41.7953L64.2443 41.8013L64.1949 41.8074L64.1465 41.8144L64.099 41.8215L64.0516 41.8296L64.0052 41.8377L63.9598 41.8457L63.9144 41.8548L63.87 41.8639L63.8266 41.873L63.7832 41.8831L63.7408 41.8931L63.6985 41.9032L63.6571 41.9143L63.6157 41.9254L63.5754 41.9365L63.536 41.9486L63.4967 41.9597L63.4583 41.9718L63.42 41.9839L63.3817 41.9961L63.3443 42.0092L63.307 42.0223L63.2707 42.0354L63.2344 42.0485L63.199 42.0626L63.1637 42.0758L63.1284 42.0899L63.0941 42.104L63.0598 42.1181L63.0255 42.1323L62.9922 42.1464L62.9589 42.1615L62.9256 42.1767L62.8933 42.1918L62.861 42.2069L62.8288 42.2221L62.7965 42.2372L62.7652 42.2523L62.7339 42.2675L62.7026 42.2826L62.6714 42.2977L62.6401 42.3139L62.6098 42.33L62.5795 42.3452L62.5493 42.3613L62.519 42.3774L62.4887 42.3936L62.4585 42.4097L62.4282 42.4259L62.3979 42.442L62.3697 42.4571L62.3414 42.4723L62.3132 42.4874L62.2839 42.5025L62.2557 42.5177L62.2274 42.5328L62.1992 42.5479L62.1699 42.5621L62.1407 42.5772L62.1124 42.5913L62.0831 42.6055L62.0539 42.6196L62.0246 42.6337L61.9954 42.6478L61.9661 42.662L61.9368 42.6761L61.9066 42.6892L61.8763 42.7033L61.846 42.7164L61.8158 42.7296L61.7845 42.7427L61.7532 42.7558L61.7219 42.7689L61.6907 42.781L61.6584 42.7931L61.6261 42.8052L61.5938 42.8173L61.5615 42.8294L61.5282 42.8416L61.4949 42.8527L61.4606 42.8638L61.4263 42.8749L61.392 42.8859L61.3567 42.896L61.3214 42.9061L61.2851 42.9162L61.2487 42.9263L61.2114 42.9354L61.1741 42.9445L61.1357 42.9535L61.0974 42.9616L61.058 42.9697L61.0177 42.9778L60.9773 42.9858L60.936 42.9929L60.8946 43L60.8522 43.007L60.8098 43.0131L60.7665 43.0191L60.7231 43.0252L60.6787 43.0302L60.6333 43.0353L60.5869 43.0403L60.5394 43.0444L60.492 43.0484L60.4436 43.0514L60.3942 43.0544L60.3447 43.0575L60.2943 43.0595L60.2428 43.0615L60.1904 43.0635L60.1369 43.0645H60.0824H60.0279H59.9724H59.9179L59.8645 43.0635L59.812 43.0615L59.7605 43.0595L59.7091 43.0575L59.6586 43.0544L59.6092 43.0514L59.5608 43.0484L59.5133 43.0444L59.4659 43.0403L59.4195 43.0353L59.3741 43.0302L59.3287 43.0252L59.2843 43.0191L59.2409 43.0131L59.1986 43.007L59.1562 43L59.1148 42.9929L59.0734 42.9858L59.0331 42.9778L58.9927 42.9697L58.9534 42.9616L58.915 42.9535L58.8767 42.9445L58.8394 42.9354L58.803 42.9263L58.7667 42.9162L58.7304 42.9061L58.6951 42.896L58.6598 42.8859L58.6255 42.8749L58.5912 42.8638L58.5569 42.8527L58.5236 42.8416L58.4903 42.8294L58.457 42.8173L58.4247 42.8052L58.3924 42.7931L58.3601 42.781L58.3288 42.7689L58.2976 42.7558L58.2663 42.7427L58.236 42.7296L58.2057 42.7164L58.1755 42.7033L58.1452 42.6892L58.116 42.6761L58.0867 42.662L58.0574 42.6478L58.0282 42.6337L57.9989 42.6196L57.9697 42.6055L57.9404 42.5913L57.9111 42.5772L57.8829 42.5621L57.8546 42.5479L57.8264 42.5328L57.7981 42.5177L57.7699 42.5025L57.7416 42.4874L57.7134 42.4723L57.6851 42.4571L57.6569 42.442L57.6266 42.4259L57.5963 42.4097L57.5661 42.3936L57.5358 42.3774L57.5055 42.3613L57.4753 42.3452L57.445 42.33L57.4137 42.3139L57.3824 42.2977L57.3512 42.2826L57.3199 42.2675L57.2886 42.2523L57.2573 42.2372L57.225 42.2221L57.1928 42.2069L57.1605 42.1918L57.1272 42.1767L57.0949 42.1615L57.0616 42.1464L57.0283 42.1323L56.995 42.1181L56.9607 42.104L56.9264 42.0899L56.8911 42.0758L56.8558 42.0626L56.8205 42.0485L56.7841 42.0354L56.7478 42.0223L56.7115 42.0092L56.6742 41.9961L56.6368 41.9839L56.5985 41.9718L56.5601 41.9597L56.5208 41.9486L56.4804 41.9365L56.4401 41.9254L56.3987 41.9143L56.3573 41.9032L56.315 41.8931L56.2726 41.8831L56.2292 41.873L56.1858 41.8639L56.1414 41.8548L56.096 41.8457L56.0506 41.8377L56.0042 41.8296L55.9568 41.8215L55.9084 41.8144L55.8599 41.8074L55.8105 41.8013L55.7601 41.7953L55.7096 41.7892L55.6581 41.7842L55.6057 41.7791L55.5522 41.7751L55.4977 41.7711L55.4432 41.767L55.3877 41.764L55.3312 41.761L55.2737 41.759L55.2152 41.7569L55.1557 41.7559L55.0952 41.7549H55.0336H54.9721L54.9115 41.7559L54.852 41.7569L54.7935 41.759L54.736 41.761L54.6795 41.764L54.624 41.767L54.5685 41.7711L54.514 41.7751L54.4605 41.7791L54.4081 41.7842L54.3566 41.7892L54.3051 41.7953L54.2547 41.8013L54.2053 41.8074L54.1568 41.8144L54.1094 41.8215L54.062 41.8296L54.0156 41.8377L53.9702 41.8457L53.9248 41.8548L53.8804 41.8639L53.836 41.873L53.7926 41.8831L53.7492 41.8931L53.7068 41.9032L53.6655 41.9143L53.6241 41.9254L53.5837 41.9365L53.5444 41.9486L53.505 41.9597L53.4667 41.9718L53.4284 41.9839L53.39 41.9961L53.3527 42.0092L53.3164 42.0223L53.2801 42.0354L53.2437 42.0485L53.2084 42.0626L53.1731 42.0758L53.1378 42.0899L53.1035 42.104L53.0692 42.1181L53.0349 42.1323L53.0016 42.1464L52.9683 42.1615L52.935 42.1767L52.9027 42.1918L52.8704 42.2069L52.8381 42.2221L52.8058 42.2372L52.7746 42.2523L52.7433 42.2675L52.712 42.2826L52.6807 42.2977L52.6495 42.3139L52.6182 42.33L52.5879 42.3452L52.5576 42.3613L52.5274 42.3774L52.4971 42.3936L52.4668 42.4097L52.4366 42.4259L52.4063 42.442L52.378 42.4571L52.3488 42.4723L52.3205 42.4874L52.2923 42.5025L52.264 42.5177L52.2358 42.5328L52.2065 42.5479L52.1773 42.5621L52.148 42.5772L52.1187 42.5913L52.0895 42.6055L52.0602 42.6196L52.031 42.6337L52.0017 42.6478L51.9725 42.662L51.9432 42.6761L51.9129 42.6892L51.8827 42.7033L51.8524 42.7164L51.8221 42.7296L51.7919 42.7427L51.7606 42.7558L51.7293 42.7689L51.698 42.781L51.6667 42.7931L51.6345 42.8052L51.6022 42.8173L51.5689 42.8294L51.5356 42.8416L51.5023 42.8527L51.468 42.8638L51.4337 42.8749L51.3984 42.8859L51.363 42.896L51.3277 42.9061L51.2914 42.9162L51.2551 42.9263L51.2178 42.9354L51.1804 42.9445L51.1421 42.9535L51.1037 42.9616L51.0644 42.9697L51.025 42.9778L50.9847 42.9858L50.9443 42.9929L50.903 43L50.8606 43.007L50.8182 43.0131L50.7748 43.0191L50.7314 43.0252L50.687 43.0302L50.6416 43.0353L50.5952 43.0403L50.5488 43.0444L50.5014 43.0484L50.453 43.0514L50.4045 43.0544L50.3551 43.0575L50.3047 43.0595H50.3036L50.2522 43.0615L50.1997 43.0635H50.1987L50.1463 43.0645H50.0928H50.0383H50.0373H49.9848H49.9818H49.9324H49.9273L49.8809 43.0635H49.8738L49.8305 43.0625H49.8214L49.781 43.0615H49.7699L49.7326 43.0595L49.7195 43.0585L49.6852 43.0565L49.67 43.0555L49.6377 43.0534L49.6206 43.0524L49.5913 43.0504L49.5732 43.0484H49.5701L49.5257 43.0444L49.5005 43.0423L49.4783 43.0403L49.4561 43.0383L49.4319 43.0363L49.4117 43.0343L49.3865 43.0312L49.3683 43.0292L49.3411 43.0262L49.325 43.0242L49.2967 43.0201L49.2826 43.0181L49.2533 43.0141L49.2412 43.0121L49.2099 43.007L49.1999 43.005L49.1676 43L49.1595 42.999L49.1262 42.9929L49.1201 42.9919L49.0848 42.9858L49.0808 42.9848L49.0445 42.9778H49.0425L49.0051 42.9697H49.0041L48.9668 42.9616H48.9658L48.9295 42.9535L48.9264 42.9525L48.8921 42.9445L48.8881 42.9435L48.8558 42.9354L48.8498 42.9344L48.8195 42.9263L48.8124 42.9243L48.7842 42.9162L48.7761 42.9142L48.7499 42.9071L48.7398 42.9041L48.7156 42.897L48.7045 42.894L48.6823 42.887L48.6691 42.8829L48.649 42.8769L48.6348 42.8728L48.6005 42.8617L48.5834 42.8557L48.5662 42.8496L48.5511 42.8446L48.5329 42.8385L48.5188 42.8335L48.4996 42.8264L48.4875 42.8224L48.4674 42.8153L48.4563 42.8113L48.4351 42.8032L48.4038 42.7911H48.4028L48.3947 42.7881L48.3705 42.779L48.3644 42.776L48.3392 42.7659L48.3342 42.7639L48.3079 42.7528L48.3039 42.7507L48.2767 42.7397L48.2736 42.7386L48.2454 42.7265H48.2444L48.2151 42.7134L48.1859 42.7003H48.1838L48.1566 42.6882L48.1536 42.6872L48.1273 42.6751L48.1233 42.6731L48.0991 42.662L48.094 42.6599L48.0708 42.6488L48.0648 42.6458L48.0426 42.6357L48.0345 42.6317L48.0143 42.6216L48.0053 42.6176L47.9861 42.6085L47.976 42.6034L47.9578 42.5944L47.9467 42.5883L47.9306 42.5802L47.9185 42.5742L47.9034 42.5661L47.8902 42.559L47.8761 42.552L47.861 42.5449L47.8479 42.5379L47.8317 42.5298L47.8206 42.5237L47.8035 42.5147L47.7934 42.5096L47.7752 42.5005L47.7661 42.4955L47.746 42.4854L47.7379 42.4814L47.7167 42.4703L47.6884 42.4551L47.6602 42.44L47.6521 42.436L47.6441 42.4319L47.636 42.4279L47.6299 42.4249L47.6279 42.4239L47.6198 42.4198L47.6118 42.4158L47.6037 42.4117L47.5987 42.4097L47.5956 42.4077L47.5876 42.4037L47.5684 42.3976L47.5603 42.3936L47.5573 42.3926L47.5522 42.3895L47.5442 42.3855L47.5361 42.3815L47.528 42.3774L47.527 42.3764L47.52 42.3724L47.5119 42.3684L47.5038 42.3643L47.4957 42.3603L47.4877 42.3562L47.4796 42.3522L47.4715 42.3482L47.4655 42.3452L47.4635 42.3441L47.4554 42.3401L47.4473 42.3361L47.4392 42.332L47.4352 42.33L47.4312 42.328L47.4231 42.324L47.415 42.3199L47.4069 42.3159L47.4049 42.3149L47.3999 42.3119L47.3918 42.3078L47.3837 42.3038L47.3757 42.2997L47.3747 42.2987L47.3676 42.2947L47.3595 42.2907L47.3515 42.2866L47.3444 42.2826H47.3434L47.3353 42.2786L47.3272 42.2745L47.3192 42.2705L47.3131 42.2675L47.3101 42.2665L47.302 42.2624L47.2939 42.2584L47.2859 42.2543L47.2818 42.2523L47.2778 42.2503L47.2697 42.2463L47.2617 42.2422L47.2536 42.2382L47.2516 42.2372L47.2455 42.2342L47.2374 42.2301L47.2294 42.2261L47.2203 42.2221L47.2042 42.214L47.1951 42.21L47.188 42.2069L47.187 42.2059L47.1779 42.2019L47.1698 42.1978L47.1355 42.1817L47.1265 42.1777L47.1224 42.1756L47.0891 42.1605L47.0558 42.1454L47.0225 42.1313L46.9892 42.1171L46.9549 42.103L46.9206 42.0889L46.8853 42.0748L46.85 42.0616L46.8147 42.0475L46.7784 42.0344L46.7421 42.0213L46.7057 42.0082L46.6684 41.995L46.6311 41.9829L46.5927 41.9708L46.5544 41.9587L46.515 41.9476L46.4757 41.9355L46.4353 41.9244L46.395 41.9133L46.3536 41.9022L46.3112 41.8921L46.2689 41.882L46.2255 41.872L46.1821 41.8629L46.1377 41.8538L46.0923 41.8447L46.0469 41.8366L46.0005 41.8286L45.9531 41.8205L45.9056 41.8134L45.8572 41.8064L45.8078 41.8003L45.7583 41.7943L45.7079 41.7882L45.6564 41.7832L45.604 41.7781L45.5505 41.7741L45.496 41.77L45.4415 41.766L45.386 41.763L45.3295 41.76L45.272 41.7579L45.2135 41.7559L45.154 41.7549L45.0934 41.7539H45.0319H44.9703L44.9098 41.7549L44.8503 41.7559L44.7918 41.7579L44.7342 41.76L44.6777 41.763L44.6222 41.766L44.5668 41.77L44.5123 41.7741L44.4588 41.7781L44.4063 41.7832L44.3549 41.7882L44.3044 41.7943L44.254 41.8003L44.2045 41.8064L44.1561 41.8134L44.1087 41.8205L44.0613 41.8286L44.0149 41.8366L43.9695 41.8447L43.9251 41.8538L43.8807 41.8629L43.8363 41.872L43.7929 41.882L43.7505 41.8921L43.7091 41.9022L43.6678 41.9133L43.6274 41.9244H43.6264L43.5861 41.9355L43.5457 41.9476L43.5064 41.9587L43.467 41.9708L43.4287 41.9829L43.3913 41.995L43.354 42.0082L43.3177 42.0213L43.2814 42.0344L43.245 42.0475L43.2097 42.0616L43.1744 42.0748L43.1391 42.0889L43.1048 42.103L43.0705 42.1171L43.0372 42.1313L43.0039 42.1454L42.9706 42.1605L42.9383 42.1756L42.906 42.1908L42.8737 42.2059L42.8414 42.2211L42.8092 42.2362L42.7779 42.2513L42.7466 42.2665L42.7153 42.2816L42.6841 42.2967L42.6538 42.3129L42.6235 42.329L42.5932 42.3441L42.563 42.3603L42.5327 42.3764L42.5024 42.3926L42.4722 42.4087L42.4419 42.4249L42.4116 42.441L42.3834 42.4561L42.3551 42.4713L42.3269 42.4864L42.2986 42.5015L42.2704 42.5167L42.2421 42.5318L42.2139 42.5469L42.1856 42.5611L42.1564 42.5762L42.1281 42.5903L42.0989 42.6045L42.0696 42.6186L42.0403 42.6327L42.0111 42.6468L41.9818 42.661L41.9526 42.6751L41.9233 42.6882L41.894 42.7023L41.8638 42.7154L41.8032 42.7417L41.773 42.7548L41.7417 42.7679L41.6791 42.7931L41.6469 42.8052L41.5813 42.8294L41.548 42.8416L41.5147 42.8527L41.4814 42.8638L41.4471 42.8749L41.4128 42.8859H41.4118L41.3775 42.896L41.3422 42.9061L41.3068 42.9162L41.2705 42.9263L41.2342 42.9354L41.1969 42.9445L41.1585 42.9535L41.1202 42.9616L41.0818 42.9697L41.0425 42.9778H41.0415L41.0021 42.9858L40.9618 42.9929H40.9608L40.9194 43H40.9184L40.877 43.007L40.8347 43.0131L40.7913 43.0191L40.7479 43.0252L40.7035 43.0302H40.7025L40.6571 43.0353H40.6561L40.6107 43.0403H40.6097L40.5632 43.0444L40.5158 43.0484L40.4674 43.0514H40.4664L40.418 43.0544L40.3685 43.0575H40.3675L40.3171 43.0595L40.2656 43.0615H40.2646L40.2131 43.0635L40.1607 43.0645H40.1597H40.1062H40.0517H40.0507H39.9962H39.9427H39.9417L39.8893 43.0635L39.8378 43.0615H39.8368L39.7853 43.0595L39.7349 43.0575H39.7339L39.6844 43.0544L39.636 43.0514L39.5886 43.0484H39.5876L39.5402 43.0444H39.5392L39.4927 43.0403L39.4473 43.0353L39.4019 43.0302L39.3575 43.0252L39.3132 43.0191L39.2698 43.0131L39.2274 43.007L39.186 43H39.185L39.1436 42.9929L39.1033 42.9858L39.0629 42.9778L39.0236 42.9697L38.9852 42.9616L38.9469 42.9535L38.9086 42.9445L38.8712 42.9354L38.8339 42.9263L38.7976 42.9162L38.7613 42.9061L38.7259 42.896L38.6906 42.8859L38.6563 42.8749L38.622 42.8638L38.5887 42.8527L38.5554 42.8416L38.5221 42.8294L38.4899 42.8173L38.4576 42.8052L38.4253 42.7931L38.394 42.781L38.3627 42.7689L38.3314 42.7558L38.3012 42.7427L38.2709 42.7296L38.2406 42.7164L38.2104 42.7033L38.1801 42.6892L38.1498 42.6761L38.1196 42.662L38.0903 42.6478L38.061 42.6337L38.0318 42.6196L38.0025 42.6055L37.9733 42.5913L37.944 42.5772L37.9158 42.5621L37.8865 42.5479L37.8582 42.5328L37.83 42.5177L37.8017 42.5025L37.7735 42.4874L37.7452 42.4723L37.717 42.4571L37.6887 42.442L37.6807 42.438L37.6726 42.4339L37.6645 42.4299L37.6585 42.4269L37.6565 42.4259L37.6484 42.4218L37.6403 42.4178L37.6322 42.4138L37.6272 42.4117L37.6232 42.4097L37.6151 42.4057L37.607 42.4017L37.5989 42.3976L37.5959 42.3966L37.5909 42.3936L37.4738 42.333L37.4698 42.331L37.4617 42.327L37.4456 42.3189L37.4436 42.3179L37.4214 42.3068L37.4133 42.3028V42.3018L37.3558 42.2735L37.3497 42.2705L37.3467 42.2695L37.3386 42.2654L37.3134 42.2533L37.3053 42.2493L37.2973 42.2453L37.2892 42.2412L37.2872 42.2402L37.2811 42.2372L37.2731 42.2332L37.265 42.2291L37.2569 42.2251L37.2488 42.2211L37.2398 42.217L37.2317 42.213L37.2246 42.21L37.2226 42.2089L37.2135 42.2049L37.2055 42.2009L37.1964 42.1968L37.1913 42.1948L37.1873 42.1928L37.1782 42.1888L37.1691 42.1847L37.1611 42.1807C36.6465 41.9466 36.031 41.7579 35.0624 41.7579C33.7458 41.7579 33.0809 42.106 32.4382 42.443C31.8257 42.7639 31.2476 43.0655 30.0651 43.0655C28.8816 43.0655 28.3035 42.7629 27.6921 42.443C27.0494 42.106 26.3835 41.7579 25.0678 41.7579C24.2253 41.7579 23.6492 41.9002 23.175 42.0919C23.1447 42.3018 23.1165 42.5126 23.0912 42.7245C23.5836 42.4894 24.1395 42.3028 25.0678 42.3028C26.2503 42.3028 26.8284 42.6055 27.4408 42.9263C28.0835 43.2623 28.7494 43.6104 30.0651 43.6104C31.3808 43.6104 32.0457 43.2623 32.6894 42.9263C33.3018 42.6055 33.88 42.3028 35.0624 42.3028C36.2449 42.3028 36.8231 42.6055 37.4355 42.9263C37.8825 43.1604 38.3405 43.3995 39.0206 43.5236C39.067 43.5327 39.1144 43.5398 39.1638 43.5468L39.178 43.5488L39.185 43.5498L39.1931 43.5508L39.2082 43.5529L39.2234 43.5549L39.2345 43.5569H39.2375L39.2526 43.5589L39.2677 43.5609L39.2829 43.563H39.2839L39.298 43.565L39.3132 43.567L39.3283 43.569L39.3333 43.57L39.3434 43.571L39.3586 43.573L39.3737 43.5751L39.3838 43.5761L39.3898 43.5771L39.4211 43.5801L39.4352 43.5811H39.4362L39.4524 43.5831L39.4685 43.5841L39.4847 43.5862H39.4877L39.5008 43.5872L39.517 43.5882L39.5331 43.5892L39.5412 43.5902H39.5492L39.5664 43.5912L39.5825 43.5922L39.5957 43.5932H39.5997L39.6168 43.5942L39.633 43.5952L39.6501 43.5963H39.6511L39.6673 43.5973L39.6844 43.5983L39.7016 43.5993H39.7077H39.7188L39.7359 43.6003L39.7531 43.6013L39.7642 43.6023H39.7712L39.7884 43.6033L39.8055 43.6043H39.8217H39.8237H39.8418L39.86 43.6053H39.8782H39.8812H39.8963H39.9145L39.9326 43.6063H39.9407H39.9508H39.969H39.9871H40.0013H40.0063H40.0245H40.0426H40.0618H40.0628H40.1233H40.1243L40.1839 43.6053H40.1849L40.2434 43.6043L40.3009 43.6023L40.3584 43.6003H40.3594L40.4149 43.5973H40.4159L40.4714 43.5942H40.4724L40.5269 43.5902H40.5279L40.5814 43.5862L40.6339 43.5811L40.6863 43.5761L40.7378 43.571H40.7388L40.7892 43.565L40.8387 43.5589H40.8397L40.8881 43.5529H40.8891L40.9376 43.5458L40.985 43.5387L41.0324 43.5307L41.0788 43.5226H41.0798L41.1252 43.5145L41.1696 43.5054L41.214 43.4964L41.2574 43.4873H41.2584L41.3018 43.4772L41.3442 43.4671L41.3865 43.457L41.4279 43.4459L41.4683 43.4348L41.5086 43.4237L41.548 43.4126L41.5873 43.4005L41.6257 43.3884L41.664 43.3763L41.7013 43.3632L41.7387 43.3501L41.775 43.3369L41.8113 43.3238L41.8476 43.3107L41.8829 43.2966L41.9183 43.2835L41.9536 43.2694L41.9879 43.2552L42.0222 43.2411L42.0555 43.226L42.0888 43.2118L42.1221 43.1967L42.1544 43.1816L42.1866 43.1664L42.2189 43.1513L42.2512 43.1362L42.2825 43.121L42.3138 43.1059L42.345 43.0908L42.3763 43.0756L42.4076 43.0595H42.4086L42.4389 43.0444L42.4691 43.0282L42.4994 43.0121L42.5297 42.9959L42.56 42.9798L42.5902 42.9646L42.6205 42.9485L42.6508 42.9324L42.681 42.9162L42.7093 42.9011L42.7375 42.8859L42.7658 42.8708L42.794 42.8557L42.8223 42.8405L42.8505 42.8254L42.8788 42.8103L42.907 42.7951L42.9353 42.78L42.9635 42.7659L42.9928 42.7518L43.0221 42.7376L43.0513 42.7235L43.0806 42.7094L43.1098 42.6953L43.1391 42.6811H43.1401L43.1694 42.667L43.1986 42.6529L43.2289 42.6398L43.2592 42.6266L43.2894 42.6135L43.3207 42.6004L43.3833 42.5752L43.4145 42.5631L43.4468 42.551L43.4791 42.5389L43.5114 42.5268L43.5447 42.5147L43.578 42.5036L43.6113 42.4925L43.6456 42.4814L43.6799 42.4703L43.7152 42.4602L43.7505 42.4501L43.7868 42.44L43.8232 42.4299L43.8595 42.4208L43.8968 42.4117L43.9352 42.4027L43.9735 42.3936L44.0118 42.3855L44.0512 42.3774L44.0915 42.3704L44.1319 42.3633L44.1733 42.3562L44.2156 42.3492L44.258 42.3431L44.3014 42.3371L44.3458 42.331L44.3902 42.326L44.4356 42.3209L44.481 42.3159L44.5274 42.3119L44.5748 42.3078L44.6233 42.3038L44.6717 42.3008L44.7211 42.2977L44.7716 42.2957L44.823 42.2937L44.8755 42.2927L44.929 42.2917L44.9824 42.2907H45.0369H45.0874H45.0924H45.1368H45.1469L45.1863 42.2917L45.2004 42.2927H45.2095L45.2528 42.2937L45.2821 42.2947L45.3053 42.2957L45.3295 42.2967L45.3568 42.2977L45.3759 42.2987L45.4072 42.3008L45.4213 42.3018L45.4566 42.3038H45.4657L45.5051 42.3068H45.5101L45.5525 42.3108H45.5535L45.5959 42.3149H45.5989L45.6373 42.3189L45.6443 42.3199L45.6786 42.324L45.6907 42.325L45.72 42.329L45.7351 42.331L45.7603 42.3341L45.7785 42.3371L45.7997 42.3401L45.8219 42.3431L45.838 42.3452L45.8643 42.3492L45.8774 42.3512L45.9066 42.3562L45.9157 42.3573L45.948 42.3633L45.9531 42.3643L45.9894 42.3714H45.9904L46.0267 42.3784H46.0287L46.063 42.3855L46.0691 42.3865L46.0994 42.3926L46.1084 42.3946L46.1347 42.4006L46.1478 42.4037L46.17 42.4087L46.1861 42.4128L46.2235 42.4218L46.2386 42.4259L46.2608 42.4319L46.2719 42.4349L46.2971 42.442L46.3052 42.444L46.3334 42.4521L46.3687 42.4622H46.3708L46.4041 42.4723L46.4343 42.4814L46.4394 42.4834L46.4666 42.4914L46.4737 42.4935L46.4969 42.5015L46.508 42.5056L46.5282 42.5126L46.5413 42.5177L46.5584 42.5237L46.5746 42.5298L46.5887 42.5348L46.6079 42.5419L46.619 42.5459L46.6402 42.554L46.6482 42.557L46.6724 42.5661L46.6775 42.5681L46.7047 42.5782L46.7067 42.5792L46.736 42.5913H46.737L46.7642 42.6024L46.7683 42.6034L46.7935 42.6135L46.7996 42.6166L46.8208 42.6256L46.8298 42.6297L46.849 42.6377L46.8611 42.6428L46.8773 42.6499L46.8914 42.6559L46.9045 42.662L46.9216 42.67L46.9317 42.6751L46.9509 42.6842L46.958 42.6882L46.9802 42.6983L46.9852 42.7003L47.0104 42.7124L47.0125 42.7134L47.0387 42.7265L47.0649 42.7386L47.0679 42.7407L47.0912 42.7518L47.0972 42.7548L47.1184 42.7649L47.1265 42.7689L47.1446 42.778L47.1557 42.783L47.1709 42.7911L47.184 42.7982L47.1971 42.8052L47.2122 42.8133L47.2223 42.8184L47.2405 42.8274L47.2485 42.8315L47.413 42.9172C47.86 43.1513 48.318 43.3904 48.9981 43.5155L49.0667 43.5276L49.0677 43.5286L49.0969 43.5337L49.1111 43.5357H49.1131L49.1252 43.5377L49.1393 43.5397L49.1545 43.5418L49.1615 43.5428L49.1696 43.5438L49.1847 43.5458L49.1999 43.5478L49.211 43.5498H49.215L49.2301 43.5519L49.2453 43.5539L49.2604 43.5559L49.2755 43.5579L49.2907 43.5599L49.3058 43.5619L49.3108 43.563L49.3219 43.564L49.3371 43.566L49.3522 43.568L49.3613 43.569L49.3673 43.57L49.3825 43.572L49.3986 43.5741L49.4127 43.5751H49.4148L49.4309 43.5771L49.447 43.5781L49.4632 43.5801H49.4662L49.4793 43.5811L49.4955 43.5821L49.5116 43.5831L49.5187 43.5841H49.5278L49.5439 43.5852L49.5601 43.5862L49.5722 43.5872H49.5762L49.5933 43.5882L49.6105 43.5892L49.6277 43.5902H49.6287L49.6448 43.5912L49.662 43.5922L49.6791 43.5932H49.6852H49.6973L49.7144 43.5942L49.7316 43.5952L49.7417 43.5963H49.7487L49.7659 43.5973L49.783 43.5983H49.7992H49.8012H49.8183L49.8365 43.5993H49.8547H49.8577H49.8728H49.891L49.9091 43.6003H49.9172H49.9273H49.9455H49.9636H49.9778H49.9828H50.002H50.0211H50.0393H50.0403H50.1008H50.1019L50.1614 43.5993H50.1624L50.2209 43.5983L50.2794 43.5963H50.2804L50.338 43.5942L50.3945 43.5912H50.3955L50.451 43.5882L50.5054 43.5841L50.5589 43.5801L50.6114 43.5751H50.6124L50.6649 43.57L50.7163 43.565L50.7668 43.5589L50.8172 43.5529L50.8666 43.5468L50.9151 43.5397L50.9625 43.5327L51.0099 43.5246L51.0563 43.5165L51.1017 43.5085L51.1471 43.4994L51.1915 43.4903L51.2349 43.4812L51.2783 43.4711L51.3207 43.4611L51.363 43.451L51.4044 43.4399L51.4448 43.4288L51.4851 43.4177L51.5245 43.4066L51.5638 43.3945L51.6022 43.3824L51.6405 43.3702L51.6778 43.3571L51.7152 43.344L51.7525 43.3309L51.7888 43.3178L51.8251 43.3047L51.8605 43.2905L51.8958 43.2774L51.9311 43.2633L51.9654 43.2492L51.9997 43.235L52.033 43.2199L52.0663 43.2058L52.0996 43.1907L52.1329 43.1755L52.1662 43.1604L52.1985 43.1452L52.2307 43.1301L52.263 43.115L52.2943 43.0998L52.3256 43.0847L52.3569 43.0696L52.3881 43.0534L52.4194 43.0383L52.4507 43.0222L52.481 43.006L52.5112 42.9899L52.5415 42.9737L52.5718 42.9586L52.602 42.9424L52.6323 42.9263L52.6626 42.9102L52.6918 42.895L52.7201 42.8799L52.7483 42.8648L52.7766 42.8496L52.8048 42.8345L52.8341 42.8194L52.8623 42.8042L52.8906 42.7891L52.9199 42.774L52.9481 42.7598L52.9774 42.7457L53.0066 42.7316L53.0359 42.7175L53.0651 42.7033L53.0944 42.6892L53.1247 42.6751L53.1549 42.661L53.1852 42.6468L53.2155 42.6337L53.2457 42.6206L53.276 42.6075L53.3073 42.5944L53.3386 42.5812L53.3698 42.5681L53.4011 42.556L53.4334 42.5439L53.4657 42.5318L53.498 42.5197L53.5313 42.5076L53.5646 42.4965L53.5989 42.4854L53.6332 42.4743L53.6675 42.4632L53.7028 42.4531L53.7381 42.443L53.7744 42.4329L53.8108 42.4228L53.8481 42.4138L53.8864 42.4047L53.9248 42.3956L53.9631 42.3865L54.0025 42.3784L54.0418 42.3704L54.0822 42.3633L54.1225 42.3562L54.1639 42.3492L54.2063 42.3421L54.2497 42.3361L54.293 42.33L54.3374 42.324L54.3818 42.3189L54.4272 42.3139L54.4736 42.3088L54.5211 42.3048L54.5685 42.3008L54.6169 42.2967L54.6663 42.2937L54.7158 42.2907L54.7672 42.2887L54.8187 42.2866L54.8712 42.2856L54.9246 42.2846L54.9791 42.2836H55.0346H55.0901L55.1446 42.2846L55.1981 42.2856L55.2505 42.2866L55.302 42.2887L55.3524 42.2907L55.4019 42.2937L55.4513 42.2967L55.4997 42.3008L55.5472 42.3048L55.5936 42.3088L55.64 42.3139L55.6854 42.3189L55.7298 42.324L55.7742 42.33L55.8176 42.3361L55.8599 42.3421L55.9023 42.3492L55.9437 42.3562L55.985 42.3633L56.0254 42.3704L56.0658 42.3784L56.1051 42.3865L56.1435 42.3956L56.1818 42.4047L56.2191 42.4138L56.2565 42.4228L56.2928 42.4329L56.3291 42.443L56.3644 42.4531L56.3997 42.4632L56.434 42.4743L56.4683 42.4854L56.5026 42.4965L56.5359 42.5076L56.5692 42.5197L56.6015 42.5318L56.6338 42.5439L56.6661 42.556L56.6984 42.5681L56.7297 42.5812L56.7609 42.5944L56.7912 42.6075L56.8225 42.6206L56.8527 42.6337L56.883 42.6468L56.9133 42.661L56.9436 42.6751L56.9728 42.6892L57.0021 42.7033L57.0313 42.7175L57.0606 42.7316L57.0898 42.7457L57.1191 42.7598L57.1484 42.774L57.1776 42.7891L57.2069 42.8042L57.2351 42.8194L57.2634 42.8345L57.2926 42.8496L57.3209 42.8648L57.3491 42.8799L57.3774 42.895L57.4067 42.9102C58.0494 43.2461 58.7153 43.5942 60.0319 43.5942H60.0935L60.154 43.5932L60.2136 43.5922L60.2721 43.5902L60.3296 43.5882L60.3861 43.5852L60.4416 43.5821L60.4961 43.5781L60.5505 43.5741L60.604 43.569L60.6565 43.564L60.7079 43.5589L60.7584 43.5529L60.8088 43.5468L60.8583 43.5408L60.9067 43.5337L60.9541 43.5266L61.0015 43.5186L61.048 43.5105L61.0934 43.5024L61.1388 43.4933L61.1832 43.4843L61.2265 43.4752L61.2699 43.4651L61.3123 43.455L61.3547 43.4449L61.396 43.4338L61.4374 43.4227L61.4778 43.4116L61.5171 43.4005L61.5565 43.3884L61.5948 43.3763L61.6331 43.3642L61.6715 43.3511L61.7088 43.338L61.7462 43.3248L61.7825 43.3117L61.8188 43.2986L61.8541 43.2845L61.8894 43.2714L61.9237 43.2572L61.958 43.2431L61.9923 43.229L62.0256 43.2139L62.0589 43.1997L62.0922 43.1846L62.1255 43.1695L62.1578 43.1543L62.1901 43.1392L62.2224 43.1241L62.2547 43.1089L62.2859 43.0938L62.3172 43.0787L62.3485 43.0635L62.3798 43.0474L62.4111 43.0322L62.4423 43.0161L62.4726 43L62.5029 42.9838L62.5331 42.9677L62.5634 42.9525L62.5937 42.9364L62.6239 42.9203L62.6542 42.9041L62.6825 42.889L62.7107 42.8738L62.74 42.8587L62.7682 42.8436L62.7965 42.8284L62.8247 42.8133L62.853 42.7982L62.8822 42.783L62.9105 42.7679L62.9397 42.7538L62.969 42.7397L62.9983 42.7255L63.0275 42.7114L63.0568 42.6973L63.086 42.6831L63.1153 42.669L63.1456 42.6549L63.1758 42.6408L63.2061 42.6277L63.2364 42.6145L63.2666 42.6014L63.2979 42.5883L63.3292 42.5752L63.3605 42.5621L63.3928 42.55L63.425 42.5379L63.4573 42.5258L63.4906 42.5136L63.5239 42.5015L63.5582 42.4904L63.5925 42.4793L63.6268 42.4682L63.6611 42.4571L63.6965 42.4471L63.7318 42.437L63.7681 42.4269L63.8044 42.4168L63.8417 42.4077L63.8791 42.3986L63.9174 42.3895L63.9558 42.3805L63.9951 42.3724L64.0345 42.3643L64.0748 42.3573L64.1162 42.3502L64.1575 42.3431L64.1999 42.3361L64.2423 42.33L64.2857 42.324L64.3301 42.3179L64.3745 42.3129L64.4199 42.3078L64.4663 42.3028L64.5137 42.2987L64.5611 42.2947L64.6096 42.2907L64.659 42.2876L64.7094 42.2846L64.7599 42.2826L64.8113 42.2806L64.8638 42.2796L64.9173 42.2786L64.9718 42.2776H65.0262H65.0757H65.0807H65.1251H65.1352L65.1746 42.2786L65.1887 42.2796H65.1978L65.2412 42.2806L65.2694 42.2816L65.2926 42.2826L65.3158 42.2836L65.3431 42.2846L65.3622 42.2856L65.3935 42.2876L65.4076 42.2887L65.4429 42.2907H65.452L65.4914 42.2937H65.4964L65.5388 42.2977H65.5398L65.5822 42.3018H65.5862L65.6246 42.3058L65.6326 42.3068L65.6669 42.3108L65.679 42.3119L65.7083 42.3159L65.7234 42.3179L65.7487 42.3209L65.7678 42.324L65.788 42.327L65.8112 42.33L65.8274 42.332L65.8536 42.3361L65.8657 42.3381L65.896 42.3431L65.905 42.3441L65.9383 42.3502L65.9434 42.3512L65.9797 42.3583H65.9807L66.017 42.3653H66.0201L66.0534 42.3724L66.0887 42.3805L66.0988 42.3825L66.125 42.3885L66.1381 42.3916L66.1603 42.3966L66.1765 42.4006L66.1946 42.4047L66.2148 42.4097L66.2289 42.4138L66.2511 42.4198L66.2622 42.4228L66.2874 42.4299L66.2955 42.4319L66.3238 42.44L66.3278 42.441L66.3591 42.4501H66.3601L66.3924 42.4592H66.3944L66.4247 42.4682L66.4297 42.4703L66.4559 42.4783L66.464 42.4804L66.4872 42.4884L66.4983 42.4925L66.5185 42.4995L66.5326 42.5046L66.5498 42.5106L66.5659 42.5167L66.579 42.5217L66.6385 42.5439L66.6638 42.553L66.6678 42.555L66.6951 42.5651L66.6971 42.5661L66.7263 42.5782H66.7273L66.7546 42.5893L66.7586 42.5903L66.7828 42.6004L66.8393 42.6246L66.8514 42.6297L66.8676 42.6367L66.8817 42.6428L66.8948 42.6488L66.912 42.6569L66.9221 42.662C66.9675 42.6831 67.0119 42.7043 67.0563 42.7255L67.0593 42.7275C67.1178 42.7558 67.1753 42.7851 67.2318 42.8143L67.2389 42.8184L67.4033 42.9041C68.046 43.2401 68.7119 43.5882 70.0276 43.5882C71.3433 43.5882 72.0082 43.2401 72.6519 42.9041C72.7609 42.8577 72.884 42.7931 73.0111 42.7316ZM22.9258 44.1552C23.4525 43.8909 24.0215 43.6689 25.0335 43.6689C26.216 43.6689 26.7941 43.9716 27.4065 44.2914C28.0492 44.6284 28.7151 44.9765 30.0308 44.9765C31.3465 44.9765 32.0114 44.6284 32.6551 44.2914C33.2675 43.9706 33.8457 43.6689 35.0281 43.6689C36.2106 43.6689 36.7888 43.9716 37.4012 44.2914C38.0449 44.6284 38.7098 44.9765 40.0265 44.9765C40.3927 44.9765 40.7085 44.9493 40.987 44.9028L40.9951 44.9018L41.0213 44.8978L41.0415 44.8938L41.0556 44.8907H41.0586L41.0899 44.8847L41.1232 44.8776L41.1323 44.8756L41.1565 44.8706L41.2221 44.8564L41.2544 44.8494L41.2645 44.8473L41.2867 44.8423L41.3805 44.8191L41.3906 44.8161L41.4108 44.81L41.5006 44.7848L41.5106 44.7818L41.5298 44.7757L41.5883 44.7576H41.5893L41.6166 44.7485L41.6277 44.7454L41.6448 44.7394L41.7286 44.7111L41.7397 44.7071L41.7558 44.701L41.7831 44.691L41.8103 44.6809L41.8133 44.6799L41.8375 44.6708L41.9162 44.6405L41.9193 44.6395L41.9415 44.6304L41.9536 44.6254L41.9667 44.6193L41.9879 44.6102L41.9929 44.6082L42.0181 44.5971L42.0222 44.5951L42.0434 44.586L42.0555 44.581L42.0676 44.5759L42.0888 44.5669L42.0928 44.5648L42.1412 44.5426L42.1544 44.5366L42.1655 44.5315L42.1866 44.5215L42.1897 44.5204L42.2139 44.5093L42.2189 44.5063L42.2381 44.4972L42.2512 44.4912L42.2623 44.4861L42.3329 44.4518L42.3461 44.4448L42.3561 44.4397L42.3783 44.4286L42.3804 44.4276L42.4036 44.4165L42.4096 44.4135L42.4268 44.4054L42.4409 44.3984L42.45 44.3933L42.4722 44.3822L42.4732 44.3812L42.4964 44.3691L42.5035 44.3661L42.5196 44.358L42.565 44.3348L42.5872 44.3227L42.5943 44.3187L42.6094 44.3106L42.6548 44.2864L42.683 44.2712L42.7113 44.2561L42.7395 44.241L42.7678 44.2258L42.796 44.2107L42.8243 44.1956L42.8526 44.1804L42.8808 44.1663L42.9091 44.1512L42.9373 44.136L42.9666 44.1219L42.9958 44.1078L43.0251 44.0937L43.0543 44.0795L43.0836 44.0654L43.1129 44.0513H43.1139L43.1431 44.0372L43.1724 44.024L43.2027 44.0109L43.2329 43.9978L43.2632 43.9847L43.2945 43.9716L43.357 43.9464L43.3883 43.9342L43.4206 43.9221L43.4529 43.91L43.4852 43.8979L43.5185 43.8858L43.5518 43.8747L43.585 43.8636L43.6194 43.8525L43.6537 43.8414L43.689 43.8313L43.7243 43.8212L43.7606 43.8112L43.7969 43.8021L43.8333 43.792L43.8706 43.7829L43.9089 43.7738L43.9473 43.7658L43.9856 43.7577L44.025 43.7496L44.0653 43.7415L44.1057 43.7345L44.147 43.7274L44.1894 43.7203L44.2318 43.7143L44.2752 43.7082L44.3196 43.7022L44.364 43.6971L44.4094 43.6921L44.4548 43.6871L44.5012 43.683L44.5486 43.679L44.597 43.676L44.6455 43.6729L44.6949 43.6699L44.7453 43.6679L44.7968 43.6659L44.8493 43.6649L44.9027 43.6638H44.9562H45.0107H45.0278H45.045H45.0622H45.0662H45.0793H45.0965H45.1136H45.1207H45.1298H45.1469H45.1641H45.1741H45.1802H45.1963L45.2125 43.6649H45.2256H45.2286H45.2448L45.2609 43.6659L45.2771 43.6669H45.2781L45.2932 43.6679L45.3093 43.6689L45.3255 43.6699H45.3295L45.3406 43.6709L45.3568 43.6719L45.3729 43.6729H45.38L45.388 43.6739L45.4032 43.6749L45.4183 43.676L45.4284 43.677H45.4334L45.4768 43.68H45.4788L45.494 43.681L45.5253 43.684L45.5384 43.685L45.5535 43.686L45.5676 43.6871H45.5727L45.5828 43.6881L45.5979 43.6901L45.612 43.6911L45.6191 43.6921L45.6262 43.6931L45.6403 43.6951L45.6544 43.6971L45.6645 43.6982L45.6958 43.7012L45.7089 43.7032H45.7099L45.724 43.7052L45.7513 43.7093H45.7533L45.7785 43.7123L45.7916 43.7143L45.7967 43.7153L45.832 43.7203L45.839 43.7214L45.9228 43.7355C46.5413 43.8445 46.9539 44.0604 47.3858 44.2864C48.0295 44.6234 48.6944 44.9715 50.0111 44.9715C50.3622 44.9715 50.6669 44.9462 50.9373 44.9038L50.9726 44.8978L50.9807 44.8968L51.0069 44.8928L51.0271 44.8887L51.0412 44.8857L51.0725 44.8796H51.0745L51.1078 44.8726L51.1169 44.8706L51.1411 44.8655L51.1744 44.8584L51.2057 44.8514L51.2067 44.8504L51.2389 44.8433L51.248 44.8413L51.2702 44.8363L51.2904 44.8312L51.3015 44.8282L51.3318 44.8211L51.363 44.813L51.3731 44.81L51.3933 44.804L51.4135 44.7989L51.4236 44.7959L51.4539 44.7878L51.4831 44.7787L51.4932 44.7757L51.5124 44.7697L51.5325 44.7636L51.5416 44.7606L51.5699 44.7515H51.5709L51.5981 44.7424L51.6092 44.7394L51.6264 44.7333L51.6466 44.7263L51.6546 44.7232L51.6829 44.7142L51.6849 44.7132L51.7111 44.7041L51.7222 44.7L51.7384 44.694L51.7586 44.6869L51.7656 44.6849L51.7929 44.6748L51.7959 44.6738L51.8201 44.6647L51.8312 44.6607L51.8463 44.6546L51.8665 44.6466L51.8726 44.6445L51.8988 44.6345L51.9018 44.6335L51.924 44.6244L51.9361 44.6193L51.9503 44.6133L51.9704 44.6042L51.9755 44.6022L52.0007 44.5911L52.0047 44.5891L52.0259 44.58L52.038 44.5749L52.0501 44.5699L52.0703 44.5608L52.0744 44.5588L52.0986 44.5477L52.1026 44.5457L52.1228 44.5366L52.1349 44.5305L52.147 44.5255L52.1672 44.5154L52.1702 44.5144L52.1944 44.5033L52.1995 44.5003L52.2186 44.4912L52.2318 44.4851L52.2429 44.4801L52.264 44.47L52.2671 44.469L52.2903 44.4579L52.2953 44.4549L52.3135 44.4458L52.3266 44.4387L52.3367 44.4337L52.3579 44.4226L52.3599 44.4216L52.3831 44.4105L52.3891 44.4074L52.4063 44.3994L52.4204 44.3923L52.4295 44.3873L52.4507 44.3762L52.4517 44.3752L52.4749 44.3631L52.481 44.36L52.4971 44.352L52.5112 44.3439L52.5193 44.3398L52.5415 44.3287H52.5425L52.5647 44.3166L52.5718 44.3126L52.5869 44.3045L52.601 44.2965L52.6091 44.2924L52.6313 44.2803L52.6606 44.2652L52.6888 44.25L52.7171 44.2349L52.7453 44.2198L52.7736 44.2046L52.8028 44.1895L52.8311 44.1744L52.8593 44.1603L52.8886 44.1451L52.9168 44.13L52.9461 44.1159L52.9753 44.1017L53.0046 44.0876L53.0339 44.0735L53.0631 44.0594L53.0934 44.0452L53.1237 44.0311L53.1539 44.018L53.1842 44.0049L53.2145 43.9918L53.2447 43.9786L53.276 43.9655L53.3073 43.9524L53.3386 43.9403L53.3698 43.9282L53.4021 43.9161L53.4344 43.904L53.4667 43.8919L53.5 43.8798L53.5333 43.8687L53.5676 43.8576L53.6019 43.8465L53.6362 43.8354L53.6715 43.8253L53.7068 43.8152L53.7432 43.8051L53.7795 43.796L53.8168 43.7859L53.8552 43.7769L53.8935 43.7678L53.9318 43.7597L53.9712 43.7516L54.0105 43.7436L54.0509 43.7355L54.0912 43.7284L54.1326 43.7214L54.175 43.7143L54.2184 43.7082L54.2618 43.7022L54.3062 43.6961L54.3505 43.6911L54.396 43.686L54.4424 43.681L54.4898 43.677L54.5372 43.6729L54.5856 43.6699L54.6351 43.6669L54.6845 43.6638L54.736 43.6618L54.7874 43.6598L54.8399 43.6588L54.8934 43.6578H54.9478H55.0033H55.0588H55.1133L55.1668 43.6588L55.2193 43.6598L55.2707 43.6618L55.3212 43.6638L55.3706 43.6669L55.42 43.6699L55.4685 43.6729L55.5159 43.677L55.5623 43.681L55.6087 43.686L55.6541 43.6911L55.6985 43.6961L55.7429 43.7022L55.7863 43.7082L55.8287 43.7143L55.871 43.7214L55.9124 43.7284L55.9538 43.7355L55.9941 43.7436L56.0345 43.7516L56.0738 43.7597L56.1122 43.7678L56.1505 43.7769L56.1878 43.7859L56.2252 43.796L56.2615 43.8051L56.2978 43.8152L56.3331 43.8253L56.3684 43.8354L56.4028 43.8465L56.4371 43.8576L56.4714 43.8687L56.5047 43.8798L56.538 43.8919L56.5702 43.904L56.6025 43.9161L56.6348 43.9282L56.6671 43.9403L56.6984 43.9524L56.7297 43.9655L56.7599 43.9786L56.7912 43.9918L56.8215 44.0049L56.8517 44.018L56.882 44.0311L56.9123 44.0452L56.9415 44.0594L56.9708 44.0735L57.0001 44.0876L57.0293 44.1017L57.0586 44.1159L57.0878 44.13L57.1171 44.1451L57.1463 44.1603L57.1756 44.1744L57.2039 44.1895L57.2321 44.2046L57.2614 44.2198L57.2896 44.2349L57.3179 44.25L57.3461 44.2652L57.3754 44.2803C58.0181 44.6173 58.684 44.9654 60.0007 44.9654L60.0622 44.9644L60.1227 44.9634L60.1823 44.9624L60.2408 44.9604L60.2983 44.9583L60.3548 44.9553L60.4103 44.9523L60.4648 44.9493L60.5193 44.9452L60.5727 44.9402L60.6252 44.9351L60.6767 44.9301L60.7271 44.924L60.7776 44.918L60.827 44.9119L60.8754 44.9049L60.9229 44.8978L60.9703 44.8897L61.0167 44.8817L61.0621 44.8736L61.1075 44.8645L61.1519 44.8554L61.1953 44.8463L61.2387 44.8363L61.281 44.8262L61.3234 44.8161L61.3648 44.805L61.4061 44.7939L61.4465 44.7828L61.4858 44.7707L61.5252 44.7596L61.5635 44.7475L61.6019 44.7354L61.6402 44.7232L61.6775 44.7101L61.7149 44.697L61.7512 44.6839L61.7875 44.6708L61.8228 44.6577L61.8581 44.6435L61.8925 44.6294L61.9268 44.6153L61.9611 44.6012L61.9944 44.587L62.0276 44.5729L62.0609 44.5578L62.0942 44.5426L62.1265 44.5275L62.1588 44.5124L62.1911 44.4972L62.2234 44.4821L62.2547 44.467L62.2859 44.4518L62.3172 44.4367L62.3485 44.4216L62.3798 44.4054L62.4111 44.3893L62.4413 44.3742L62.4716 44.358L62.5019 44.3419L62.5321 44.3257L62.5624 44.3096L62.5927 44.2934L62.6229 44.2773L62.6512 44.2622L62.6794 44.247L62.7087 44.2319L62.7369 44.2168L62.7652 44.2016L62.7934 44.1865L62.8217 44.1714L62.851 44.1572L62.8792 44.1421L62.9085 44.127L62.9377 44.1128L62.967 44.0987L62.9962 44.0846L63.0255 44.0705L63.0548 44.0563L63.084 44.0422L63.1143 44.0281L63.1446 44.015L63.1748 44.0018L63.2051 43.9887L63.2354 43.9756L63.2666 43.9625L63.2979 43.9494L63.3292 43.9373L63.3615 43.9252L63.3938 43.9131L63.4261 43.901L63.4594 43.8888L63.4926 43.8767L63.527 43.8656L63.5613 43.8545L63.5956 43.8434L63.6299 43.8323L63.6652 43.8223L63.7005 43.8122L63.7368 43.8021L63.7731 43.793L63.8105 43.7829L63.8478 43.7738L63.8861 43.7647L63.9245 43.7567L63.9638 43.7486L64.0032 43.7405L64.0435 43.7325L64.0849 43.7254L64.1263 43.7183L64.1686 43.7113L64.211 43.7052L64.2544 43.6992L64.2988 43.6931L64.3432 43.6881L64.3886 43.683L64.435 43.678L64.4824 43.6739L64.5299 43.6699L64.5783 43.6669L64.6277 43.6638L64.6782 43.6608L64.7286 43.6588L64.7801 43.6568L64.8325 43.6558L64.886 43.6548H64.9405H64.995H65.0121H65.0293H65.0464H65.0505H65.0636H65.0807H65.0969H65.1039H65.114H65.1302H65.1473H65.1584H65.1645H65.1806L65.1968 43.6558H65.2109H65.2129H65.229L65.2452 43.6568L65.2613 43.6578H65.2623L65.2775 43.6588L65.2926 43.6598L65.3088 43.6608H65.3128L65.3239 43.6618L65.339 43.6628L65.3542 43.6638H65.3612L65.3693 43.6649L65.3844 43.6659L65.3996 43.6669L65.4107 43.6679H65.4147L65.445 43.6699L65.4581 43.6709H65.4601L65.4752 43.6719L65.5055 43.6749H65.5075L65.5206 43.676L65.5358 43.677L65.5499 43.678H65.5549L65.564 43.679L65.5781 43.681L65.5933 43.682L65.6014 43.683L65.6084 43.684L65.6225 43.686L65.6367 43.6881L65.6478 43.6891H65.6508L65.6649 43.6911L65.679 43.6931L65.6922 43.6951L65.7063 43.6971L65.7204 43.6992L65.7345 43.7012H65.7376L65.7487 43.7032L65.7628 43.7052L65.7769 43.7072L65.782 43.7082L65.79 43.7093L65.8031 43.7113L65.8163 43.7133L65.8243 43.7143L65.8294 43.7153L65.8425 43.7173L65.8556 43.7193L65.8667 43.7214H65.8687L65.8818 43.7234L65.895 43.7254L65.9081 43.7274H65.9091L65.9212 43.7294L65.9343 43.7314L65.9474 43.7335C66.5457 43.8434 66.9503 44.0563 67.3721 44.2773C68.0148 44.6143 68.6807 44.9624 69.9963 44.9624C71.312 44.9624 71.9769 44.6143 72.6206 44.2773C72.7851 44.1915 72.9465 44.1068 73.118 44.0291C73.1049 43.8374 73.0898 43.6457 73.0726 43.455C72.8184 43.5599 72.5924 43.677 72.3694 43.794C71.757 44.1149 71.1788 44.4175 69.9963 44.4175C68.8139 44.4175 68.2357 44.1149 67.6233 43.794C67.2924 43.6205 66.9554 43.4449 66.5266 43.3148L66.5245 43.3137L66.5074 43.3087L66.4882 43.3037L66.4842 43.3026L66.469 43.2986L66.4297 43.2875L66.4105 43.2825L66.3904 43.2774L66.3702 43.2724L66.3631 43.2704L66.351 43.2673L66.3308 43.2623L66.2905 43.2522L66.2804 43.2492L66.2703 43.2472L66.2491 43.2421L66.2279 43.2371L66.2067 43.232L66.1936 43.229L66.1855 43.227C66.1432 43.2179 66.0998 43.2088 66.0554 43.2007L66.0332 43.1967L66.014 43.1927H66.011L65.9888 43.1886L65.9686 43.1856H65.9666L65.9434 43.1816L65.9212 43.1775H65.9202L65.897 43.1735L65.8506 43.1664L65.8263 43.1634L65.8243 43.1624L65.8031 43.1594L65.7789 43.1563L65.7749 43.1553L65.7547 43.1533L65.7063 43.1473L65.6811 43.1442L65.674 43.1432L65.6558 43.1412L65.6306 43.1392L65.6225 43.1382L65.6054 43.1362L65.5802 43.1341L65.5701 43.1331L65.5539 43.1321L65.5277 43.1301L65.5015 43.1281L65.4752 43.1261L65.4621 43.1251L65.449 43.1241L65.4218 43.122L65.4066 43.121L65.3955 43.12L65.3683 43.119L65.3511 43.118L65.341 43.117L65.3138 43.116L65.2946 43.115H65.2856L65.2573 43.114L65.2361 43.113H65.229L65.2008 43.112L65.1776 43.1109H65.1726H65.1443L65.1191 43.1099H65.115H65.0858H65.0585H65.0565H65.0273H64.998H64.9365L64.8769 43.1109L64.8174 43.112L64.7589 43.114L64.7014 43.116L64.6449 43.119L64.5894 43.122L64.5349 43.1261L64.4804 43.1301L64.4269 43.1352L64.3745 43.1402L64.323 43.1452L64.2726 43.1513L64.2221 43.1574L64.1727 43.1634L64.1242 43.1705L64.0768 43.1775L64.0294 43.1856L63.983 43.1937L63.9376 43.2018L63.8922 43.2098L63.8478 43.2189L63.8044 43.229L63.761 43.2381L63.7187 43.2482L63.6763 43.2583L63.6349 43.2694L63.5935 43.2804L63.5532 43.2915L63.5138 43.3037L63.4745 43.3158L63.4361 43.3279L63.3978 43.34L63.3595 43.3521L63.3221 43.3652L63.2848 43.3783L63.2485 43.3914L63.2122 43.4046L63.1768 43.4187L63.1415 43.4318L63.1062 43.4459L63.0719 43.46L63.0376 43.4742L63.0033 43.4893L62.97 43.5034L62.9367 43.5186L62.9034 43.5337L62.8711 43.5488L62.8388 43.564L62.8066 43.5791L62.7743 43.5942L62.743 43.6094L62.7117 43.6245L62.6804 43.6396L62.6492 43.6558L62.6179 43.6709L62.5876 43.6871L62.5574 43.7032L62.5271 43.7193L62.4968 43.7355L62.4665 43.7516L62.4363 43.7678L62.406 43.7839L62.3757 43.8001L62.3475 43.8152L62.3192 43.8303L62.291 43.8455L62.2617 43.8606L62.2335 43.8757L62.2052 43.8899L62.177 43.905L62.1477 43.9201L62.1185 43.9342L62.0902 43.9484L62.0609 43.9625L62.0317 43.9766L62.0024 43.9908L61.9732 44.0049L61.9439 44.019L61.9146 44.0331L61.8844 44.0473L61.8541 44.0604L61.8238 44.0735L61.7936 44.0866L61.7623 44.0997L61.731 44.1128L61.6997 44.1259L61.6685 44.1391L61.6362 44.1512L61.6039 44.1633L61.5716 44.1754L61.5393 44.1875L61.506 44.1986L61.4727 44.2097L61.4384 44.2208L61.4041 44.2319L61.3698 44.243L61.3345 44.2531L61.2992 44.2632L61.2629 44.2733L61.2265 44.2833L61.1892 44.2924L61.1519 44.3015L61.1135 44.3106L61.0752 44.3197L61.0359 44.3277L60.9955 44.3358L60.9551 44.3439L60.9138 44.3509L60.8724 44.358L60.83 44.3651L60.7877 44.3711L60.7443 44.3772L60.7009 44.3832L60.6565 44.3883L60.6111 44.3933L60.5647 44.3974L60.5173 44.4024L60.4698 44.4064L60.4214 44.4105L60.372 44.4135L60.3225 44.4165L60.2721 44.4185L60.2206 44.4206L60.1682 44.4216L60.1147 44.4226H60.0602L60.0057 44.4236L59.9502 44.4226H59.8957L59.8423 44.4216L59.7898 44.4206L59.7383 44.4185L59.6869 44.4165L59.6364 44.4135L59.587 44.4105L59.5386 44.4064L59.4911 44.4024L59.4437 44.3974L59.3973 44.3933L59.3519 44.3883L59.3065 44.3832L59.2621 44.3772L59.2187 44.3711L59.1764 44.3651L59.134 44.358L59.0926 44.3509L59.0512 44.3439L59.0109 44.3358L58.9705 44.3277L58.9312 44.3197L58.8928 44.3106L58.8545 44.3015L58.8172 44.2924L58.7808 44.2833L58.7445 44.2733L58.7082 44.2632L58.6729 44.2531L58.6376 44.243L58.6033 44.2319L58.569 44.2208L58.5347 44.2097L58.5014 44.1986L58.4681 44.1875L58.4348 44.1754L58.4025 44.1633L58.3702 44.1512L58.3379 44.1391L58.3066 44.1259L58.2754 44.1128L58.2441 44.0997L58.2138 44.0866L58.1835 44.0735L58.1533 44.0604L58.123 44.0473L58.0938 44.0331L58.0645 44.019L58.0352 44.0049L58.006 43.9908L57.9767 43.9766L57.9475 43.9625L57.9182 43.9484L57.8889 43.9342L57.8607 43.9201L57.8324 43.905L57.8042 43.8899L57.7759 43.8757L57.7477 43.8606L57.7194 43.8455L57.6912 43.8303L57.6629 43.8152L57.6347 43.8001L57.6044 43.7839L57.5741 43.7678L57.5439 43.7516L57.5136 43.7355L57.4833 43.7193L57.4531 43.7032L57.4228 43.6871L57.3915 43.6709L57.3602 43.6558L57.329 43.6396L57.2977 43.6245L57.2664 43.6094L57.2351 43.5942L57.2029 43.5791L57.1706 43.564L57.1383 43.5488L57.105 43.5337L57.0727 43.5186L57.0394 43.5034L57.0061 43.4893L56.9728 43.4742L56.9385 43.46L56.9042 43.4459L56.8689 43.4318L56.8336 43.4187L56.7983 43.4046L56.7619 43.3914L56.7256 43.3783L56.6893 43.3652L56.652 43.3521L56.6146 43.34L56.5763 43.3279L56.538 43.3158L56.4986 43.3037L56.4582 43.2915L56.4179 43.2804L56.3765 43.2694L56.3352 43.2583L56.2928 43.2482L56.2504 43.2381L56.207 43.229L56.1636 43.2189L56.1192 43.2098L56.0738 43.2018L56.0284 43.1937L55.982 43.1856L55.9346 43.1775L55.8862 43.1705L55.8377 43.1634L55.7883 43.1574L55.7379 43.1513L55.6874 43.1452L55.6359 43.1402L55.5835 43.1352L55.53 43.1301L55.4755 43.1261L55.421 43.122L55.3656 43.119L55.3091 43.116L55.2515 43.114L55.193 43.112L55.1335 43.1109L55.073 43.1099H55.0114H54.9499L54.8893 43.1109L54.8298 43.112L54.7713 43.114L54.7138 43.116L54.6573 43.119L54.6018 43.122L54.5463 43.1261L54.4918 43.1301L54.4383 43.1352L54.3859 43.1402L54.3344 43.1452L54.2829 43.1513L54.2325 43.1574L54.1831 43.1634L54.1346 43.1705L54.0872 43.1775L54.0398 43.1856L53.9934 43.1937L53.948 43.2018L53.9026 43.2098L53.8582 43.2189L53.8138 43.229L53.7704 43.2381L53.727 43.2482L53.6846 43.2583L53.6433 43.2694L53.6019 43.2804L53.5615 43.2915L53.5222 43.3037L53.4828 43.3158L53.4445 43.3279L53.4062 43.34L53.3678 43.3521L53.3305 43.3652L53.2942 43.3783L53.2579 43.3914L53.2215 43.4046L53.1862 43.4187L53.1509 43.4318L53.1156 43.4459L53.0813 43.46L53.047 43.4742L53.0127 43.4893L52.9794 43.5034L52.9461 43.5186L52.9128 43.5337L52.8805 43.5488L52.8482 43.564L52.8159 43.5791L52.7836 43.5942L52.7524 43.6094L52.7211 43.6245L52.6898 43.6396L52.6585 43.6558L52.6273 43.6709L52.596 43.6871L52.5657 43.7032L52.5354 43.7193L52.5052 43.7355L52.4749 43.7516L52.4446 43.7678L52.4144 43.7839L52.3841 43.8001L52.3569 43.8142L52.3548 43.8152L52.3296 43.8283L52.3256 43.8303L52.3024 43.8424L52.2963 43.8455L52.2751 43.8566L52.2681 43.8606L52.2489 43.8707L52.2398 43.8757L52.2217 43.8848L52.2106 43.8899L52.1944 43.8979L52.1813 43.904L52.1672 43.911L52.152 43.9181L52.1399 43.9242L52.1238 43.9322L52.1137 43.9373L52.0955 43.9464L52.0865 43.9504L52.0663 43.9605L52.0592 43.9635L52.037 43.9746L52.032 43.9776L52.0078 43.9887L52.0047 43.9908L51.9503 44.017H51.9492L51.922 44.0301L51.92 44.0311L51.917 44.0321L51.8605 44.0583L51.8383 44.0684L51.8302 44.0725L51.7999 44.0856L51.7818 44.0937L51.7697 44.0987L51.7525 44.1058L51.7071 44.1249L51.694 44.13L51.6748 44.137L51.6637 44.1411L51.6425 44.1492L51.6102 44.1613L51.6032 44.1643L51.578 44.1734L51.5729 44.1754L51.5447 44.1855L51.5416 44.1865L51.5114 44.1966L51.5104 44.1976L51.4791 44.2087H51.4781L51.4468 44.2188L51.4438 44.2198L51.4095 44.2309L51.3822 44.24L51.3741 44.242L51.3489 44.25L51.3388 44.2531L51.3156 44.2601L51.3035 44.2632L51.2823 44.2692L51.2672 44.2733L51.248 44.2783L51.2309 44.2833L51.2137 44.2874L51.1935 44.2924L51.1784 44.2965L51.1562 44.3015C51.0926 44.3166 51.0281 44.3308 50.9595 44.3429H50.9585L50.9201 44.3499H50.9191L50.8777 44.357L50.8424 44.3631L50.8354 44.3641C50.6659 44.3903 50.4802 44.4085 50.2754 44.4175H50.2744C50.1896 44.4216 50.1008 44.4226 50.009 44.4226C48.8255 44.4226 48.2474 44.1199 47.635 43.7991C47.304 43.6255 46.9671 43.45 46.5393 43.3198L46.5362 43.3188L46.5201 43.3137L46.5009 43.3087L46.4969 43.3077L46.4817 43.3037L46.4626 43.2976L46.4575 43.2956L46.4434 43.2915L46.4242 43.2865L46.4172 43.2845L46.4041 43.2804L46.3839 43.2754L46.3768 43.2734L46.3647 43.2704L46.3445 43.2653L46.3354 43.2633L46.3243 43.2603L46.3042 43.2552L46.2931 43.2522L46.283 43.2502L46.2618 43.2451L46.2497 43.2421L46.2406 43.2401L46.2194 43.235L46.2063 43.232L46.1982 43.23L46.177 43.225L46.1619 43.2219L46.1548 43.2209L46.1337 43.2169L46.1175 43.2139L46.1125 43.2128L46.0903 43.2088L46.0721 43.2058L46.0681 43.2048L46.0459 43.2007L46.0267 43.1967H46.0237L46.0015 43.1927L45.9803 43.1896H45.9783L45.9551 43.1856L45.9329 43.1816L45.9097 43.1775L45.8865 43.1735H45.8855L45.8633 43.1705L45.84 43.1674L45.837 43.1664L45.8158 43.1634L45.7916 43.1604L45.7876 43.1594L45.7674 43.1574L45.7634 43.1563L45.72 43.1513H45.719L45.6938 43.1483L45.6867 43.1473L45.6685 43.1452L45.6433 43.1432L45.6352 43.1422L45.6181 43.1402L45.5929 43.1382L45.5828 43.1372L45.5676 43.1362L45.5414 43.1341L45.5152 43.1321L45.4889 43.1301L45.4748 43.1291L45.4617 43.1281L45.4355 43.1261L45.4203 43.1251L45.4092 43.1241L45.382 43.1231L45.3648 43.122L45.3547 43.121L45.3275 43.12L45.3083 43.119H45.3003L45.272 43.118L45.2508 43.117H45.2448L45.2165 43.116L45.1933 43.115H45.1883H45.16L45.1348 43.114H45.1308H45.1015H45.0743H45.0722H45.043H45.0127H44.9512L44.8906 43.115L44.8311 43.116L44.7726 43.118L44.7151 43.12L44.6586 43.1231L44.6031 43.1261L44.5476 43.1301L44.4931 43.1341L44.4396 43.1392L44.3872 43.1442L44.3357 43.1493L44.2853 43.1553L44.2348 43.1614L44.1854 43.1674L44.1369 43.1745L44.0895 43.1816L44.0421 43.1896L43.9957 43.1977L43.9503 43.2058L43.9059 43.2139L43.8615 43.2229L43.8171 43.233L43.7737 43.2421L43.7313 43.2522L43.69 43.2623L43.6486 43.2734L43.6083 43.2845H43.6072L43.5669 43.2956L43.5265 43.3077L43.4872 43.3198L43.4478 43.3319L43.4095 43.344L43.3722 43.3561L43.3348 43.3692L43.2985 43.3824L43.2622 43.3955L43.2259 43.4086L43.1905 43.4227L43.1552 43.4358L43.1199 43.45L43.0856 43.4641L43.0513 43.4782L43.018 43.4933L42.9847 43.5075L42.9514 43.5226L42.9191 43.5377L42.8869 43.5529L42.8546 43.568L42.8223 43.5831L42.79 43.5983L42.7587 43.6134L42.7274 43.6285L42.6962 43.6437L42.6649 43.6598L42.6346 43.6749L42.6043 43.6911L42.5741 43.7072L42.5438 43.7234L42.5135 43.7395L42.4833 43.7557L42.453 43.7718L42.4227 43.788L42.3925 43.8041L42.3652 43.8182L42.3632 43.8192L42.338 43.8323L42.335 43.8344L42.3118 43.8465L42.3067 43.8495L42.2855 43.8606L42.2785 43.8646L42.2583 43.8747L42.2492 43.8798L42.231 43.8888L42.2199 43.8939L42.2038 43.902L42.1917 43.908L42.1776 43.9151L42.1634 43.9221L42.1513 43.9282L42.0968 43.9554L42.0767 43.9655L42.0696 43.9686L42.0474 43.9797L42.0424 43.9827L42.0181 43.9938L42.0151 43.9958L41.9889 44.0079L41.9869 44.0089L41.9596 44.022L41.9041 44.0483L41.9001 44.0503L41.8759 44.0614L41.8698 44.0644L41.8476 44.0745L41.8396 44.0785L41.8194 44.0876L41.8093 44.0916L41.7901 44.0997L41.7609 44.1118L41.7467 44.1179L41.7316 44.1239L41.7155 44.13L41.7023 44.135L41.6731 44.1471L41.6529 44.1552L41.6438 44.1592L41.6206 44.1683L41.6136 44.1714L41.5883 44.1804L41.5823 44.1825L41.555 44.1925L41.551 44.1935L41.5217 44.2036L41.5197 44.2046L41.4885 44.2157L41.4572 44.2258L41.4541 44.2268L41.4249 44.2359L41.4198 44.2379L41.3926 44.247L41.3855 44.249L41.3593 44.2571L41.3502 44.2601L41.326 44.2672L41.3139 44.2702L41.2927 44.2763L41.2776 44.2803L41.2584 44.2854L41.2413 44.2904L41.2241 44.2944L41.2049 44.2995L41.1898 44.3035L41.1676 44.3086L41.1545 44.3116L41.1293 44.3176L41.1182 44.3207L41.0909 44.3267L41.0818 44.3287L41.0516 44.3348L41.0455 44.3368L41.0122 44.3439L41.0082 44.3449L40.9719 44.352H40.9709L40.9325 44.359H40.9315L40.8942 44.3661H40.8901L40.8548 44.3721L40.8478 44.3731C40.7489 44.3883 40.644 44.4014 40.534 44.4115L40.5178 44.4125L40.4866 44.4145C40.422 44.4196 40.3564 44.4236 40.2878 44.4266H40.2868C40.202 44.4307 40.1133 44.4317 40.0214 44.4317C38.8389 44.4317 38.2608 44.129 37.6484 43.8081C37.0047 43.4711 36.3398 43.1241 35.0241 43.1241C33.7074 43.1241 33.0425 43.4722 32.3998 43.8081C31.7874 44.129 31.2093 44.4317 30.0268 44.4317C28.8433 44.4317 28.2651 44.129 27.6537 43.8081C27.011 43.4711 26.3451 43.1241 25.0294 43.1241C24.0851 43.1241 23.4757 43.3037 22.9692 43.5297C22.955 43.7375 22.9389 43.9464 22.9258 44.1552Z" fill="#00930C"/>
<path fill-rule="evenodd" clip-rule="evenodd" d="M59.9722 23.5232C59.7593 26.2262 57.4982 28.3541 54.7407 28.3541C51.842 28.3541 49.4922 26.0042 49.4922 23.1055C49.4922 22.2025 49.7212 21.352 50.1228 20.6094C53.6632 20.9 56.9968 21.921 59.9722 23.5232Z" fill="#F8BF14"/>
<defs>
<filter id="filter0_d_659_121265" x="0.742188" y="0.46875" width="94.582" height="66.0059" filterUnits="userSpaceOnUse" color-interpolation-filters="sRGB">
<feFlood flood-opacity="0" result="BackgroundImageFix"/>
<feColorMatrix in="SourceAlpha" type="matrix" values="0 0 0 0 0 0 0 0 0 0 0 0 0 0 0 0 0 0 127 0" result="hardAlpha"/>
<feOffset dy="2"/>
<feGaussianBlur stdDeviation="2.5"/>
<feComposite in2="hardAlpha" operator="out"/>
<feColorMatrix type="matrix" values="0 0 0 0 0.635417 0 0 0 0 0.709125 0 0 0 0 0.7625 0 0 0 0.35 0"/>
<feBlend mode="normal" in2="BackgroundImageFix" result="effect1_dropShadow_659_121265"/>
<feBlend mode="normal" in="SourceGraphic" in2="effect1_dropShadow_659_121265" result="shape"/>
</filter>
</defs>
</svg>
