<svg width="1124" height="430" viewBox="0 0 1124 430" fill="none" xmlns="http://www.w3.org/2000/svg">
<g clip-path="url(#clip0_659_103709)">
<rect width="1124" height="430" rx="32" fill="#FDECB9"/>
<circle cx="166.066" cy="166.066" r="166.066" transform="matrix(-1 0 0 1 1160.56 233.869)" fill="#D8E9B6"/>
<path d="M865.077 249.421C865.077 215.096 878.712 182.178 902.983 157.906C927.254 133.635 960.173 120 994.497 120C1028.82 120 1061.74 133.635 1086.01 157.906C1110.28 182.178 1123.92 215.096 1123.92 249.421L994.497 249.421H865.077Z" fill="#D8E9B6"/>
<path d="M397 464.5C397 409.202 418.967 356.17 458.068 317.068C497.17 277.967 550.202 256 605.5 256C660.798 256 713.83 277.967 752.932 317.068C792.033 356.17 814 409.202 814 464.5L605.5 464.5H397Z" fill="#D8E9B6"/>
<circle cx="134" cy="134" r="134" transform="matrix(-1 0 0 1 865 -108)" fill="#D8E9B6"/>
</g>
<defs>
<clipPath id="clip0_659_103709">
<rect width="1124" height="430" rx="32" fill="white"/>
</clipPath>
</defs>
</svg>
