<svg width="113" height="113" viewBox="0 0 113 113" fill="none" xmlns="http://www.w3.org/2000/svg">
<circle cx="56.9797" cy="56.9789" r="56" transform="rotate(28.613 56.9797 56.9789)" fill="url(#paint0_linear_659_130847)"/>
<path d="M29.6968 62.5279L26.3155 63.7636L25.6346 61.9001L34.6514 58.605L35.3323 60.4685L31.951 61.7042L35.1143 70.3603L32.8601 71.1841L29.6968 62.5279ZM35.5785 61.1622L37.4119 60.4922L37.8403 61.6644C37.8518 61.4784 37.8934 61.2815 37.9651 61.0736C38.0331 60.8557 38.1353 60.6537 38.2717 60.4676C38.4044 60.2714 38.5614 60.0948 38.7425 59.9378C38.9336 59.7771 39.1594 59.6492 39.4199 59.554C39.6102 59.4844 39.7742 59.4358 39.9118 59.4083C40.0593 59.3771 40.1568 59.3642 40.2042 59.3696L40.8468 61.1278C40.7319 61.1244 40.5889 61.1369 40.4176 61.1654C40.2527 61.1803 40.04 61.2353 39.7795 61.3305C39.4789 61.4403 39.2417 61.5838 39.068 61.7608C38.8942 61.9379 38.7683 62.1372 38.6903 62.3588C38.6186 62.5667 38.593 62.7918 38.6134 63.0342C38.6339 63.2766 38.688 63.518 38.7759 63.7584L40.4728 68.4021L38.4891 69.127L35.5785 61.1622ZM46.58 66.3747C46.1492 66.5322 45.7465 66.6112 45.372 66.6118C44.9937 66.6024 44.6491 66.5295 44.3382 66.3933C44.0235 66.2471 43.7512 66.0457 43.5211 65.7891C43.2874 65.5224 43.1046 65.2088 42.9728 64.8481C42.3871 63.2451 43.0459 62.0958 44.9495 61.4002L47.3239 60.5325L47.1866 60.1568C46.9962 59.6358 46.7424 59.3141 46.425 59.1915C46.1177 59.0653 45.7086 59.0956 45.1976 59.2823C44.7468 59.4471 44.4505 59.6462 44.3087 59.8797C44.1632 60.1033 44.1176 60.3357 44.1717 60.5771L42.188 61.302C42.0836 60.9541 42.0516 60.6024 42.092 60.2469C42.1425 59.8877 42.2696 59.5517 42.4732 59.2388C42.6832 58.9122 42.9716 58.6138 43.3384 58.3434C43.7016 58.0631 44.1487 57.8259 44.6797 57.6319C45.1906 57.4451 45.6716 57.3318 46.1227 57.2919C46.5837 57.2484 47.0053 57.2987 47.3873 57.443C47.7758 57.5736 48.1215 57.805 48.4246 58.1372C48.7277 58.4693 48.9799 58.9109 49.1813 59.4619L50.2961 62.5126C50.4499 62.9334 50.5904 63.3022 50.7175 63.6192C50.8511 63.9224 50.9928 64.217 51.1427 64.5029L49.2943 65.1784C49.1736 64.9727 49.0882 64.8165 49.0379 64.71C48.994 64.5897 48.9299 64.4144 48.8457 64.184C48.7424 64.5851 48.5093 64.9883 48.1463 65.3935C47.7934 65.795 47.2713 66.1221 46.58 66.3747ZM46.636 64.6167C46.8764 64.5289 47.1009 64.4128 47.3093 64.2684C47.5141 64.1141 47.6829 63.9389 47.8156 63.7427C47.9447 63.5366 48.0259 63.3081 48.0592 63.0575C48.0926 62.8068 48.058 62.5412 47.9555 62.2607L47.8182 61.885L45.8194 62.6154C45.4387 62.7545 45.1711 62.9545 45.0166 63.2154C44.8685 63.4626 44.8493 63.7365 44.9591 64.0371C45.0763 64.3576 45.2799 64.5729 45.5698 64.6827C45.8598 64.7925 46.2152 64.7705 46.636 64.6167ZM55.8402 62.9907C54.7982 63.3715 53.849 63.3379 52.9926 62.89C52.1425 62.4284 51.4667 61.5113 50.9651 60.1388L50.8553 59.8382C50.3866 58.5558 50.3352 57.4673 50.7011 56.5728C51.0669 55.6782 51.7658 55.0423 52.7977 54.6652C53.3387 54.4675 53.8585 54.4138 54.3572 54.5042C54.8622 54.5808 55.3145 54.7619 55.7141 55.0475L54.3796 51.3956L56.3633 50.6707L60.2075 61.1903L58.3591 61.8658L57.9307 60.6936C57.8621 61.1275 57.6619 61.5584 57.3299 61.9864C56.998 62.4143 56.5014 62.7491 55.8402 62.9907ZM55.6909 61.1374C56.2821 60.9213 56.6957 60.5771 56.9319 60.1047C57.1744 59.6186 57.1657 59.0199 56.9058 58.3085L56.5763 57.4068C56.3383 56.7556 55.9704 56.3393 55.4725 56.1578C54.981 55.9627 54.4497 55.9694 53.8787 56.1781C53.3377 56.3758 52.9664 56.7273 52.7649 57.2325C52.5597 57.7276 52.5944 58.3509 52.869 59.1023L52.9789 59.4029C53.2754 60.2144 53.6722 60.7564 54.1693 61.029C54.6628 61.2916 55.17 61.3277 55.6909 61.1374ZM65.687 59.3923C65.146 59.59 64.6008 59.6984 64.0513 59.7175C63.5081 59.723 62.9958 59.6263 62.5143 59.4275C62.0292 59.2186 61.588 58.8972 61.1909 58.4631C60.7902 58.019 60.4635 57.4513 60.2108 56.76L60.101 56.4595C59.8594 55.7983 59.749 55.1856 59.77 54.6214C59.791 54.0573 59.9182 53.5509 60.1517 53.1021C60.3816 52.6434 60.6976 52.2496 61.0999 51.9209C61.4985 51.5822 61.9633 51.3158 62.4943 51.1218C63.7466 50.6641 64.8192 50.6469 65.7121 51.0702C66.6049 51.4934 67.2802 52.3312 67.7378 53.5835L68.0454 54.4251L62.4099 56.4845C62.548 56.8315 62.7198 57.1151 62.9252 57.3353C63.1269 57.5455 63.3473 57.6978 63.5862 57.7922C63.8251 57.8866 64.0744 57.9318 64.3341 57.9277C64.6002 57.91 64.8535 57.8572 65.0939 57.7693C65.6049 57.5826 65.9631 57.3665 66.1687 57.121C66.3743 56.8756 66.4791 56.5874 66.4831 56.2566L68.3015 55.5921C68.445 56.4822 68.2781 57.253 67.8007 57.9045C67.3233 58.5559 66.6188 59.0519 65.687 59.3923ZM63.1625 52.7173C62.9321 52.8015 62.7127 52.9158 62.5042 53.0601C62.3058 53.2008 62.1452 53.3673 62.0225 53.5598C61.8997 53.7523 61.8236 53.9789 61.7939 54.2396C61.7642 54.5003 61.8011 54.7877 61.9046 55.102L65.6165 53.7455C65.4857 53.4185 65.3299 53.1632 65.1492 52.9794C64.9785 52.7919 64.7842 52.6642 64.5662 52.5962C64.3583 52.5245 64.135 52.5039 63.8963 52.5343C63.6576 52.5648 63.413 52.6258 63.1625 52.7173ZM71.0954 45.2871L73.3496 44.4633L77.1938 54.9829L74.9396 55.8067L71.0954 45.2871ZM76.5386 46.1939L78.372 45.5239L78.8004 46.6961C78.8589 46.2658 79.0491 45.8386 79.3711 45.4143C79.703 44.9864 80.2297 44.6406 80.951 44.377C81.9228 44.0219 82.7394 44.0188 83.4006 44.3677C84.0719 44.7129 84.5869 45.3764 84.9457 46.3582L86.8129 51.4678L84.8292 52.1927L83.1268 47.534C82.9071 46.9329 82.6171 46.5278 82.2568 46.3188C81.9065 46.1061 81.4359 46.1077 80.8448 46.3237C80.5242 46.4409 80.272 46.5899 80.0882 46.7706C79.9044 46.9513 79.7684 47.1543 79.6804 47.3795C79.5987 47.5911 79.5631 47.8199 79.5735 48.0659C79.5903 48.2983 79.6426 48.5347 79.7305 48.7751L81.4329 53.4338L79.4492 54.1587L76.5386 46.1939Z" fill="white"/>
<defs>
<linearGradient id="paint0_linear_659_130847" x1="93.5951" y1="88.7481" x2="16.2117" y2="22.0349" gradientUnits="userSpaceOnUse">
<stop stop-color="#FFA800"/>
<stop offset="0.328125" stop-color="#F8BF14"/>
<stop offset="0.786452" stop-color="#FAD66B"/>
<stop offset="0.842393" stop-color="#FFA901"/>
<stop offset="0.908367" stop-color="#FFA901"/>
<stop offset="1" stop-color="#F9C016"/>
</linearGradient>
</defs>
</svg>
